<svg version="1.1" xmlns="http://www.w3.org/2000/svg" xmlns:xlink="http://www.w3.org/1999/xlink" x="0px" y="0px"
	 viewBox="0 0 211 94" enable-background="new 0 0 211 94" xml:space="preserve">
<g>
	<polygon fill="#FFF100" points="43.7,31.7 34.5,94.1 24.7,86.5 26.5,65 13,73.4 -0.1,62.4 25.4,12.8 29.3,23.9 17.7,56.6 28.5,49 
		29.8,40.4 	"/>
	<path fill="#FFF100" d="M91.5,23.6l1.3-14.5L70.7-0.1L47.6,40.6l15.1,12.6l10.4-11.4l-5.5,22.1l10.6,20.4L91.5,23.6L91.5,23.6z
		 M74.9,16.5l-0.5,9.8l-8.5,10.9l-2.7-0.5L74.9,16.5L74.9,16.5z"/>
	<polygon fill="#FFF100" points="109,65 95.2,58 102.6,12.5 110.2,22.7 121,12.3 133.5,26.9 154.7,2.8 176.7,22.9 211.1,1 199.7,12 
		173.9,35.9 155.7,24.4 138,49.2 124,39.6 114.6,33.5 	"/>
</g>
</svg>
