<svg version="1.1" xmlns="http://www.w3.org/2000/svg" xmlns:xlink="http://www.w3.org/1999/xlink" x="0px" y="0px"
	 viewBox="0 0 87 87" enable-background="new 0 0 87 87" xml:space="preserve">
<g>
	<defs>
		<circle id="SVGID_1_" cx="43.4" cy="43.4" r="43.4"/>
	</defs>
	<clipPath id="SVGID_2_">
		<use xlink:href="#SVGID_1_"  overflow="visible"/>
	</clipPath>
	<circle clip-path="url(#SVGID_2_)" fill="#FFF100" cx="43.4" cy="43.4" r="43.4"/>
	<path opacity="5.000000e-02" clip-path="url(#SVGID_2_)" d="M89.7,49.9c0-0.1,0-0.1-0.1-0.1c-0.1-0.3-0.3-0.5-0.5-0.6
		c-0.1-0.1-0.2-0.2-0.2-0.2c-0.1-0.1-0.2-0.2-0.2-0.2c-0.1-0.1-0.2-0.2-0.2-0.2c-0.1-0.1-0.2-0.2-0.2-0.2C88.2,48.1,88.1,48,88,48
		c-0.1-0.1-0.2-0.2-0.2-0.2c-0.1-0.1-0.2-0.2-0.2-0.2c-0.1-0.1-0.2-0.2-0.2-0.2c-0.1-0.1-0.2-0.2-0.2-0.2c-0.1-0.1-0.2-0.2-0.2-0.2
		c-0.1-0.1-0.2-0.2-0.2-0.2c-0.1-0.1-0.2-0.2-0.2-0.2c-0.1-0.1-0.2-0.2-0.2-0.2c-0.1-0.1-0.2-0.2-0.2-0.2c-0.1-0.1-0.2-0.2-0.2-0.2
		c-0.1-0.1-0.2-0.2-0.2-0.2c-0.1-0.1-0.2-0.2-0.2-0.2C85,45,85,44.9,84.9,44.8c-0.1-0.1-0.2-0.2-0.2-0.2c-0.1-0.1-0.2-0.2-0.2-0.2
		c-0.1-0.1-0.2-0.2-0.2-0.2c-0.1-0.1-0.2-0.2-0.2-0.2c-0.1-0.1-0.2-0.2-0.2-0.2c-0.1-0.1-0.2-0.2-0.2-0.2c-0.1-0.1-0.2-0.2-0.2-0.2
		C83.1,43,83,43,82.9,42.9c-0.1-0.1-0.2-0.2-0.2-0.2c-0.1-0.1-0.2-0.2-0.2-0.2c-0.1-0.1-0.2-0.2-0.2-0.2c-0.1-0.1-0.2-0.2-0.2-0.2
		c-0.1-0.1-0.2-0.2-0.2-0.2c-0.1-0.1-0.2-0.2-0.2-0.2c-0.1-0.1-0.2-0.2-0.2-0.2C81.2,41.1,81.1,41,81,41c-0.1-0.1-0.2-0.2-0.2-0.2
		c-0.1-0.1-0.2-0.2-0.2-0.2c-0.1-0.1-0.2-0.2-0.2-0.2c-0.1-0.1-0.2-0.2-0.2-0.2c-0.1-0.1-0.2-0.2-0.2-0.2c-0.1-0.1-0.2-0.2-0.2-0.2
		c-0.1-0.1-0.2-0.2-0.2-0.2c-0.1-0.1-0.2-0.2-0.2-0.2c-0.1-0.1-0.2-0.2-0.2-0.2c-0.1-0.1-0.2-0.2-0.2-0.2c-0.1-0.1-0.2-0.2-0.2-0.2
		c-0.1-0.1-0.2-0.2-0.2-0.2C78,38,78,37.9,77.9,37.8c-0.1-0.1-0.2-0.2-0.2-0.2c-0.1-0.1-0.2-0.2-0.2-0.2c-0.1-0.1-0.2-0.2-0.2-0.2
		c-0.1-0.1-0.2-0.2-0.2-0.2c-0.1-0.1-0.2-0.2-0.2-0.2c-0.1-0.1-0.2-0.2-0.2-0.2c-0.1-0.1-0.2-0.2-0.2-0.2C76.1,36,76,36,75.9,35.9
		c-0.1-0.1-0.2-0.2-0.2-0.2c-0.1-0.1-0.2-0.2-0.2-0.2c-0.1-0.1-0.2-0.2-0.2-0.2c-0.1-0.1-0.2-0.2-0.2-0.2c-0.1-0.1-0.2-0.2-0.2-0.2
		c-0.1-0.1-0.2-0.2-0.2-0.2c-0.1-0.1-0.2-0.2-0.2-0.2C74.2,34.1,74.1,34,74,34c-0.1-0.1-0.2-0.2-0.2-0.2c-0.1-0.1-0.2-0.2-0.2-0.2
		c-0.1-0.1-0.2-0.2-0.2-0.2c-0.1-0.1-0.2-0.2-0.2-0.2c-0.1-0.1-0.2-0.2-0.2-0.2c-0.1-0.1-0.2-0.2-0.2-0.2c-0.1-0.1-0.2-0.2-0.2-0.2
		c-0.1-0.1-0.2-0.2-0.2-0.2c-0.1-0.1-0.2-0.2-0.2-0.2c-0.1-0.1-0.2-0.2-0.2-0.2c-0.1-0.1-0.2-0.2-0.2-0.2c-0.1-0.1-0.2-0.2-0.2-0.2
		C71,31,71,30.9,70.9,30.8c-0.1-0.1-0.2-0.2-0.2-0.2c-0.1-0.1-0.2-0.2-0.2-0.2c-0.1-0.1-0.2-0.2-0.2-0.2c-0.1-0.1-0.2-0.2-0.2-0.2
		c-0.1-0.1-0.2-0.2-0.2-0.2c-0.1-0.1-0.2-0.2-0.2-0.2c-0.1-0.1-0.2-0.2-0.2-0.2C69.1,29,69,29,69,28.9c-0.1-0.1-0.2-0.2-0.2-0.2
		c-0.1-0.1-0.2-0.2-0.2-0.2c-0.1-0.1-0.2-0.2-0.2-0.2c-0.1-0.1-0.2-0.2-0.2-0.2c-0.1-0.1-0.2-0.2-0.2-0.2c-0.1-0.1-0.2-0.2-0.2-0.2
		c-0.1-0.1-0.2-0.2-0.2-0.2C67.2,27.1,67.1,27,67,27c-0.1-0.1-0.2-0.2-0.2-0.2c-0.1-0.1-0.2-0.2-0.2-0.2c-0.1-0.1-0.2-0.2-0.2-0.2
		c-0.1-0.1-0.2-0.2-0.2-0.2c-0.1-0.1-0.2-0.2-0.2-0.2c-0.1-0.1-0.2-0.2-0.2-0.2c-0.1-0.1-0.2-0.2-0.2-0.2c-0.1-0.1-0.2-0.2-0.2-0.2
		c-0.1-0.1-0.2-0.2-0.2-0.2c-0.1-0.1-0.2-0.2-0.2-0.2c-0.1-0.1-0.2-0.2-0.2-0.2c-0.1-0.1-0.2-0.2-0.2-0.2C64,24,64,23.9,63.9,23.8
		c-0.1-0.1-0.2-0.2-0.2-0.2c-0.1-0.1-0.2-0.2-0.2-0.2c-0.1-0.1-0.2-0.2-0.2-0.2c-0.1-0.1-0.2-0.2-0.2-0.2c-0.1-0.1-0.2-0.2-0.2-0.2
		c-0.1-0.1-0.2-0.2-0.2-0.2c-0.1-0.1-0.2-0.2-0.2-0.2C62.1,22,62,22,62,21.9c-0.1-0.1-0.2-0.2-0.2-0.2c-0.1-0.1-0.2-0.2-0.2-0.2
		c-0.1-0.1-0.2-0.2-0.2-0.2c-0.1-0.1-0.2-0.2-0.2-0.2c-0.1-0.1-0.2-0.2-0.2-0.2c-0.1-0.1-0.2-0.2-0.2-0.2C60.3,20.2,60,20,59.8,20
		H26.2c-0.3,0-0.7,0.3-0.9,0.8c0,0,0,0.1-0.1,0.1c-0.2,0.4-0.2,0.8-0.2,1.2v41.7c0,0.4,0.1,0.9,0.2,1.2c0,0.1,0,0.1,0.1,0.1
		c0.1,0.3,0.3,0.4,0.5,0.6c0.1,0.1,0.2,0.2,0.2,0.2c0.1,0.1,0.2,0.2,0.2,0.2c0.1,0.1,0.2,0.2,0.2,0.2c0.1,0.1,0.2,0.2,0.2,0.2
		c0.1,0.1,0.2,0.2,0.2,0.2c0.1,0.1,0.2,0.2,0.2,0.2c0.1,0.1,0.2,0.2,0.2,0.2c0.1,0.1,0.2,0.2,0.2,0.2c0.1,0.1,0.2,0.2,0.2,0.2
		c0.1,0.1,0.2,0.2,0.2,0.2c0.1,0.1,0.2,0.2,0.2,0.2c0.1,0.1,0.2,0.2,0.2,0.2c0.1,0.1,0.2,0.2,0.2,0.2c0.1,0.1,0.2,0.2,0.2,0.2
		c0.1,0.1,0.2,0.2,0.2,0.2c0.1,0.1,0.2,0.2,0.2,0.2c0.1,0.1,0.2,0.2,0.2,0.2c0.1,0.1,0.2,0.2,0.2,0.2c0.1,0.1,0.2,0.2,0.2,0.2
		c0.1,0.1,0.2,0.2,0.2,0.2c0.1,0.1,0.2,0.2,0.2,0.2c0.1,0.1,0.2,0.2,0.2,0.2c0.1,0.1,0.2,0.2,0.2,0.2c0.1,0.1,0.2,0.2,0.2,0.2
		c0.1,0.1,0.2,0.2,0.2,0.2c0.1,0.1,0.2,0.2,0.2,0.2c0.1,0.1,0.2,0.2,0.2,0.2c0.1,0.1,0.2,0.2,0.2,0.2c0.1,0.1,0.2,0.2,0.2,0.2
		c0.1,0.1,0.2,0.2,0.2,0.2c0.1,0.1,0.2,0.2,0.2,0.2c0.1,0.1,0.2,0.2,0.2,0.2c0.1,0.1,0.2,0.2,0.2,0.2c0.1,0.1,0.2,0.2,0.2,0.2
		c0.1,0.1,0.2,0.2,0.2,0.2c0.1,0.1,0.2,0.2,0.2,0.2c0.1,0.1,0.2,0.2,0.2,0.2c0.1,0.1,0.2,0.2,0.2,0.2c0.1,0.1,0.2,0.2,0.2,0.2
		c0.1,0.1,0.2,0.2,0.2,0.2c0.1,0.1,0.2,0.2,0.2,0.2c0.1,0.1,0.2,0.2,0.2,0.2c0.1,0.1,0.2,0.2,0.2,0.2c0.1,0.1,0.2,0.2,0.2,0.2
		c0.1,0.1,0.2,0.2,0.2,0.2c0.1,0.1,0.2,0.2,0.2,0.2c0.1,0.1,0.2,0.2,0.2,0.2c0.1,0.1,0.2,0.2,0.2,0.2c0.1,0.1,0.2,0.2,0.2,0.2
		c0.1,0.1,0.2,0.2,0.2,0.2c0.1,0.1,0.2,0.2,0.2,0.2c0.1,0.1,0.2,0.2,0.2,0.2c0.1,0.1,0.2,0.2,0.2,0.2c0.1,0.1,0.2,0.2,0.2,0.2
		c0.1,0.1,0.2,0.2,0.2,0.2c0.1,0.1,0.2,0.2,0.2,0.2c0.1,0.1,0.2,0.2,0.2,0.2c0.1,0.1,0.2,0.2,0.2,0.2c0.1,0.1,0.2,0.2,0.2,0.2
		c0.1,0.1,0.2,0.2,0.2,0.2c0.1,0.1,0.2,0.2,0.2,0.2c0.1,0.1,0.2,0.2,0.2,0.2c0.1,0.1,0.2,0.2,0.2,0.2c0.1,0.1,0.2,0.2,0.2,0.2
		c0.1,0.1,0.2,0.2,0.2,0.2c0.1,0.1,0.2,0.2,0.2,0.2c0.1,0.1,0.2,0.2,0.2,0.2c0.1,0.1,0.2,0.2,0.2,0.2c0.1,0.1,0.2,0.2,0.2,0.2
		c0.1,0.1,0.2,0.2,0.2,0.2c0.1,0.1,0.2,0.2,0.2,0.2c0.1,0.1,0.2,0.2,0.2,0.2c0.1,0.1,0.2,0.2,0.2,0.2c0.1,0.1,0.2,0.2,0.2,0.2
		c0.1,0.1,0.2,0.2,0.2,0.2c0.1,0.1,0.2,0.2,0.2,0.2c0.1,0.1,0.2,0.2,0.2,0.2c0.1,0.1,0.2,0.2,0.2,0.2c0.1,0.1,0.2,0.2,0.2,0.2
		c0.1,0.1,0.2,0.2,0.2,0.2c0.1,0.1,0.2,0.2,0.2,0.2c0.1,0.1,0.2,0.2,0.2,0.2c0.1,0.1,0.2,0.2,0.2,0.2c0.1,0.1,0.2,0.2,0.2,0.2
		c0.1,0.1,0.2,0.2,0.2,0.2c0.1,0.1,0.2,0.2,0.2,0.2c0.1,0.1,0.2,0.2,0.2,0.2c0.1,0.1,0.2,0.2,0.2,0.2c0.1,0.1,0.2,0.2,0.2,0.2
		c0.1,0.1,0.2,0.2,0.2,0.2c0.1,0.1,0.2,0.2,0.2,0.2c0.1,0.1,0.2,0.2,0.2,0.2c0.1,0.1,0.2,0.2,0.2,0.2c0.1,0.1,0.2,0.2,0.2,0.2
		c0.1,0.1,0.2,0.2,0.2,0.2c0.1,0.1,0.2,0.2,0.2,0.2c0.1,0.1,0.2,0.2,0.2,0.2c0.1,0.1,0.2,0.2,0.2,0.2c0.1,0.1,0.2,0.2,0.2,0.2
		c0.1,0.1,0.2,0.2,0.2,0.2c0.1,0.1,0.2,0.2,0.2,0.2c0.1,0.1,0.2,0.2,0.2,0.2c0.1,0.1,0.2,0.2,0.2,0.2c0.1,0.1,0.2,0.2,0.2,0.2
		c0.1,0.1,0.2,0.2,0.2,0.2c0.1,0.1,0.2,0.2,0.2,0.2c0.1,0.1,0.2,0.2,0.2,0.2c0.1,0.1,0.2,0.2,0.2,0.2c0.1,0.1,0.2,0.2,0.2,0.2
		c0.1,0.1,0.2,0.2,0.2,0.2c0.1,0.1,0.2,0.2,0.2,0.2c0.1,0.1,0.2,0.2,0.2,0.2c0.1,0.1,0.2,0.2,0.2,0.2c0.1,0.1,0.2,0.2,0.2,0.2
		c0.1,0.1,0.2,0.2,0.2,0.2c0.1,0.1,0.2,0.2,0.2,0.2c0.1,0.1,0.2,0.2,0.2,0.2c0.1,0.1,0.2,0.2,0.2,0.2c0.1,0.1,0.2,0.2,0.2,0.2
		c0.2,0.3,0.5,0.4,0.7,0.4h33.6c0.3,0,0.7-0.3,0.9-0.8c0,0,0-0.1,0.1-0.1c0.2-0.4,0.2-0.8,0.2-1.2V51.1C90,50.7,89.9,50.3,89.7,49.9
		z"/>
	<g clip-path="url(#SVGID_2_)">
		<path fill="#404553" d="M26.2,66c-0.3,0-0.7-0.3-0.9-0.8c0,0,0-0.1-0.1-0.1c-0.2-0.4-0.2-0.8-0.2-1.2V22.2c0-0.4,0.1-0.9,0.2-1.2
			c0,0,0-0.1,0.1-0.1c0.2-0.5,0.6-0.8,0.9-0.8h33.6c0.3,0,0.7,0.3,0.9,0.8c0,0,0,0.1,0.1,0.1c0.2,0.4,0.2,0.8,0.2,1.2v41.7
			c0,0.4-0.1,0.9-0.2,1.2c0,0.1,0,0.1-0.1,0.1c-0.2,0.5-0.6,0.8-0.9,0.8H26.2z"/>
		<path fill="#F1F1F1" d="M29.7,35.2c-0.9,0-1.7-0.7-1.7-1.7v-8.8c0-0.9,0.7-1.7,1.7-1.7h26.7c0.9,0,1.7,0.7,1.7,1.7v8.8
			c0,0.9-0.7,1.7-1.7,1.7H29.7z"/>
		<g>
			<path fill="#0096EE" d="M40.1,47.6c0,0.9-0.7,1.6-1.6,1.6h-8.2c-0.9,0-1.6-0.7-1.6-1.6v-8.2c0-0.9,0.7-1.6,1.6-1.6h8.2
				c0.9,0,1.6,0.7,1.6,1.6V47.6z"/>
			<path fill="#FFFFFF" d="M33.7,48.1c-0.3,0-0.5-0.2-0.5-0.5v-2.2c0-0.3-0.2-0.5-0.5-0.5h-2.2c-0.3,0-0.5-0.2-0.5-0.5v-1.2
				c0-0.3,0.2-0.5,0.5-0.5h2.2c0.3,0,0.5-0.2,0.5-0.5v-2.2c0-0.3,0.2-0.5,0.5-0.5h1.1c0.3,0,0.5,0.2,0.5,0.5v2.2
				c0,0.3,0.2,0.5,0.5,0.5h2.2c0.3,0,0.5,0.2,0.5,0.5v1.2c0,0.3-0.2,0.5-0.5,0.5h-2.2c-0.3,0-0.5,0.2-0.5,0.5v2.2
				c0,0.3-0.2,0.5-0.5,0.5H33.7z"/>
			<path fill="#FF2086" d="M57.2,47.6c0,0.9-0.7,1.6-1.6,1.6h-8.2c-0.9,0-1.6-0.7-1.6-1.6v-8.2c0-0.9,0.7-1.6,1.6-1.6h8.2
				c0.9,0,1.6,0.7,1.6,1.6V47.6z"/>
			<path fill="#0096EE" d="M40.1,61.8c0,0.9-0.7,1.6-1.6,1.6h-8.2c-0.9,0-1.6-0.7-1.6-1.6v-8.2c0-0.9,0.7-1.6,1.6-1.6h8.2
				c0.9,0,1.6,0.7,1.6,1.6V61.8z"/>
			<path fill="#664A9E" d="M57.2,61.8c0,0.9-0.7,1.6-1.6,1.6h-8.2c-0.9,0-1.6-0.7-1.6-1.6v-8.2c0-0.9,0.7-1.6,1.6-1.6h8.2
				c0.9,0,1.6,0.7,1.6,1.6V61.8z"/>
			<path fill="#FFFFFF" d="M49.1,45.1c-0.3,0-0.6-0.3-0.6-0.6v-1.6c0-0.3,0.3-0.6,0.6-0.6h4.3c0.3,0,0.6,0.3,0.6,0.6v1.6
				c0,0.3-0.3,0.6-0.6,0.6H49.1z"/>
			<path fill="#FFFFFF" d="M48.1,56.7c-0.3,0-0.5-0.2-0.5-0.5v-1.1c0-0.3,0.2-0.5,0.5-0.5h7c0.3,0,0.5,0.2,0.5,0.5v1.1
				c0,0.3-0.2,0.5-0.5,0.5H48.1z M48.1,60.2c-0.3,0-0.5-0.2-0.5-0.5v-1.1c0-0.3,0.2-0.5,0.5-0.5h7c0.3,0,0.5,0.2,0.5,0.5v1.1
				c0,0.3-0.2,0.5-0.5,0.5H48.1z"/>
			<path fill="#FFFFFF" d="M30.8,61.3c-0.2,0-0.3-0.2-0.2-0.3l2.1-3c0.1-0.2,0.1-0.5,0-0.7l-2-2.8c-0.1-0.2-0.1-0.3,0.2-0.3h1.5
				c0.2,0,0.5,0.2,0.6,0.3l0.8,1.3c0.1,0.2,0.3,0.2,0.5,0l0.9-1.3c0.1-0.2,0.4-0.3,0.6-0.3h1.4c0.2,0,0.3,0.2,0.2,0.3l-2,2.7
				c-0.1,0.2-0.1,0.5,0,0.7l2.2,3.1c0.1,0.2,0.1,0.3-0.2,0.3h-1.5c-0.2,0-0.5-0.2-0.6-0.3l-1-1.5c-0.1-0.2-0.3-0.2-0.5,0l-1,1.5
				c-0.1,0.2-0.4,0.3-0.6,0.3H30.8z"/>
		</g>
	</g>
</g>
</svg>
