<?xml version="1.0" encoding="utf-8"?>
<!-- Generator: Adobe Illustrator 18.0.0, SVG Export Plug-In . SVG Version: 6.00 Build 0)  -->
<!DOCTYPE svg PUBLIC "-//W3C//DTD SVG 1.1//EN" "http://www.w3.org/Graphics/SVG/1.1/DTD/svg11.dtd">
<svg version="1.1" id="Layer_1" xmlns="http://www.w3.org/2000/svg" xmlns:xlink="http://www.w3.org/1999/xlink" x="0px" y="0px"
	 viewBox="0 0 40 40" enable-background="new 0 0 40 40" xml:space="preserve">
<path id="Facebook_3_" fill="#FFFFFF" d="M16,14c0,0.5,0,2,0,2h-1v4h1v10h5V20h3.1c0,0,0.3-1,0.4-4c-0.4,0-3.5,0-3.5,0s0-1.2,0-1.5
	c0-0.3,0.8-0.5,1.3-0.5c0.4,0,1.7,0,1.7,0c0-1,0-2,0-4c-2,0-1.9,0-2.5,0C17.2,10,16,13.5,16,14z"/>
</svg>
