<svg version="1.1" xmlns="http://www.w3.org/2000/svg" xmlns:xlink="http://www.w3.org/1999/xlink" x="0px" y="0px"
	 viewBox="0 0 40 40" enable-background="new 0 0 40 40" xml:space="preserve">
<path fill="#FFFFFF" d="M29.8,17.9h-2.9c-0.2-0.6-0.4-1.1-0.7-1.6l2-2c0.5-0.5,0.5-1.2,0-1.7l-0.8-0.8c-0.5-0.5-1.2-0.5-1.7,0l-2,2
	c-0.5-0.3-1.1-0.5-1.7-0.7v-2.6c0-0.6-0.5-1.2-1.2-1.2h-1.2c-0.6,0-1.2,0.5-1.2,1.2v2.6c-0.7,0.2-1.3,0.4-1.9,0.8l-1.7-1.7
	c-0.5-0.5-1.2-0.5-1.7,0L12.2,13c-0.5,0.5-0.5,1.2,0,1.7l1.7,1.7c-0.4,0.6-0.6,1.3-0.8,2H11c-0.7,0-1.2,0.5-1.2,1.2v1.2
	c0,0.6,0.5,1.2,1.2,1.2h2.4c0.2,0.7,0.5,1.4,1,2l-1.6,1.6c-0.5,0.5-0.5,1.2,0,1.7l0.8,0.8c0.5,0.5,1.2,0.5,1.7,0l1.8-1.8
	c0.6,0.3,1.3,0.5,1.9,0.6v2.5c0,0.6,0.5,1.2,1.2,1.2h1.2c0.6,0,1.2-0.5,1.2-1.2v-2.8c0.6-0.2,1.2-0.5,1.7-0.8l1.9,1.9
	c0.5,0.5,1.2,0.5,1.7,0l0.8-0.8c0.5-0.5,0.5-1.2,0-1.7L26.4,23c0.3-0.5,0.5-1.1,0.6-1.6h2.8c0.7,0,1.2-0.5,1.2-1.2V19
	C30.9,18.4,30.4,17.9,29.8,17.9z M20.1,22.8c-1.6,0-2.9-1.3-2.9-2.9c0-1.6,1.3-2.9,2.9-2.9c1.6,0,2.9,1.3,2.9,2.9
	C23,21.5,21.7,22.8,20.1,22.8z"/>
</svg>
