<?xml version="1.0" encoding="utf-8"?>
<!-- Generator: Adobe Illustrator 18.0.0, SVG Export Plug-In . SVG Version: 6.00 Build 0)  -->
<!DOCTYPE svg PUBLIC "-//W3C//DTD SVG 1.1//EN" "http://www.w3.org/Graphics/SVG/1.1/DTD/svg11.dtd">
<svg version="1.1" id="Layer_1" xmlns="http://www.w3.org/2000/svg" xmlns:xlink="http://www.w3.org/1999/xlink" x="0px" y="0px"
	 viewBox="0 0 200 200" enable-background="new 0 0 200 200" xml:space="preserve">
<circle fill="#FFFFFF" cx="100" cy="100" r="99.9"/>
<g id="New_Symbol_2">
	<g>
		<g>
			<circle fill="#F2F2F2" cx="100" cy="100" r="47.1"/>
		</g>
	</g>
	<circle fill="#70D551" cx="100" cy="100.5" r="42.4"/>
</g>
<g>
	<path fill="#E6E6E6" d="M94.3,35.3c0,0,2.4,1.2,2.4,1.2s2.3-1.5,2.2-1.5V18.6c0.1,0.1-3-0.8-3-0.8S92.8,19,92.7,19L94.3,35.3z"/>
	<path fill="#E6E6E6" d="M87,36.3c0,0,2.5,0.9,2.5,0.9s2.1-1.8,2.1-1.7l-1.7-16.2c0.1,0.1-3-0.5-3-0.5s-3,1.5-3,1.4L87,36.3z"/>
	<path fill="#E6E6E6" d="M80.6,38c0,0,2.6,0.6,2.6,0.6s1.9-2,1.9-1.9l-3.4-16c0.1,0.1-3.1-0.2-3.1-0.2s-2.8,1.8-2.9,1.8L80.6,38z"/>
	<path fill="#E6E6E6" d="M73.9,40.4c0,0,2.6,0.4,2.6,0.4s1.7-2.1,1.7-2.1l-5.1-15.5c0.1,0.1-3.1,0.2-3.1,0.2s-2.6,2.1-2.7,2
		L73.9,40.4z"/>
	<path fill="#E6E6E6" d="M67.7,43.5c0,0,2.6,0.1,2.6,0.1s1.5-2.3,1.4-2.3l-6.7-14.9c0.1,0.1-3,0.5-3,0.5s-2.4,2.3-2.4,2.3L67.7,43.5
		z"/>
	<path fill="#E6E6E6" d="M62.1,47.1c0,0,2.6-0.2,2.6-0.2s1.2-2.5,1.2-2.4l-8.2-14.1c0.1,0.1-3,0.8-3,0.8s-2.1,2.6-2.2,2.6L62.1,47.1
		z"/>
	<path fill="#ED1C24" d="M56.8,51.3c0,0,2.6-0.5,2.6-0.5s0.9-2.6,0.9-2.5l-9.6-13.2c0.1,0.1-2.9,1.1-2.9,1.1S46,39,45.9,39
		L56.8,51.3z"/>
	<path fill="#FF0000" d="M51.9,56.1c0,0,2.6-0.7,2.6-0.7s0.7-2.7,0.7-2.6l-11-12.1c0.1,0-2.7,1.4-2.7,1.4s-1.5,3-1.6,3L51.9,56.1z"
		/>
	<path fill="#FF0000" d="M47.6,61.3c0,0,2.5-1,2.5-1s0.4-2.7,0.4-2.7L38.3,46.8c0.1,0-2.6,1.7-2.6,1.7s-1.2,3.1-1.3,3.1L47.6,61.3z"
		/>
	<path fill="#FF0000" d="M43.9,67c0,0,2.3-1.2,2.3-1.2s0.1-2.7,0.1-2.7l-13.2-9.6c0.1,0-2.4,1.9-2.4,1.9s-0.9,3.2-0.9,3.2L43.9,67z"
		/>
	<path fill="#FF0000" d="M40.8,73.1c0,0,2.2-1.5,2.2-1.5s-0.2-2.7-0.2-2.7l-14.2-8.1c0.1,0-2.2,2.2-2.2,2.2s-0.5,3.3-0.6,3.3
		L40.8,73.1z"/>
	<path fill="#FF0000" d="M38.3,79.4c0,0,2-1.7,2-1.7S39.8,75,39.9,75l-14.9-6.6c0.1,0-1.9,2.4-1.9,2.4s-0.2,3.3-0.3,3.4L38.3,79.4z"
		/>
	<path fill="#FF0000" d="M36.5,85.9c0,0,1.8-1.9,1.8-1.9s-0.7-2.6-0.7-2.6l-15.5-5c0.2,0-1.7,2.6-1.7,2.6s0.1,3.3,0.1,3.4L36.5,85.9
		z"/>
	<path fill="#FF0000" d="M35.4,92.7c0,0,1.6-2.1,1.6-2.1s-1-2.5-1-2.5l-16-3.3c0.1,0-1.4,2.7-1.4,2.7s0.5,3.3,0.4,3.3L35.4,92.7z"/>
	<path fill="#FF0000" d="M34.9,99.4c0,0,1.4-2.2,1.4-2.2s-1.3-2.4-1.2-2.4l-16.2-1.7c0.1-0.1-1.1,2.9-1.1,2.9s0.8,3.2,0.8,3.3
		L34.9,99.4z"/>
	<path fill="#FF931E" d="M35.2,105.9c0,0,1.2-2.4,1.2-2.4s-1.5-2.3-1.5-2.2l-16.3,0c0.1-0.1-0.8,3-0.8,3s1.2,3.1,1.1,3.2L35.2,105.9
		z"/>
	<path fill="#FF931E" d="M36.1,112.4c0-0.1,0.9-2.5,0.9-2.5s-1.7-2.1-1.7-2.1l-16.3,1.6c0.1-0.1-0.5,3-0.5,3s1.5,3,1.4,3.1
		L36.1,112.4z"/>
	<path fill="#FF931E" d="M37.8,119c0,0,0.7-2.6,0.7-2.6s-1.9-1.9-1.9-1.9l-16,3.3c0.1-0.1-0.2,3.1-0.2,3.1s1.8,2.8,1.7,2.9L37.8,119
		z"/>
	<path fill="#FF931E" d="M40.1,125.5c0,0,0.4-2.6,0.4-2.6s-2.1-1.7-2.1-1.7l-15.6,5c0.1-0.1,0.2,3.1,0.2,3.1s2.1,2.6,2,2.7
		L40.1,125.5z"/>
	<path fill="#FF931E" d="M43.1,131.6c0-0.1,0.1-2.6,0.1-2.6s-2.3-1.5-2.2-1.5L26,134c0.1-0.1,0.5,3,0.5,3s2.3,2.4,2.3,2.5
		L43.1,131.6z"/>
	<path fill="#FF931E" d="M46.7,137.3c0,0-0.2-2.6-0.2-2.6s-2.4-1.2-2.4-1.2l-14.2,8.1c0.1-0.1,0.8,3,0.8,3s2.6,2.2,2.5,2.2
		L46.7,137.3z"/>
	<path fill="#FF931E" d="M50.9,142.7c0,0-0.4-2.6-0.4-2.6s-2.6-1-2.5-1l-13.3,9.5c0.1-0.1,1.1,2.9,1.1,2.9s2.8,1.9,2.8,1.9
		L50.9,142.7z"/>
	<path fill="#FF931E" d="M55.6,147.5c0,0-0.7-2.5-0.7-2.5s-2.6-0.7-2.6-0.7l-12.2,10.8c0.1-0.1,1.4,2.7,1.4,2.7s3,1.6,2.9,1.6
		L55.6,147.5z"/>
	<path fill="#FF931E" d="M60.8,151.9c0,0-1-2.5-1-2.5s-2.7-0.4-2.6-0.4l-11,12c0-0.2,1.6,2.6,1.6,2.6s3.1,1.3,3.1,1.3L60.8,151.9z"
		/>
	<path fill="#FF931E" d="M66.4,155.7c0,0-1.2-2.3-1.2-2.3s-2.7-0.1-2.7-0.2l-9.7,13.1c0-0.2,1.9,2.4,1.9,2.4s3.2,0.9,3.2,1
		L66.4,155.7z"/>
	<path fill="#FF931E" d="M72.4,158.9c0,0-1.5-2.2-1.5-2.2s-2.7,0.1-2.7,0.1L60,170.9c0-0.2,2.1,2.2,2.1,2.2s3.3,0.6,3.3,0.7
		L72.4,158.9z"/>
	<path fill="#FF931E" d="M78.5,161.4c0,0-1.7-2-1.7-2s-2.7,0.4-2.7,0.4l-6.8,14.8c0-0.2,2.4,2,2.4,2s3.3,0.2,3.4,0.3L78.5,161.4z"/>
	<path fill="#FF931E" d="M84.8,163.3c0,0-1.9-1.9-1.9-1.9s-2.7,0.7-2.6,0.7L75,177.5c0-0.2,2.5,1.7,2.5,1.7s3.3-0.1,3.4,0
		L84.8,163.3z"/>
	<path fill="#FF931E" d="M91.2,164.5c0,0-2.1-1.7-2.1-1.7s-2.6,1-2.5,0.9L83,179.6c0-0.2,2.7,1.4,2.7,1.4s3.3-0.4,3.4-0.4
		L91.2,164.5z"/>
	<path fill="#FFF100" d="M97.8,165c0,0-2.2-1.4-2.2-1.4s-2.4,1.2-2.4,1.2l-2.1,16.2c-0.1-0.2,2.8,1.2,2.8,1.2s3.3-0.8,3.3-0.7
		L97.8,165z"/>
	<path fill="#FFF100" d="M104.9,164.9c0,0-2.4-1.2-2.4-1.2s-2.3,1.5-2.3,1.4l-0.3,16.3c-0.1-0.1,2.9,0.9,2.9,0.9s3.2-1.1,3.2-1.1
		L104.9,164.9z"/>
	<path fill="#FFF100" d="M111.7,164c0,0-2.5-0.9-2.5-0.9s-2.1,1.7-2.1,1.6l1.4,16.3c-0.1-0.1,3,0.5,3,0.5s3-1.4,3.1-1.4L111.7,164z"
		/>
	<path fill="#FFF100" d="M118.3,162.4c0,0-2.5-0.7-2.5-0.7s-2,1.9-1.9,1.9l3.1,16c-0.1-0.1,3.1,0.2,3.1,0.2s2.9-1.7,2.9-1.7
		L118.3,162.4z"/>
	<path fill="#FFF100" d="M124.7,160.1c-0.1,0-2.6-0.4-2.6-0.4s-1.7,2.1-1.7,2l4.8,15.6c-0.1-0.1,3.1-0.1,3.1-0.1s2.7-2,2.7-2
		L124.7,160.1z"/>
	<path fill="#FFF100" d="M130.9,157.2c0,0-2.6-0.1-2.6-0.1s-1.5,2.3-1.5,2.2l6.4,15c-0.1-0.1,3-0.4,3-0.4s2.4-2.3,2.5-2.3
		L130.9,157.2z"/>
	<path fill="#FFF100" d="M136.7,153.7c0,0-2.6,0.1-2.6,0.1s-1.3,2.4-1.3,2.4l7.9,14.3c-0.1-0.1,3-0.7,3-0.7s2.2-2.5,2.2-2.5
		L136.7,153.7z"/>
	<path fill="#FFF100" d="M142.2,149.5c0,0-2.6,0.4-2.6,0.4s-1,2.5-1,2.5l9.4,13.4c-0.1-0.1,2.9-1.1,2.9-1.1s1.9-2.7,2-2.7
		L142.2,149.5z"/>
	<path fill="#FFF100" d="M147.1,144.8c0,0-2.6,0.7-2.6,0.7s-0.7,2.6-0.7,2.6l10.7,12.3c-0.2-0.1,2.8-1.4,2.8-1.4s1.6-2.9,1.7-2.9
		L147.1,144.8z"/>
	<path fill="#FFF100" d="M151.6,139.6c0,0-2.5,0.9-2.5,0.9s-0.5,2.7-0.5,2.6l11.9,11.1c-0.2,0,2.6-1.6,2.6-1.6s1.3-3.1,1.4-3.1
		L151.6,139.6z"/>
	<path fill="#FFF100" d="M155.4,134c0,0-2.3,1.2-2.3,1.2s-0.2,2.7-0.2,2.7l13,9.8c-0.2,0,2.4-1.9,2.4-1.9s1-3.2,1-3.2L155.4,134z"/>
	<path fill="#FFF100" d="M158.7,128c0,0-2.2,1.4-2.2,1.4s0.1,2.7,0.1,2.7l14,8.4c-0.2,0,2.2-2.1,2.2-2.1s0.6-3.3,0.7-3.3L158.7,128z
		"/>
	<path fill="#FFF100" d="M161.3,121.7c0,0-2,1.7-2,1.7s0.4,2.7,0.4,2.6l14.8,6.9c-0.2,0,2-2.4,2-2.4s0.3-3.3,0.3-3.3L161.3,121.7z"
		/>
	<path fill="#FFF100" d="M163.2,115.2c0,0-1.9,1.9-1.9,1.9s0.7,2.6,0.7,2.6l15.4,5.3c-0.2,0,1.7-2.5,1.7-2.5s-0.1-3.3,0-3.4
		L163.2,115.2z"/>
	<path fill="#FFF100" d="M164.5,108.4c0,0-1.6,2.1-1.6,2.1s1,2.6,0.9,2.5l15.9,3.7c-0.1,0,1.4-2.7,1.4-2.7s-0.4-3.3-0.4-3.3
		L164.5,108.4z"/>
	<path fill="#FFF100" d="M165,101.6c0,0-1.4,2.2-1.4,2.2s1.2,2.4,1.2,2.4l16.2,2c-0.2,0.1,1.1-2.9,1.1-2.9s-0.8-3.2-0.7-3.3
		L165,101.6z"/>
	<path fill="#70D551" d="M164.8,94.8c0,0-1.2,2.3-1.2,2.3s1.5,2.3,1.4,2.2l16.3,0.3c-0.1,0.1,0.8-3,0.8-3s-1.1-3.1-1.1-3.2
		L164.8,94.8z"/>
	<path fill="#70D551" d="M163.9,88c0,0-0.9,2.5-0.9,2.5s1.7,2.1,1.6,2.1l16.3-1.5c-0.1,0.1,0.5-3,0.5-3s-1.4-3-1.4-3.1L163.9,88z"/>
	<path fill="#70D551" d="M162.3,81.4c0,0-0.7,2.5-0.7,2.5s1.9,1.9,1.9,1.9l16-3.1c-0.1,0.1,0.2-3.1,0.2-3.1s-1.7-2.8-1.7-2.9
		L162.3,81.4z"/>
	<path fill="#70D551" d="M160.1,75c0,0-0.4,2.6-0.4,2.6s2.1,1.7,2,1.7l15.6-4.8c-0.1,0.1-0.1-3.1-0.1-3.1s-2-2.6-2-2.7L160.1,75z"/>
	<path fill="#70D551" d="M157.1,68.8c0,0-0.1,2.6-0.1,2.6s2.3,1.5,2.2,1.5l15-6.4c-0.1,0.1-0.4-3-0.4-3s-2.3-2.4-2.3-2.5L157.1,68.8
		z"/>
	<path fill="#70D551" d="M153.5,63c0,0,0.2,2.6,0.2,2.6s2.4,1.2,2.4,1.2l14.3-8c-0.1,0.1-0.8-3-0.8-3s-2.5-2.2-2.5-2.2L153.5,63z"/>
	<path fill="#70D551" d="M149.4,57.6c0,0,0.4,2.6,0.4,2.6s2.5,1,2.5,1l13.4-9.4c-0.1,0.1-1.1-2.9-1.1-2.9s-2.7-1.9-2.7-1.9
		L149.4,57.6z"/>
	<path fill="#70D551" d="M144.7,52.6c0,0,0.7,2.5,0.7,2.5s2.6,0.7,2.6,0.7l12.3-10.7c0,0.1-1.4-2.8-1.4-2.8s-2.9-1.6-2.9-1.7
		L144.7,52.6z"/>
	<path fill="#70D551" d="M139.4,48.2c0,0,1,2.5,1,2.5s2.7,0.4,2.6,0.4l11.1-12c0,0.1-1.6-2.6-1.6-2.6s-3.1-1.3-3.1-1.3L139.4,48.2z"
		/>
	<path fill="#70D551" d="M133.8,44.4c0,0,1.2,2.3,1.2,2.3s2.7,0.1,2.7,0.2l9.8-13.1c0,0.1-1.9-2.4-1.9-2.4s-3.2-0.9-3.2-1
		L133.8,44.4z"/>
	<path fill="#70D551" d="M127.8,41.1c0,0,1.4,2.2,1.4,2.2s2.7-0.1,2.7-0.1l8.4-14c0,0.2-2.2-2.2-2.2-2.2s-3.3-0.6-3.3-0.7
		L127.8,41.1z"/>
	<path fill="#70D551" d="M121.5,38.5c0,0,1.7,2,1.7,2s2.7-0.4,2.6-0.4l6.8-14.8c0,0.2-2.4-2-2.4-2s-3.3-0.3-3.3-0.3L121.5,38.5z"/>
	<path fill="#70D551" d="M114.9,36.6c0,0,1.9,1.9,1.9,1.9s2.6-0.7,2.6-0.7l5.3-15.5c0,0.1-2.6-1.7-2.6-1.7s-3.3,0.1-3.4,0
		L114.9,36.6z"/>
	<path fill="#70D551" d="M108.2,35.4c0,0,2.1,1.6,2.1,1.6s2.6-1,2.5-0.9l3.6-15.9c0.1,0.2-2.7-1.4-2.7-1.4s-3.3,0.4-3.3,0.4
		L108.2,35.4z"/>
	<path fill="#70D551" d="M101.2,34.9c0,0,2.2,1.4,2.2,1.4s2.4-1.2,2.4-1.2l1.9-16.2c0.1,0.1-2.9-1.1-2.9-1.1s-3.2,0.8-3.3,0.7
		L101.2,34.9z"/>
</g>
<path fill="#E6E6E6" d="M10,100c0,49.7,40.3,90,90,90c49.7,0,90-40.3,90-90c0-49.7-40.3-90-90-90C50.3,10,10,50.3,10,100z M13.5,100
	c0-47.7,38.7-86.5,86.5-86.5c47.8,0,86.5,38.7,86.5,86.5c0,47.8-38.7,86.5-86.5,86.5C52.3,186.5,13.5,147.8,13.5,100z"/>
</svg>
