<svg version="1.1" xmlns="http://www.w3.org/2000/svg" xmlns:xlink="http://www.w3.org/1999/xlink" x="0px" y="0px"
	 viewBox="0 0 40 40" enable-background="new 0 0 40 40" xml:space="preserve">
<g>
	<circle fill="#FF2086" cx="20" cy="20" r="13.7"/>
	<g>
		<path fill="#FFFFFF" d="M19.6,22.5l0-0.4c-0.1-0.9,0.2-1.9,1.1-2.9c0.8-0.9,1.2-1.6,1.2-2.3c0-0.9-0.5-1.4-1.6-1.5
			c-0.6,0-1.3,0.2-1.7,0.5L18,14.8c0.6-0.4,1.5-0.7,2.4-0.7c2,0,2.8,1.2,2.8,2.5c0,1.2-0.6,2-1.5,3c-0.7,0.9-1,1.6-1,2.5l0,0.4H19.6
			z M19.2,24.9c0-0.6,0.4-1.1,1-1.1c0.6,0,1,0.4,1,1.1c0,0.6-0.4,1.1-1,1.1C19.6,25.9,19.2,25.5,19.2,24.9z"/>
	</g>
</g>
</svg>
