<?xml version="1.0" encoding="utf-8"?>
<!-- Generator: Adobe Illustrator 18.0.0, SVG Export Plug-In . SVG Version: 6.00 Build 0)  -->
<!DOCTYPE svg PUBLIC "-//W3C//DTD SVG 1.1//EN" "http://www.w3.org/Graphics/SVG/1.1/DTD/svg11.dtd">
<svg version="1.1" id="Layer_1" xmlns="http://www.w3.org/2000/svg" xmlns:xlink="http://www.w3.org/1999/xlink" x="0px" y="0px"
	 viewBox="0 0 246 224" enable-background="new 0 0 246 224" xml:space="preserve">
<g>
	<g>
		<linearGradient id="SVGID_1_" gradientUnits="userSpaceOnUse" x1="123.8916" y1="198.4389" x2="113.273" y2="46.5857">
			<stop  offset="0" style="stop-color:#76726D"/>
			<stop  offset="1" style="stop-color:#76726D"/>
		</linearGradient>
		<polygon fill-rule="evenodd" clip-rule="evenodd" fill="url(#SVGID_1_)" points="237.9,148 120.4,80.1 2.8,148 120.3,215.9 		"/>
		<linearGradient id="SVGID_2_" gradientUnits="userSpaceOnUse" x1="124.4513" y1="197.851" x2="113.909" y2="47.0885">
			<stop  offset="0" style="stop-color:#8F8884"/>
			<stop  offset="1" style="stop-color:#8F8884"/>
		</linearGradient>
		<path fill-rule="evenodd" clip-rule="evenodd" fill="url(#SVGID_2_)" d="M225.1,140.6l-0.2-0.1l-14,8.1l-14.8-8.6l14-8.1l-0.2-0.1
			l-14,8.1l-14.8-8.6l14-8.1l-0.2-0.1l-14,8.1l-14.8-8.6l14-8.1l-0.2-0.1l-14,8.1l-14.8-8.6l14-8.1l-0.2-0.1l-14,8.1l-14.8-8.6
			l14-8.1l-0.2-0.1l-14,8.1l-14.8-8.6l14-8.1l-0.2-0.1l-14,8.1l-14.1-8.1l-0.2,0.1l14.1,8.1l-14.8,8.6l-14.1-8.1L91.1,97l14.1,8.1
			l-14.8,8.6l-14.1-8.1l-0.2,0.1l14.1,8.1l-14.8,8.6l-14.1-8.1l-0.2,0.1l14.1,8.1l-14.8,8.6L46.1,123l-0.2,0.1l14.1,8.1l-14.8,8.6
			L31,131.7l-0.2,0.1l14.1,8.1L30,148.5L16,140.4l-0.2,0.1l14.1,8.1l-12.9,7.5l0.2,0.1l12.9-7.5l14.8,8.6l-12.9,7.5l0.2,0.1
			l12.9-7.5l14.8,8.6L47,173.5l0.2,0.1l12.9-7.5l14.8,8.6l-12.9,7.5l0.2,0.1l12.9-7.5l14.8,8.6L77.2,191l0.2,0.1l12.9-7.5l14.8,8.6
			l-12.9,7.5l0.2,0.1l12.9-7.5l14.8,8.6l-12.9,7.5l0.2,0.1l12.9-7.5l12.8,7.4l0.2-0.1l-12.8-7.4l14.8-8.6l12.8,7.4l0.2-0.1
			l-12.8-7.4l14.8-8.6l12.8,7.4l0.2-0.1l-12.8-7.4l14.8-8.6l12.8,7.4l0.2-0.1l-12.8-7.4l14.8-8.6l12.8,7.4l0.2-0.1l-12.8-7.4
			l14.8-8.6l12.8,7.4l0.2-0.1l-12.8-7.4l14.8-8.6l12.8,7.4l0.2-0.1l-12.8-7.4L225.1,140.6L225.1,140.6z M30.3,148.7l14.8-8.6
			l14.8,8.6l-14.8,8.6L30.3,148.7L30.3,148.7z M45.3,157.4l14.8-8.6l14.8,8.6l-14.8,8.6L45.3,157.4L45.3,157.4z M60.4,166.1
			l14.8-8.6l14.8,8.6l-14.8,8.6L60.4,166.1L60.4,166.1z M75.5,174.8l14.8-8.6l14.8,8.6l-14.8,8.6L75.5,174.8L75.5,174.8z
			 M90.6,183.5l14.8-8.6l14.8,8.6l-14.8,8.6L90.6,183.5L90.6,183.5z M105.6,192.2l14.8-8.6l14.8,8.6l-14.8,8.6L105.6,192.2
			L105.6,192.2z M45.3,140l14.8-8.6L75,140l-14.8,8.6L45.3,140L45.3,140z M60.4,148.7l14.8-8.6l14.8,8.6l-14.8,8.6L60.4,148.7
			L60.4,148.7z M75.5,157.4l14.8-8.6l14.8,8.6l-14.8,8.6L75.5,157.4L75.5,157.4z M90.6,166.1l14.8-8.6l14.8,8.6l-14.8,8.6
			L90.6,166.1L90.6,166.1z M105.6,174.8l14.8-8.6l14.8,8.6l-14.8,8.6L105.6,174.8L105.6,174.8z M120.7,183.5l14.8-8.6l14.8,8.6
			l-14.8,8.6L120.7,183.5L120.7,183.5z M60.4,131.3l14.8-8.6l14.8,8.6l-14.8,8.6L60.4,131.3L60.4,131.3z M75.5,140l14.8-8.6
			l14.8,8.6l-14.8,8.6L75.5,140L75.5,140z M90.6,148.7l14.8-8.6l14.8,8.6l-14.8,8.6L90.6,148.7L90.6,148.7z M105.6,157.4l14.8-8.6
			l14.8,8.6l-14.8,8.6L105.6,157.4L105.6,157.4z M120.7,166.1l14.8-8.6l14.8,8.6l-14.8,8.6L120.7,166.1L120.7,166.1z M135.8,174.8
			l14.8-8.6l14.8,8.6l-14.8,8.6L135.8,174.8L135.8,174.8z M75.5,122.6l14.8-8.6l14.8,8.6l-14.8,8.6L75.5,122.6L75.5,122.6z
			 M90.6,131.3l14.8-8.6l14.8,8.6l-14.8,8.6L90.6,131.3L90.6,131.3z M105.6,140l14.8-8.6l14.8,8.6l-14.8,8.6L105.6,140L105.6,140z
			 M120.7,148.7l14.8-8.6l14.8,8.6l-14.8,8.6L120.7,148.7L120.7,148.7z M135.8,157.4l14.8-8.6l14.8,8.6l-14.8,8.6L135.8,157.4
			L135.8,157.4z M150.8,166.1l14.8-8.6l14.8,8.6l-14.8,8.6L150.8,166.1L150.8,166.1z M90.6,113.9l14.8-8.6l14.8,8.6l-14.8,8.6
			L90.6,113.9L90.6,113.9z M105.6,122.6l14.8-8.6l14.8,8.6l-14.8,8.6L105.6,122.6L105.6,122.6z M120.7,131.3l14.8-8.6l14.8,8.6
			l-14.8,8.6L120.7,131.3L120.7,131.3z M135.8,140l14.8-8.6l14.8,8.6l-14.8,8.6L135.8,140L135.8,140z M150.8,148.7l14.8-8.6
			l14.8,8.6l-14.8,8.6L150.8,148.7L150.8,148.7z M165.9,157.4l14.8-8.6l14.8,8.6l-14.8,8.6L165.9,157.4L165.9,157.4z M105.6,105.2
			l14.8-8.6l14.8,8.6l-14.8,8.6L105.6,105.2L105.6,105.2z M120.7,113.9l14.8-8.6l14.8,8.6l-14.8,8.6L120.7,113.9L120.7,113.9z
			 M135.8,122.6l14.8-8.6l14.8,8.6l-14.8,8.6L135.8,122.6L135.8,122.6z M150.8,131.3l14.8-8.6l14.8,8.6l-14.8,8.6L150.8,131.3
			L150.8,131.3z M165.9,140l14.8-8.6l14.8,8.6l-14.8,8.6L165.9,140L165.9,140z M181,148.7l14.8-8.6l14.8,8.6l-14.8,8.6L181,148.7z"
			/>
		<polygon fill-rule="evenodd" clip-rule="evenodd" fill="#403F36" points="2.8,148 2.8,149.3 120.3,217.1 120.3,215.9 		"/>
		<polyline fill-rule="evenodd" clip-rule="evenodd" fill="#C3BAB8" points="2.8,154.6 120.3,222.4 120.3,217.1 3.4,149.7 
			3.4,145.3 2.8,145 		"/>
		<polygon fill-rule="evenodd" clip-rule="evenodd" fill="#403F36" points="237.9,148 237.9,149.2 120.3,217.1 120.3,215.9 		"/>
		<polygon fill-rule="evenodd" clip-rule="evenodd" fill="#E9E9E8" points="243.2,125.3 206.2,103.9 200.9,107 237.9,128.3 		"/>
		<linearGradient id="SVGID_3_" gradientUnits="userSpaceOnUse" x1="219.2707" y1="72.4578" x2="143.4597" y2="95.6355">
			<stop  offset="0" style="stop-color:#CDC6C4"/>
			<stop  offset="1" style="stop-color:#B9AEAC"/>
		</linearGradient>
		<polygon fill-rule="evenodd" clip-rule="evenodd" fill="url(#SVGID_3_)" points="206.2,47.5 206.2,103.9 200.9,107 200.9,50.6 		
			"/>
		<linearGradient id="SVGID_4_" gradientUnits="userSpaceOnUse" x1="135.9308" y1="59.4249" x2="109.7365" y2="49.3699">
			<stop  offset="0" style="stop-color:#D9D0CC"/>
			<stop  offset="1" style="stop-color:#CFC5C3"/>
		</linearGradient>
		<polygon fill-rule="evenodd" clip-rule="evenodd" fill="url(#SVGID_4_)" points="237.9,148 120.4,80.1 120.4,4.1 200.9,50.6 
			200.9,107 237.9,128.3 		"/>
		<polygon fill-rule="evenodd" clip-rule="evenodd" fill="#FFFFFF" points="2.8,145 120.5,77 121.1,77.4 3.4,145.3 		"/>
		<polygon fill-rule="evenodd" clip-rule="evenodd" fill="#FFFFFF" points="237.9,144.9 120.4,77.1 119.8,77.4 237.3,145.3 		"/>
		<polygon fill-rule="evenodd" clip-rule="evenodd" fill="#D6D0CE" points="3.4,145.3 120.5,77.8 120.5,80.8 3.4,148.4 		"/>
		<polygon fill-rule="evenodd" clip-rule="evenodd" fill="#D6D0CE" points="237.3,145.3 120.5,77.8 120.5,80.9 237.3,148.3 		"/>
		<polygon fill-rule="evenodd" clip-rule="evenodd" fill="#747472" points="127.5,128.6 127.5,128.6 127.7,128.7 127.8,128.8 
			127.9,129 128.1,129.1 128.2,129.3 128.3,129.4 128.4,129.6 128.5,129.8 128.6,130 128.7,130.2 128.7,130.4 128.8,130.4 
			104.9,144.2 104.9,144.1 104.8,144 104.7,143.8 104.7,143.6 104.6,143.4 104.4,143.2 104.3,143.1 104.2,142.9 104.1,142.7 
			103.9,142.6 103.8,142.5 103.6,142.4 103.6,142.4 		"/>
		<linearGradient id="SVGID_5_" gradientUnits="userSpaceOnUse" x1="222.9285" y1="87.4815" x2="216.7357" y2="90.7742">
			<stop  offset="0" style="stop-color:#D9D0CC"/>
			<stop  offset="1" style="stop-color:#CFC5C3"/>
		</linearGradient>
		<polygon fill-rule="evenodd" clip-rule="evenodd" fill="url(#SVGID_5_)" points="240.6,126.8 203.6,105.5 203.6,49.1 240.6,70.4 
					"/>
		<polygon fill-rule="evenodd" clip-rule="evenodd" fill="#4D4D4D" points="237.6,121.7 237.6,93.7 206.5,75.7 206.5,103.8 		"/>
		<linearGradient id="SVGID_6_" gradientUnits="userSpaceOnUse" x1="228.5952" y1="57.9307" x2="202.1759" y2="117.2694">
			<stop  offset="0" style="stop-color:#ECEAEA"/>
			<stop  offset="1" style="stop-color:#FFFFFF"/>
		</linearGradient>
		<polygon fill-rule="evenodd" clip-rule="evenodd" fill="url(#SVGID_6_)" points="237.6,91 237.6,72.1 206.5,54.2 206.5,73 		"/>
		<linearGradient id="SVGID_7_" gradientUnits="userSpaceOnUse" x1="204.3578" y1="39.5943" x2="210.9496" y2="86.4978">
			<stop  offset="0" style="stop-color:#76726D"/>
			<stop  offset="1" style="stop-color:#9C9590"/>
		</linearGradient>
		<polygon fill-rule="evenodd" clip-rule="evenodd" fill="url(#SVGID_7_)" points="209.2,55.7 206.5,54.2 206.5,73 209.2,71.5 		"/>
		<linearGradient id="SVGID_8_" gradientUnits="userSpaceOnUse" x1="203.7065" y1="43.3578" x2="209.4968" y2="109.5406">
			<stop  offset="0" style="stop-color:#D9D0CC"/>
			<stop  offset="1" style="stop-color:#CFC5C3"/>
		</linearGradient>
		<polygon fill-rule="evenodd" clip-rule="evenodd" fill="url(#SVGID_8_)" points="209.2,77.3 206.5,75.7 206.5,103.9 209.2,102.4 
					"/>
		<polygon fill-rule="evenodd" clip-rule="evenodd" fill="#98938E" points="237.6,88 209.2,71.5 206.5,73 237.6,91 		"/>
		<polygon fill-rule="evenodd" clip-rule="evenodd" fill="#E9E9E8" points="237.6,118.8 209.2,102.4 206.5,103.9 237.6,121.9 		"/>
		<polygon fill-rule="evenodd" clip-rule="evenodd" fill="#716D66" points="208.1,72.1 207.6,72.4 237.6,89.8 237.6,89.2 		"/>
		<polygon fill-rule="evenodd" clip-rule="evenodd" fill="#C7BFBD" points="208.1,103 207.6,103.3 237.6,120.7 237.6,120.1 		"/>
		<polygon fill="#716D66" points="207.6,72.4 207.6,54.8 208.1,55.1 208.1,72.1 		"/>
		<polygon fill="#C3BCB9" points="207.6,103.3 207.6,76.3 208.1,76.6 208.1,103 		"/>
		<polygon fill-rule="evenodd" clip-rule="evenodd" fill="#97908E" points="240.5,97 203.1,75.4 203.1,51 240.5,72.7 		"/>
		<polygon fill-rule="evenodd" clip-rule="evenodd" fill="#716D66" points="240.1,96.8 203.1,75.4 203.1,82.2 240.1,103.6 		"/>
		<polygon fill-rule="evenodd" clip-rule="evenodd" fill="#A9A1A0" points="238.5,95.8 204.7,76.3 204.7,52 238.5,71.5 		"/>
		<linearGradient id="SVGID_9_" gradientUnits="userSpaceOnUse" x1="206.7196" y1="64.868" x2="186.171" y2="101.9387">
			<stop  offset="0" style="stop-color:#BBAFAF"/>
			<stop  offset="1" style="stop-color:#97908E"/>
		</linearGradient>
		<path fill-rule="evenodd" clip-rule="evenodd" fill="url(#SVGID_9_)" d="M209.2,55.7l-1.1-0.6v17.1l1.1-0.6V55.7L209.2,55.7z
			 M207.6,54.8l-1.1-0.6l0,18.9l1.1-0.6V54.8z"/>
		<linearGradient id="SVGID_10_" gradientUnits="userSpaceOnUse" x1="225.9174" y1="75.0841" x2="205.0077" y2="112.8063">
			<stop  offset="0" style="stop-color:#BFB4B5"/>
			<stop  offset="1" style="stop-color:#A29A97"/>
		</linearGradient>
		<path fill-rule="evenodd" clip-rule="evenodd" fill="url(#SVGID_10_)" d="M237.6,88l-28.5-16.4l-1.1,0.6l29.5,17V88L237.6,88z
			 M207.6,72.4l30,17.3V91l-31.1-18L207.6,72.4z"/>
		<polygon fill-rule="evenodd" clip-rule="evenodd" fill="#97908E" points="204.1,78.1 204.1,78.1 204.1,74.9 239.5,95.4 
			239.5,96.6 204.1,76.2 		"/>
		<polygon fill-rule="evenodd" clip-rule="evenodd" fill="#BDCCD4" points="237.6,88 237.6,72.1 209.2,55.7 209.2,71.5 		"/>
		<linearGradient id="SVGID_11_" gradientUnits="userSpaceOnUse" x1="219.8266" y1="57.9094" x2="217.273" y2="87.0978">
			<stop  offset="0" style="stop-color:#D9D0CC"/>
			<stop  offset="1" style="stop-color:#CFC5C3"/>
		</linearGradient>
		<polygon fill-rule="evenodd" clip-rule="evenodd" fill="url(#SVGID_11_)" points="237.9,74.1 200.9,52.8 200.9,50.6 237.9,71.9 		
			"/>
		<g>
			<path fill-rule="evenodd" clip-rule="evenodd" fill="#D6D0CE" d="M239.7,127.5c0,0-0.8,2.9,0.8,5.2c5.2,7.6-10.4-2.3-18.4-6.7
				c-8-4.4-14.9-8.2-17.6-9.8c-2.7-1.6-3.4-10.4-3.4-10.4L239.7,127.5z"/>
			<path fill-rule="evenodd" clip-rule="evenodd" fill="#D5CFCD" d="M239.7,127.5c0,0-0.7,2.9,0.6,5.1c4.9,7.2-10.2-2.3-18.2-6.7
				c-8-4.4-14.8-8.2-17.6-9.8c-2.7-1.6-3.5-10.4-3.5-10.4L239.7,127.5z"/>
			<path fill-rule="evenodd" clip-rule="evenodd" fill="#D5CFCD" d="M239.7,127.5c0,0-0.7,2.9,0.5,5.1c4.6,6.9-10-2.3-18-6.7
				c-8-4.4-14.8-8.2-17.5-9.8c-2.7-1.6-3.6-10.3-3.6-10.3L239.7,127.5z"/>
			<path fill-rule="evenodd" clip-rule="evenodd" fill="#D4CECC" d="M239.7,127.5c0,0-0.6,2.9,0.3,5c4.2,6.6-9.9-2.2-17.8-6.6
				c-8-4.4-14.7-8.2-17.4-9.8c-2.7-1.6-3.7-10.3-3.7-10.3L239.7,127.5z"/>
			<path fill-rule="evenodd" clip-rule="evenodd" fill="#D4CECC" d="M239.7,127.5c0,0-0.6,2.8,0.1,4.9c3.9,6.2-9.7-2.2-17.6-6.6
				c-7.9-4.4-14.6-8.2-17.3-9.8c-2.7-1.6-3.8-10.2-3.8-10.2L239.7,127.5z"/>
			<path fill-rule="evenodd" clip-rule="evenodd" fill="#D3CDCB" d="M239.7,127.5c0,0-0.5,2.8,0,4.8c3.6,5.9-9.5-2.2-17.5-6.6
				c-7.9-4.4-14.5-8.2-17.3-9.8c-2.7-1.6-3.9-10.1-3.9-10.1L239.7,127.5z"/>
			<path fill-rule="evenodd" clip-rule="evenodd" fill="#D3CCCA" d="M239.7,127.5c0,0-0.5,2.8-0.2,4.8c3.3,5.6-9.4-2.2-17.3-6.6
				c-7.9-4.4-14.5-8.1-17.2-9.8c-2.7-1.6-4-10.1-4-10.1L239.7,127.5z"/>
			<path fill-rule="evenodd" clip-rule="evenodd" fill="#D2CCCA" d="M239.7,127.5c0,0-0.4,2.8-0.3,4.7c3,5.2-9.2-2.2-17.1-6.6
				c-7.9-4.4-14.4-8.1-17.1-9.8c-2.7-1.6-4.1-10-4.1-10L239.7,127.5z"/>
			<path fill-rule="evenodd" clip-rule="evenodd" fill="#D2CBC9" d="M239.7,127.5c0,0-0.4,2.8-0.5,4.6c2.7,4.9-9-2.2-16.9-6.6
				c-7.9-4.4-14.3-8.1-17.1-9.7c-2.7-1.6-4.2-10-4.2-10L239.7,127.5z"/>
			<path fill-rule="evenodd" clip-rule="evenodd" fill="#D1CAC8" d="M239.7,127.5c0,0-0.3,2.7-0.7,4.6c2.4,4.6-8.8-2.2-16.7-6.6
				c-7.9-4.4-14.3-8.1-17-9.7c-2.7-1.6-4.3-9.9-4.3-9.9L239.7,127.5z"/>
			<path fill-rule="evenodd" clip-rule="evenodd" fill="#D1CAC8" d="M239.7,127.5c0,0-0.3,2.7-0.8,4.5c2,4.3-8.7-2.1-16.5-6.6
				c-7.8-4.5-14.2-8.1-16.9-9.7c-2.7-1.6-4.4-9.9-4.4-9.9L239.7,127.5z"/>
			<path fill-rule="evenodd" clip-rule="evenodd" fill="#D0C9C7" d="M239.7,127.5c0,0-0.2,2.7-1,4.4c1.7,3.9-8.5-2.1-16.3-6.6
				c-7.8-4.5-14.1-8.1-16.9-9.7c-2.7-1.6-4.5-9.8-4.5-9.8L239.7,127.5z"/>
			<path fill-rule="evenodd" clip-rule="evenodd" fill="#D0C9C7" d="M239.7,127.5c0,0-0.2,2.7-1.1,4.3c1.4,3.6-8.3-2.1-16.1-6.6
				c-7.8-4.5-14.1-8.1-16.8-9.7c-2.7-1.6-4.5-9.7-4.5-9.7L239.7,127.5z"/>
			<path fill-rule="evenodd" clip-rule="evenodd" fill="#CFC8C6" d="M239.7,127.5c0,0-0.1,2.6-1.3,4.3c1.1,3.3-8.2-2.1-16-6.6
				c-7.8-4.5-14-8.1-16.7-9.7c-2.7-1.6-4.6-9.7-4.6-9.7L239.7,127.5z"/>
			<path fill-rule="evenodd" clip-rule="evenodd" fill="#CFC7C5" d="M239.7,127.5c0,0-0.1,2.6-1.4,4.2c0.8,2.9-8-2.1-15.8-6.6
				c-7.8-4.5-13.9-8.1-16.7-9.7c-2.7-1.6-4.7-9.6-4.7-9.6L239.7,127.5z"/>
			<path fill-rule="evenodd" clip-rule="evenodd" fill="#CEC7C5" d="M239.7,127.5c0,0,0,2.6-1.6,4.1c0.5,2.6-7.8-2.1-15.6-6.6
				c-7.8-4.5-13.8-8.1-16.6-9.7c-2.7-1.6-4.8-9.6-4.8-9.6L239.7,127.5z"/>
			<path fill-rule="evenodd" clip-rule="evenodd" fill="#CEC6C4" d="M239.7,127.5c0,0,0,2.6-1.8,4c0.2,2.3-7.7-2-15.4-6.6
				c-7.7-4.5-13.8-8.1-16.5-9.7c-2.7-1.6-4.9-9.5-4.9-9.5L239.7,127.5z"/>
			<path fill-rule="evenodd" clip-rule="evenodd" fill="#CDC5C3" d="M239.7,127.5c0,0,0.1,2.5-1.9,4c-0.2,1.9-7.5-2-15.2-6.5
				c-7.7-4.5-13.7-8.1-16.4-9.7c-2.7-1.6-5-9.4-5-9.4L239.7,127.5z"/>
			<path fill-rule="evenodd" clip-rule="evenodd" fill="#CDC5C3" d="M239.7,127.5c0,0,0.1,2.5-2.1,3.9c-0.5,1.6-7.3-2-15-6.5
				c-7.7-4.5-13.6-8.1-16.4-9.7c-2.7-1.6-5.1-9.4-5.1-9.4L239.7,127.5z"/>
			<path fill-rule="evenodd" clip-rule="evenodd" fill="#CCC4C2" d="M239.7,127.5c0,0,0.2,2.5-2.2,3.8c-0.8,1.3-7.1-2-14.8-6.5
				c-7.7-4.5-13.6-8-16.3-9.7c-2.7-1.6-5.2-9.3-5.2-9.3L239.7,127.5z"/>
			<path fill-rule="evenodd" clip-rule="evenodd" fill="#CCC4C2" d="M239.7,127.5c0,0,0.2,2.5-2.4,3.7c-1.1,0.9-7-2-14.6-6.5
				c-7.7-4.5-13.5-8-16.2-9.7c-2.7-1.6-5.3-9.3-5.3-9.3L239.7,127.5z"/>
			<path fill-rule="evenodd" clip-rule="evenodd" fill="#CBC3C1" d="M239.7,127.5c0,0,0.3,2.4-2.5,3.7c-1.4,0.6-6.8-2-14.5-6.5
				c-7.6-4.5-13.4-8-16.2-9.6s-5.4-9.2-5.4-9.2L239.7,127.5z"/>
			<path fill-rule="evenodd" clip-rule="evenodd" fill="#CAC2C0" d="M239.7,127.5c-0.2,0,0.1,2.4-2.7,3.5c-1.4,0.6-6.7-1.9-14.3-6.4
				c-7.7-4.5-13.2-7.9-15.9-9.5c-2.7-1.6-5.7-9.3-5.7-9.3L239.7,127.5z"/>
			<path fill-rule="evenodd" clip-rule="evenodd" fill="#C9C1BF" d="M239.7,127.5c-0.3,0-0.1,2.3-2.9,3.3c-1.5,0.5-6.6-1.9-14.1-6.3
				c-7.7-4.5-12.9-7.8-15.7-9.4c-2.7-1.6-5.9-9.3-5.9-9.3L239.7,127.5z"/>
			<path fill-rule="evenodd" clip-rule="evenodd" fill="#C8C0BF" d="M239.7,127.5c-0.5,0-0.4,2.3-3.1,3.2c-1.5,0.5-6.5-1.9-13.9-6.2
				c-7.7-4.5-12.7-7.7-15.4-9.3c-2.7-1.6-6.2-9.4-6.2-9.4L239.7,127.5z"/>
			<path fill-rule="evenodd" clip-rule="evenodd" fill="#C7BFBE" d="M239.7,127.5c-0.6-0.1-0.6,2.2-3.3,3c-1.5,0.5-6.4-1.8-13.7-6.1
				c-7.7-4.5-12.4-7.5-15.2-9.1c-2.7-1.6-6.4-9.5-6.4-9.5L239.7,127.5z"/>
			<path fill-rule="evenodd" clip-rule="evenodd" fill="#C6BEBD" d="M239.7,127.5c-0.8-0.1-0.8,2.1-3.5,2.9c-1.5,0.4-6.3-1.8-13.5-6
				c-7.7-4.5-12.2-7.4-14.9-9c-2.7-1.6-6.7-9.5-6.7-9.5L239.7,127.5z"/>
			<path fill-rule="evenodd" clip-rule="evenodd" fill="#C5BEBC" d="M239.7,127.5c-0.9-0.1-1,2.1-3.7,2.7c-1.6,0.4-6.2-1.8-13.4-5.9
				c-7.8-4.5-11.9-7.3-14.7-8.9c-2.7-1.6-6.9-9.6-6.9-9.6L239.7,127.5z"/>
			<path fill-rule="evenodd" clip-rule="evenodd" fill="#C4BDBB" d="M239.7,127.5c-1.1-0.1-1.2,2-3.8,2.5c-1.6,0.3-6.2-1.7-13.2-5.8
				c-7.8-4.5-11.7-7.1-14.4-8.8c-2.7-1.6-7.2-9.7-7.2-9.7L239.7,127.5z"/>
			<path fill-rule="evenodd" clip-rule="evenodd" fill="#C3BCBB" d="M239.7,127.5c-1.3-0.1-1.5,1.9-4,2.4c-1.6,0.3-6.1-1.7-13-5.7
				c-7.8-4.5-11.4-7-14.1-8.6c-2.7-1.6-7.4-9.7-7.4-9.7L239.7,127.5z"/>
			<path fill-rule="evenodd" clip-rule="evenodd" fill="#C2BBBA" d="M239.7,127.5c-1.4-0.1-1.7,1.9-4.2,2.2c-1.7,0.2-6-1.7-12.8-5.6
				c-7.8-4.5-11.2-6.9-13.9-8.5c-2.7-1.6-7.7-9.8-7.7-9.8L239.7,127.5z"/>
			<path fill-rule="evenodd" clip-rule="evenodd" fill="#C1BAB9" d="M239.7,127.5c-1.6-0.1-1.9,1.8-4.4,2c-1.7,0.2-5.9-1.6-12.6-5.5
				c-7.8-4.5-10.9-6.8-13.6-8.4c-2.7-1.6-7.9-9.8-7.9-9.8L239.7,127.5z"/>
			<path fill-rule="evenodd" clip-rule="evenodd" fill="#C1B9B8" d="M239.7,127.5c-1.7-0.2-2.2,1.7-4.6,1.9
				c-1.7,0.1-5.8-1.6-12.5-5.4c-7.8-4.5-10.7-6.6-13.4-8.3c-2.7-1.6-8.2-9.9-8.2-9.9L239.7,127.5z"/>
			<path fill-rule="evenodd" clip-rule="evenodd" fill="#C0B8B7" d="M239.7,127.5c-1.9-0.2-2.4,1.6-4.8,1.7
				c-1.8,0.1-5.7-1.6-12.3-5.3c-7.9-4.4-10.4-6.5-13.1-8.1c-2.7-1.6-8.4-10-8.4-10L239.7,127.5z"/>
			<path fill-rule="evenodd" clip-rule="evenodd" fill="#BFB7B6" d="M239.7,127.5c-2.1-0.2-2.6,1.5-5,1.6c-1.8,0-5.6-1.5-12.1-5.2
				c-7.9-4.4-10.1-6.4-12.9-8c-2.7-1.6-8.7-10-8.7-10L239.7,127.5z"/>
			<path fill-rule="evenodd" clip-rule="evenodd" fill="#BEB6B6" d="M239.7,127.5c-2.2-0.2-2.9,1.4-5.2,1.4c-1.8,0-5.5-1.5-11.9-5.1
				c-7.9-4.4-9.9-6.3-12.6-7.9c-2.7-1.6-8.9-10.1-8.9-10.1L239.7,127.5z"/>
			<path fill-rule="evenodd" clip-rule="evenodd" fill="#BDB5B5" d="M239.7,127.5c-2.4-0.2-3.1,1.3-5.3,1.2c-1.9-0.1-5.4-1.5-11.7-5
				c-7.9-4.4-9.6-6.1-12.4-7.8c-2.7-1.6-9.2-10.2-9.2-10.2L239.7,127.5z"/>
			<path fill-rule="evenodd" clip-rule="evenodd" fill="#BCB5B4" d="M239.7,127.5c-2.5-0.2-3.3,1.2-5.5,1.1
				c-1.9-0.2-5.3-1.4-11.5-4.9c-7.9-4.4-9.4-6-12.1-7.6c-2.7-1.6-9.4-10.2-9.4-10.2L239.7,127.5z"/>
			<path fill-rule="evenodd" clip-rule="evenodd" fill="#BBB4B3" d="M239.7,127.5c-2.7-0.2-3.5,1.1-5.7,0.9
				c-1.9-0.2-5.2-1.4-11.4-4.8c-7.9-4.4-9.1-5.9-11.9-7.5c-2.7-1.6-9.7-10.3-9.7-10.3L239.7,127.5z"/>
			<path fill-rule="evenodd" clip-rule="evenodd" fill="#BAB3B2" d="M239.7,127.5c-2.8-0.3-3.8,1-5.9,0.7c-1.9-0.3-5.1-1.4-11.2-4.7
				c-8-4.4-8.9-5.8-11.6-7.4c-2.7-1.6-9.9-10.4-9.9-10.4L239.7,127.5z"/>
			<path fill-rule="evenodd" clip-rule="evenodd" fill="#B9B2B2" d="M239.7,127.5c-3-0.3-4,0.9-6.1,0.6c-2-0.4-5-1.3-11-4.6
				c-8-4.4-8.6-5.6-11.4-7.2c-2.7-1.6-10.2-10.4-10.2-10.4L239.7,127.5z"/>
			<path fill-rule="evenodd" clip-rule="evenodd" fill="#B8B1B1" d="M239.7,127.5c-3.2-0.3-4.2,0.8-6.3,0.4c-2-0.4-5-1.3-10.8-4.5
				c-8-4.4-8.4-5.5-11.1-7.1c-2.7-1.6-10.4-10.5-10.4-10.5L239.7,127.5z"/>
			<path fill-rule="evenodd" clip-rule="evenodd" fill="#B7B0B0" d="M239.7,127.5c-3.3-0.3-4.4,0.7-6.5,0.2c-2-0.5-4.9-1.3-10.6-4.4
				c-8-4.4-8.1-5.4-10.9-7c-2.7-1.6-10.7-10.5-10.7-10.5L239.7,127.5z"/>
		</g>
		<linearGradient id="SVGID_12_" gradientUnits="userSpaceOnUse" x1="218.8138" y1="127.6464" x2="217.0315" y2="102.1585">
			<stop  offset="0" style="stop-color:#76726D"/>
			<stop  offset="1" style="stop-color:#76726D"/>
		</linearGradient>
		<polygon fill-rule="evenodd" clip-rule="evenodd" fill="url(#SVGID_12_)" points="236.7,129 199.7,107.7 199.7,109.4 236.7,130.8 
					"/>
		<linearGradient id="SVGID_13_" gradientUnits="userSpaceOnUse" x1="217.7995" y1="119.02" x2="233.0309" y2="107.5424">
			<stop  offset="0" style="stop-color:#8F8884"/>
			<stop  offset="1" style="stop-color:#A29A97"/>
		</linearGradient>
		<polygon fill-rule="evenodd" clip-rule="evenodd" fill="url(#SVGID_13_)" points="240.6,126.8 203.6,105.5 199.7,107.7 236.7,129 
					"/>
		<linearGradient id="SVGID_14_" gradientUnits="userSpaceOnUse" x1="218.146" y1="119.0971" x2="233.0094" y2="107.8967">
			<stop  offset="0" style="stop-color:#97908E"/>
			<stop  offset="1" style="stop-color:#AAA1A0"/>
		</linearGradient>
		<polygon fill-rule="evenodd" clip-rule="evenodd" fill="url(#SVGID_14_)" points="240.6,126.8 203.6,105.5 203.6,109.9 236.7,129 
					"/>
		<linearGradient id="SVGID_15_" gradientUnits="userSpaceOnUse" x1="221.7369" y1="88.3818" x2="223.0616" y2="86.0873">
			<stop  offset="0" style="stop-color:#97908E"/>
			<stop  offset="0.41" style="stop-color:#AFA4A3"/>
			<stop  offset="1" style="stop-color:#BBAFAF"/>
		</linearGradient>
		<polygon fill-rule="evenodd" clip-rule="evenodd" fill="url(#SVGID_15_)" points="240.4,96.7 203.1,75.2 203,75.1 202.9,75.1 
			202.8,75.1 202.7,75.2 202.4,75.3 202.3,75.4 202.2,75.5 202.1,75.6 202.1,75.7 202,75.8 202,76 201.9,76.1 201.9,76.2 
			201.9,82.6 201.9,82.7 202,82.8 202,82.9 202.1,83 239.4,104.5 239.3,104.5 239.3,104.4 239.3,104.3 239.2,104.2 239.2,97.8 
			239.3,97.7 239.3,97.5 239.3,97.4 239.4,97.3 239.5,97.2 239.6,97.1 239.7,97 239.8,96.9 240,96.7 240.1,96.7 240.2,96.7 
			240.3,96.7 		"/>
		<path fill-rule="evenodd" clip-rule="evenodd" fill="#716D66" d="M239.8,104.5l0.3-0.1c0.3-0.2,0.5-0.6,0.5-0.9V97
			c0-0.3-0.2-0.5-0.5-0.3l-0.3,0.1c-0.3,0.2-0.5,0.6-0.5,0.9v6.4C239.2,104.5,239.5,104.6,239.8,104.5z"/>
		<polygon fill-rule="evenodd" clip-rule="evenodd" fill="#97908E" points="204.1,65.9 204.1,65.9 204.1,62.8 239.5,83.2 
			239.5,84.5 204.1,64 		"/>
		<linearGradient id="SVGID_16_" gradientUnits="userSpaceOnUse" x1="259.9399" y1="136.0489" x2="178.9394" y2="145.9945">
			<stop  offset="0" style="stop-color:#CDC6C4"/>
			<stop  offset="1" style="stop-color:#B9AEAC"/>
		</linearGradient>
		<path fill-rule="evenodd" clip-rule="evenodd" fill="url(#SVGID_16_)" d="M243.2,151.5l-122.9,70.9l0-5.3l117-67.5v-4.3l0.6-0.4
			l0,0l0-16.6l2.6-1.5V72.6l-2.6,1.5v-2.2l5.3-3l0,2.2h0C243.2,97.9,243.2,124.7,243.2,151.5z"/>
		<polygon fill-rule="evenodd" clip-rule="evenodd" fill="#65615A" points="236.7,129 240.6,126.8 240.6,128.6 237.9,130.1 
			236.7,130.8 		"/>
		<path fill-rule="evenodd" clip-rule="evenodd" fill="#EFECEA" d="M126.6,1.6l-6.2,2.5c40.9,23.6,76.6,44.2,117.5,67.8l5.3-3
			C202.3,45.3,167.6,25.2,126.6,1.6z"/>
	</g>
	<polyline fill="#2BB5F9" points="47,173.5 135.8,122.6 195.9,157.2 107.4,208.4 	"/>
	<g>
		
			<linearGradient id="SVGID_17_" gradientUnits="userSpaceOnUse" x1="7297.9917" y1="91.8505" x2="7291.6997" y2="95.4831" gradientTransform="matrix(-1 0 0 1 7430.5527 0)">
			<stop  offset="0" style="stop-color:#8F8C84"/>
			<stop  offset="1" style="stop-color:#C0B9AF"/>
		</linearGradient>
		<path fill-rule="evenodd" clip-rule="evenodd" fill="url(#SVGID_17_)" d="M116.7,119.7c8.7-8.1,28.6-44,27.6-56.7
			c-0.1-0.9,3.9-1,2.7-0.2c-0.3,0.2-0.7,2.9-1.4,6.4c-3.6,17.4-13.2,36.3-21.1,51.4C122.4,123.5,117.3,121.7,116.7,119.7z"/>
		
			<linearGradient id="SVGID_18_" gradientUnits="userSpaceOnUse" x1="7285.3394" y1="71.225" x2="7258.4033" y2="64.5091" gradientTransform="matrix(-1 0 0 1 7430.5527 0)">
			<stop  offset="0" style="stop-color:#1D421D"/>
			<stop  offset="1" style="stop-color:#5C7D38"/>
		</linearGradient>
		<path fill-rule="evenodd" clip-rule="evenodd" fill="url(#SVGID_18_)" d="M152.6,59.7l-1.5,3l1.5-2.7c0,0-1.1,2.7-1,2.6
			c0.1-0.1,1.2-2.7,1.2-2.7l-0.5,3.2l0.7-3.2l-0.5,3.1l0.8-3.2l-0.7,3.2l0.8-3.1l-0.7,3.3l0.9-3.1l-0.8,3.2l1-3.2l-0.7,3.4l0.8-3.3
			l-0.5,3.2l0.7-3.1l-0.3,3.7l0.6-3.6l-0.3,3.5l0.2-1l0,0.9l0.4-3.3l-0.1,3.6l0.4-3.6l-0.2,3.7l0.3-2.5l0,2.5l0.2-2.1l-0.1,2
			l0.5-3.7l-0.3,3.9l0.5-3.5l-0.2,3.8l0.5-4l-0.2,4.3l0.2-2.2l0,2.3l0.5-4.2l-0.3,4.4l0.6-4.4l-0.3,4.7l0.5-4.2l-0.3,4.3l0.6-4.7
			l-0.2,5.1l0.6-4.1l-0.2,4.3l0.4-3.9l-0.2,4.1l0.5-3.9l-0.4,4.1l0.5-4.8l-0.3,4.8l0.7-5.1l-0.4,5.1l0.7-5.4l-0.5,5.6l0.7-5.4
			l-0.4,6l0.8-5.7l-0.5,5.8l0.9-6.2l-0.6,6.6l0.7-6.3L160,67c0,0,0.3-0.6,0.3-1.2c0.1-0.6,0.5-4.4,0.5-4.4l-0.7,7.6l1-7.8
			c0,0-0.2,5.4-0.4,6.1c-0.1,0.7,0.4,1.7,0.4,1.7s-0.3-1.8-0.1-2.8c0.2-1,0.7-4.8,0.7-4.8s-0.3,5.8-0.3,6.5c0.1,0.7,0.5,1.7,0.5,1.7
			s-0.4-1.1-0.3-2.9c0.1-1.8,0.5-4.9,0.5-4.9s-0.2,5.8-0.2,6.5c0,0.7,0.3,1.1,0.3,1.1s-0.4-1-0.1-1.8c0.2-0.9,0.4-1.6,0.4-1.6
			l-0.2,2.8l1-6.4l-0.9,7.4l0.4-1.8l-0.1,2c0,0,0.1-2.1,0.7-3.4c0.6-1.3,1.2-4.4,1.2-4.6c0.1-0.2,0.3-0.3,0.4-0.2
			c0,0.1-1.3,3.9-1.4,4.5c-0.1,0.6-0.7,4.1-0.7,4.1s0.7-3.5,0.9-4.1c0.2-0.6,1.2-4.2,1.2-4.2s0.2-0.2,0.2,0c0,0.2-1,4-1.1,4.5
			c-0.1,0.5-1.1,3.6-1.1,3.6s2-6.4,2.1-7c0.1-0.7,0.3-1,0.3-1s-1.1,4-1.3,5c-0.2,1-1.1,3.5-1.1,3.5s1.5-4.2,1.6-4.3
			c0.2-0.1-1.4,4.8-1.4,4.8l1.5-3.7l-1.2,3.6l3.3-7.6l-3.3,8.3l3.2-7.1l-3.1,6.9c0,0,2.8-6,3.1-6.2c0.3-0.2,0.5-1.5,0.6-1.5
			c0.1-0.1,0.2,0.1,0.2,0.1l-3.6,8.3l3.5-7.4l-3.2,7.9l3.6-7.1l-3.2,7.3l1.1-2.1l2.4-4.9l-3.5,7.2l3.8-7.2l-3.1,6.6l3.5-6.6
			c0,0,0.2,0,0.1,0.3c-0.1,0.2-2.8,5.8-2.9,6.3c-0.1,0.5-0.4,1.1-0.4,1.1s1.9-4.1,2.2-4.6c0.3-0.4,1.2-2.3,1.3-2.5
			c0.1-0.2,0.1,0.1,0.1,0.3s-2.4,6-2.6,6.5c-0.2,0.5-0.4,1.1-0.4,1.1s0.8-1.8,0.9-1.9c0.1-0.1-0.6,1.3-0.6,1.6c0,0.3,0,0.8,0,0.8
			s0.1-0.9,0.3-1.4c0.2-0.5,2.9-5.5,2.9-5.5s-2.8,5.7-2.9,6c-0.1,0.2-0.2,0.9-0.2,0.9s0.6-1.6,1-2.3c0.4-0.7,1.6-3.1,1.7-3.4
			c0.1-0.3,0.5-0.9,0.5-0.9s-1.9,4-2.1,4.5c-0.2,0.5-0.8,1.5-0.8,1.5s1.1-1.4,1.3-1.6c0.2-0.2,1.8-3.6,1.8-3.6s-0.2,0.7-0.3,0.9
			c0,0.2-1.4,3-1.5,3.3c-0.1,0.3-1.1,2.2-1.1,2.2s1-1.4,1.2-2c0.3-0.6,0.6-1.2,1-1.9c0.3-0.8,0.9-2.3,0.9-2.3s-0.8,2.9-1.1,3.3
			c-0.3,0.4-1.3,2.2-1.4,2.6c-0.2,0.3-0.1,0.5-0.1,0.5s1-2,1.5-2.7c0.5-0.7,1-2.4,1.1-2.7c0.1-0.4,0.1-0.5,0.1-0.5s0,1.3-0.2,1.6
			c-0.1,0.2-1.5,2.6-1.7,3c-0.2,0.4-0.4,1-0.4,1s1.2-2.1,1.4-2.5c0.3-0.4,0.9-1.6,1-1.9c0.1-0.3,0-0.8,0-0.8s0.2,0.3,0.2,0.5
			c0,0.2-0.5,1.3-0.6,1.6c-0.1,0.2-1.2,3.2-1.2,3.2s0.5-1.1,0.7-1.4c0.2-0.4,1-2.9,1.1-3c0.1,0-0.2,1.1-0.3,1.4
			c-0.1,0.3-0.9,2.4-0.9,2.4s1.1-2.9,1.2-3.1c0.1-0.2,0.1-0.1,0.1,0.1c-0.1,0.2-0.7,2.9-0.7,2.9s0.4-1.2,0.5-1.6
			c0.1-0.4,0.3-0.9,0.3-0.9l-0.2,2l0.2-1.7c0,0,0.2,1.1,0.2,1.5c0,0.4,0,0.9,0,0.9s0.2-0.7,0.1-1.5c-0.1-0.8-0.1-1-0.1-1
			s0.4,1.1,0.5,1.3c0.1,0.2,0.1,0.2,0.1,0.2l-0.7-2.2l0-0.4l1.2,2.9l-1.2-3.2l-0.1-0.3l1.2,2.6l-1.1-2.8l-0.2-0.5l1.3,2.6
			c0,0-0.6-1.6-0.8-2.1c-0.2-0.4-0.5-0.8-0.5-0.8s0.8,1.2,0.9,1.4c0.1,0.2,0.5,0.7,0.5,0.7s-0.7-1.4-0.9-1.7
			c-0.2-0.4-0.6-0.8-0.6-0.8s1.2,1.4,1.5,1.8c0.4,0.4,1.1,1.1,1.1,1.1s-1.3-1.5-1.5-1.8c-0.2-0.3-1.2-1.6-1.2-1.6s-0.1-0.3,0.2-0.1
			c0.2,0.2,3,3.5,3.1,3.5c0,0.1-1.5-2.1-1.5-2.2c-0.1-0.1-1-1.1-1-1.1s3.1,2.7,3.3,2.8c0.1,0.2-2.5-2.4-2.6-2.5
			c-0.1-0.1-0.7-0.7-0.7-0.7s2.2,1.8,2.8,2.2c0.6,0.4,1.3,1,1.3,1s-2.3-1.9-2.7-2.4c-0.4-0.4-2.2-2.1-2.2-2.1s1.9,1.5,2.7,1.9
			c0.8,0.5,2.4,2.1,2.4,2.1s-1.9-2-2.7-2.6c-0.8-0.6-3.1-2.1-3.1-2.1s1.3,0.7,2.7,1.5c1.4,0.8,3.5,2.5,3.5,2.5s-2.5-2-2.5-2
			c0-0.1-3.2-2.3-3.2-2.4c-0.1-0.1-0.1-0.2-0.1-0.2l6.4,3.2l-7.3-3.9l6.5,1.7l-6.5-1.9l-0.3-0.1l6.3,1.3l-6.4-1.6l5.7,0.7l-5.9-0.9
			c0,0,5.1,0.4,5.4,0.5c0.3,0.1,0.4,0.1,0.4,0.1s-0.2-0.3-2.2-0.6c-2-0.3-3.6-0.2-3.6-0.2l-0.1-0.1c0,0,3.4,0,4.1,0.1
			c0.7,0.1,1.5,0.3,1.5,0.3s-1.6-0.6-3.6-0.6c-2,0-2.1,0-2.1,0s4.1-0.1,4.5-0.1c0.4,0,1,0.1,1,0.1s-0.4-0.2-1.7-0.2
			c-1.4,0-3.7,0-3.7,0l-0.2-0.1l4.8-0.2c0,0-3.2,0-3.7,0c-0.6,0-1.5-0.2-1.5-0.2l5.6-0.1c0,0-4.4-0.2-5-0.1c-0.6,0-0.9,0-0.9,0
			s5.1-0.4,5.2-0.4c0.2,0-4.2,0.1-4.6,0.2c-0.3,0.1-0.9,0-0.9,0l5.3-0.9l-5.5,0.7l5-1.3l-5.1,1.1l4.8-1.4c0,0-4.8,1.1-5.1,1.2
			c-0.4,0,4.9-1.5,4.9-1.5l-5.3,1.2l4.7-1.7l-4.9,1.6l4.5-2l-1.5,0.5l0.9-0.6c0,0-2.7,1.1-3.3,1.3c-0.6,0.3-1.2,0.3-1.2,0.3l4.8-2
			l-5,1.6l4.8-1.9c0,0-1.1,0.3-1.6,0.4c-0.5,0.2-1.8,0.5-2,0.6c-0.2,0.1-1.3,0.5-1.4,0.5c-0.1,0-0.5,0.2-0.5,0.2s5.1-2.2,5-2.2
			c-0.4,0-4.9,1.9-5,2c-0.1,0.1,4.3-2.2,4.4-2.2c0.1-0.1-4.7,2-4.7,2l3.6-2.1l-4.3,2l3.5-2.1l-3.8,1.9l3.3-2.2l-3.8,1.9l3.7-2.3
			l-4,2.1c0,0,3.1-2.4,3.3-2.5c0.2-0.1-3.9,2.4-3.9,2.4l4.4-3.4l-4.8,3.3l3-2.6l-3.3,2.5l2.5-2.1l-2.9,2l2.5-2.3
			c0,0-3.2,2.2-3.1,2.1c0.1-0.1,2.8-2.4,2.8-2.4l-2.8,1.7l1.7-1.7c0,0-2.6,1.8-3.1,1.8c-0.5,0-0.7,0-1.2,0c-0.5,0-0.3-0.1-1,0
			c-0.6,0-0.2,0-1.2,0c-1,0-4.3,0.2-6.1,0.7c-1.8,0.5-3.8,1.5-3.8,1.5l-0.2,0.5c0,0,3.1-1.4,4.4-1.8c1.4-0.4,1.8-0.3,1.9-0.3
			c0.1,0-2.7,1.9-2.7,1.9l2.8-1.7c0,0-2.3,2.2-2.2,2.1C150.3,61.6,152.6,59.7,152.6,59.7z"/>
		<path fill-rule="evenodd" clip-rule="evenodd" fill="#1A3816" d="M145.3,61.1l-2.5,2.2l2.2-2.1c0,0-2.3,1.8-2.3,1.7
			c0.1-0.1,2.3-1.9,2.3-1.9l-2.9,1.3l2.9-1.5l-2.9,1.3l2.8-1.6l-2.9,1.5l2.8-1.6l-3,1.6l2.8-1.7l-2.9,1.6l2.8-1.8l-3.1,1.6l3-1.7
			l-3,1.4l2.9-1.5l-3.5,1.3l3.3-1.5l-3.3,1.2l0.9-0.4l-0.9,0.2l3.1-1.3l-3.4,1.1L144,59l-3.5,1.1l2.3-0.9l-2.4,0.7l1.9-0.8l-1.9,0.6
			l3.4-1.5l-3.7,1.3l3.2-1.4l-3.6,1.2l3.8-1.6l-4.1,1.3l2.1-0.8l-2.2,0.7l3.9-1.6l-4.2,1.5l4-1.7l-4.5,1.5l3.9-1.6l-4.1,1.4l4.4-1.8
			l-4.8,1.6l3.8-1.6l-4.1,1.3l3.7-1.4l-3.9,1.3l3.6-1.6l-3.9,1.5l4.5-1.8l-4.5,1.6l4.8-2l-4.9,1.8l5-2.1l-5.3,1.9l5-2.1l-5.6,2
			l5.3-2.3l-5.5,2.1l5.7-2.5l-6.2,2.3l5.9-2.4l-5.1,1.8c0,0,0.5-0.4,1.1-0.7c0.5-0.2,4.2-1.7,4.2-1.7l-7.2,2.7l7.3-3
			c0,0-5.2,1.7-5.8,2c-0.6,0.3-1.7,0-1.7,0s1.8-0.2,2.7-0.6c0.9-0.5,4.5-2,4.5-2s-5.5,1.8-6.2,2c-0.7,0.1-1.8,0-1.8,0
			s1.1,0.1,2.9-0.5s4.6-1.7,4.6-1.7s-5.5,1.7-6.2,1.9c-0.7,0.2-1.1,0-1.1,0s1,0.1,1.8-0.4c0.8-0.5,1.5-0.8,1.5-0.8l-2.7,1l5.9-2.7
			l-6.9,2.8l1.6-0.9l-1.9,0.6c0,0,2-0.7,3.1-1.6c1.1-0.9,3.9-2.3,4.1-2.4c0.2-0.1,0.2-0.4,0.1-0.4c-0.1,0-3.5,2.3-4,2.5
			c-0.5,0.3-3.8,1.7-3.8,1.7s3.2-1.6,3.7-2c0.5-0.4,3.8-2.3,3.8-2.3s0.1-0.2,0-0.2c-0.2,0-3.6,2-4.1,2.3c-0.5,0.2-3.2,2-3.2,2
			s5.6-3.6,6.2-3.9c0.6-0.3,0.8-0.6,0.8-0.6s-3.6,2.1-4.4,2.5c-0.9,0.5-3.1,1.9-3.1,1.9s3.7-2.5,3.7-2.7c0.1-0.2-4.3,2.6-4.3,2.6
			l3.2-2.4l-3.2,2.1l6.4-5.2l-7.1,5.4l5.9-5l-5.9,4.8c0,0,5.1-4.3,5.2-4.6c0.2-0.3,1.3-0.9,1.3-1c0-0.1-0.2-0.2-0.2-0.2l-7,5.7
			l6.2-5.4l-6.8,5.2l5.9-5.4l-6.2,5l1.7-1.6l4.1-3.7l-6.1,5.2l5.9-5.6l-5.5,4.8l5.5-5.1c0,0-0.1-0.2-0.3,0c-0.2,0.2-4.9,4.2-5.4,4.5
			c-0.4,0.3-1,0.7-1,0.7s3.5-3,3.8-3.3c0.4-0.4,1.9-1.8,2-1.9c0.2-0.1-0.2-0.1-0.3,0c-0.1,0.1-5.1,3.9-5.5,4.3c-0.4,0.4-1,0.6-1,0.6
			s1.5-1.3,1.6-1.4c0.1-0.1-1.1,0.9-1.4,1c-0.3,0.1-0.8,0.2-0.8,0.2s0.8-0.4,1.2-0.7c0.4-0.3,4.5-4.2,4.5-4.2s-4.8,4.2-5,4.3
			c-0.2,0.1-0.8,0.5-0.8,0.5s1.4-1,1.9-1.6c0.5-0.6,2.6-2.3,2.8-2.5c0.2-0.2,0.7-0.7,0.7-0.7s-3.4,2.9-3.8,3.2
			c-0.4,0.3-1.2,1.2-1.2,1.2s1-1.4,1.2-1.7c0.2-0.2,3-2.6,3-2.6s-0.6,0.4-0.8,0.5c-0.2,0.1-2.6,2.1-2.8,2.3
			c-0.3,0.2-1.8,1.6-1.8,1.6s1.1-1.3,1.6-1.7c0.5-0.4,0.9-0.9,1.6-1.4c0.7-0.5,2-1.4,2-1.4s-2.6,1.5-2.9,1.9
			c-0.3,0.4-1.8,1.8-2.1,2.1c-0.3,0.3-0.4,0.3-0.4,0.3s1.7-1.5,2.2-2.2c0.5-0.7,2-1.6,2.3-1.8c0.3-0.2,0.4-0.2,0.4-0.2
			s-1.2,0.4-1.5,0.6c-0.2,0.2-2.1,2.2-2.5,2.5c-0.3,0.3-0.8,0.7-0.8,0.7s1.7-1.7,2-2c0.3-0.4,1.3-1.3,1.6-1.5
			c0.3-0.2,0.8-0.2,0.8-0.2s-0.3-0.1-0.5,0c-0.2,0.1-1.2,0.8-1.4,0.9c-0.2,0.1-2.7,2-2.7,2s0.9-0.8,1.2-1.1c0.3-0.3,2.5-1.8,2.6-1.8
			c0-0.1-1,0.5-1.3,0.7c-0.3,0.2-2.1,1.5-2.1,1.5s2.5-1.8,2.7-2c0.2-0.2,0.1-0.1-0.1,0c-0.2,0.1-2.6,1.5-2.6,1.5s1.1-0.7,1.4-0.9
			c0.4-0.2,0.8-0.5,0.8-0.5l-1.9,0.7l1.6-0.7c0,0-1.1,0.1-1.5,0.2c-0.4,0.1-0.8,0.3-0.8,0.3s0.6-0.4,1.4-0.5c0.8-0.1,1-0.1,1-0.1
			s-1.2-0.1-1.4-0.1c-0.2,0-0.3,0-0.3,0l2.3,0.1l0.4-0.1l-3.1-0.4l3.4,0.3l0.3,0l-2.9-0.4l2.9,0.3l0.5,0l-2.9-0.6
			c0,0,1.7,0.2,2.2,0.3c0.5,0.1,0.9,0.2,0.9,0.2s-1.4-0.4-1.6-0.5c-0.2-0.1-0.8-0.3-0.8-0.3s1.5,0.3,1.9,0.4c0.4,0.1,1,0.4,1,0.4
			s-1.7-0.7-2.2-1c-0.5-0.2-1.4-0.8-1.4-0.8s1.8,0.9,2.2,1c0.4,0.1,1.9,0.8,1.9,0.8s0.3,0,0.1-0.2c-0.2-0.2-4.1-2-4.2-2
			c-0.1,0,2.4,0.9,2.5,0.9c0.1,0,1.4,0.7,1.4,0.7s-3.4-2.3-3.6-2.4c-0.2-0.1,3,1.8,3.1,1.9c0.1,0.1,0.8,0.5,0.8,0.5
			s-2.3-1.7-2.8-2.1c-0.5-0.4-1.3-1-1.3-1s2.5,1.7,3,1.9c0.5,0.3,2.6,1.6,2.6,1.6s-1.9-1.5-2.6-2.1c-0.6-0.6-2.6-1.8-2.6-1.8
			s2.4,1.4,3.2,1.9c0.8,0.6,2.8,2.5,2.8,2.5s-1-1.1-2.2-2.2c-1.1-1.1-3.4-2.7-3.4-2.7s2.6,1.8,2.6,1.9c0.1,0,3,2.5,3.1,2.5
			c0.1,0,0.2,0,0.2,0l-4.8-5.3l5.7,6l-3.4-5.8l3.5,5.8l0.2,0.2l-2.9-5.7l3.2,5.8l-2.1-5.4l2.4,5.4c0,0-1.7-4.8-1.9-5.1
			c-0.2-0.3-0.3-0.4-0.3-0.4s0.4,0.1,1.2,2c0.8,1.8,1.1,3.5,1.1,3.5l0.2,0.1c0,0-0.9-3.2-1.2-3.9c-0.3-0.7-0.7-1.3-0.7-1.3
			s1,1.4,1.5,3.4c0.5,2,0.6,2,0.6,2s-1-4-1.1-4.4c-0.1-0.4-0.4-0.9-0.4-0.9s0.3,0.3,0.7,1.6c0.4,1.3,1,3.6,1,3.6l0.2,0.1l-1.1-4.7
			c0,0,0.8,3,1,3.6c0.2,0.5,0.5,1.4,0.5,1.4l-1.4-5.5c0,0,1.3,4.2,1.4,4.7c0.1,0.6,0.3,0.9,0.3,0.9s-0.9-5-0.9-5.2
			c0-0.2,1,4.1,1,4.5c0,0.3,0.3,0.9,0.3,0.9l-0.6-5.3l0.7,5.5l-0.1-5.2l0.3,5.2l0-5c0,0,0.2,4.9,0.2,5.3c0.1,0.4,0.1-5.1,0.1-5.1
			l0.3,5.4l0.4-4.9l-0.3,5.1l0.7-4.9l-0.1,1.5l0.3-1c0,0-0.3,2.9-0.4,3.6c-0.1,0.6,0.1,1.3,0.1,1.3l0.6-5.1l-0.2,5.2l0.6-5.1
			c0,0,0,1.1,0,1.7c0,0.6,0,1.8-0.1,2.1c-0.1,0.2-0.1,1.4-0.2,1.5c0,0.1-0.1,0.5-0.1,0.5s0.8-5.5,0.8-5.4c0.1,0.4-0.5,5.2-0.6,5.4
			c-0.1,0.1,1-4.7,1-4.9s-0.7,5.1-0.7,5.1l1-4l-0.8,4.6l1.1-4l-0.8,4.2l1.2-3.8l-0.8,4.2l1.3-4.2l-1,4.4c0,0,1.5-3.6,1.6-3.8
			c0.1-0.2-1.3,4.4-1.3,4.4l2.2-5.1l-1.9,5.5l1.7-3.5l-1.5,3.8l1.4-2.9l-1.1,3.3l1.5-3c0,0-1.3,3.7-1.2,3.5c0.1-0.2,1.6-3.4,1.6-3.4
			L144,53l1.1-2.1c0,0-1,3-0.9,3.5c0.1,0.5,0.2,0.6,0.3,1.1c0.2,0.5,0.1,0.3,0.3,0.9c0.2,0.6,0.1,0.1,0.3,1.1c0.3,1,1,4.2,1,6
			c0,1.8-0.4,4-0.4,4l-0.4,0.3c0,0,0.5-3.3,0.6-4.8c0-1.4-0.2-1.8-0.2-1.9c0-0.1-1.1,3.1-1.1,3.1l0.9-3.1c0,0-1.5,2.8-1.4,2.7
			C144.1,63.8,145.4,61.1,145.3,61.1z"/>
		<path fill-rule="evenodd" clip-rule="evenodd" fill="#1A3816" d="M145.5,57.3l2.7,2l-2.4-2c0,0,2.5,1.6,2.4,1.5
			c-0.1-0.1-2.5-1.7-2.5-1.7l3,1.1l-3-1.3l2.9,1.1l-2.9-1.4l3.1,1.3l-2.9-1.4l3.1,1.3l-2.9-1.5l3,1.4l-3-1.6l3.2,1.4l-3.1-1.4
			l3.1,1.1l-3-1.2l3.6,1l-3.5-1.2l3.4,1l-0.9-0.4l0.9,0.1l-3.2-1l3.5,0.8l-3.4-1.1l3.6,0.9l-2.4-0.7l2.5,0.5l-2-0.6l1.9,0.4
			l-3.5-1.2l3.8,1l-3.3-1.2l3.7,0.9l-3.9-1.3l4.2,1l-2.1-0.6l2.3,0.5l-4-1.3l4.3,1.1l-4.2-1.4l4.6,1.1l-4-1.3l4.2,1.1l-4.5-1.5
			l4.9,1.2l-3.9-1.3l4.2,1l-3.8-1.1l4,0.9l-3.7-1.3l4,1.2l-4.6-1.4l4.7,1.2l-4.9-1.6l5,1.4l-5.1-1.7l5.4,1.5l-5.1-1.7l5.8,1.5
			l-5.5-1.8l5.6,1.6l-5.9-2l6.4,1.8l-6.1-1.9l5.2,1.4c0,0-0.6-0.4-1.1-0.6c-0.5-0.2-4.3-1.3-4.3-1.3l7.4,2.1l-7.5-2.5
			c0,0,5.3,1.3,5.9,1.5c0.6,0.3,1.7-0.1,1.7-0.1s-1.8,0-2.8-0.4c-0.9-0.4-4.6-1.6-4.6-1.6s5.7,1.4,6.4,1.5c0.7,0.1,1.8-0.2,1.8-0.2
			s-1.1,0.2-2.9-0.3c-1.8-0.5-4.7-1.4-4.7-1.4s5.6,1.3,6.3,1.4c0.7,0.1,1.1-0.1,1.1-0.1s-1,0.2-1.8-0.2c-0.8-0.4-1.5-0.7-1.5-0.7
			l2.7,0.7l-6.1-2.2l7.1,2.3l-1.7-0.8l1.9,0.4c0,0-2-0.5-3.2-1.3c-1.1-0.8-4.1-2-4.3-2.1c-0.2-0.1-0.2-0.4-0.1-0.4
			c0.1,0,3.6,2,4.2,2.2c0.5,0.2,3.9,1.4,3.9,1.4s-3.3-1.4-3.8-1.7c-0.6-0.3-3.9-2-3.9-2s-0.1-0.2,0-0.2c0.2,0,3.8,1.8,4.3,2
			c0.5,0.2,3.3,1.7,3.3,1.7s-5.9-3.2-6.5-3.4c-0.6-0.2-0.9-0.5-0.9-0.5s3.7,1.8,4.6,2.2c0.9,0.4,3.2,1.7,3.2,1.7s-3.9-2.2-3.9-2.4
			c-0.1-0.2,4.5,2.3,4.5,2.3l-3.3-2.1l3.3,1.8l-6.8-4.7l7.5,4.8l-6.3-4.5l6.2,4.3c0,0-5.4-3.9-5.6-4.2c-0.2-0.3-1.4-0.8-1.4-0.9
			c0-0.1,0.1-0.2,0.1-0.2l7.4,5.1l-6.7-4.8l7.2,4.6l-6.3-4.9l6.6,4.5l-1.9-1.5l-4.4-3.3l6.5,4.8l-6.3-5.1l5.9,4.3l-5.8-4.6
			c0,0,0.1-0.2,0.3,0c0.2,0.2,5.2,3.8,5.7,4c0.5,0.2,1.1,0.6,1.1,0.6s-3.7-2.7-4.1-3c-0.4-0.3-2-1.6-2.2-1.7c-0.2-0.1,0.2-0.1,0.3,0
			c0.1,0.1,5.4,3.5,5.9,3.8c0.4,0.3,1.1,0.6,1.1,0.6s-1.6-1.2-1.7-1.3c-0.1-0.1,1.2,0.8,1.5,0.8c0.3,0.1,0.8,0.1,0.8,0.1
			s-0.8-0.3-1.3-0.6c-0.4-0.3-4.9-3.9-4.9-3.9s5.1,3.8,5.3,3.9c0.2,0.1,0.9,0.4,0.9,0.4s-1.5-0.9-2.1-1.4c-0.6-0.5-2.7-2.1-3-2.3
			c-0.2-0.2-0.8-0.7-0.8-0.7s3.6,2.6,4,2.9c0.4,0.3,1.3,1.1,1.3,1.1s-1.1-1.4-1.4-1.6c-0.2-0.2-3.2-2.4-3.2-2.4s0.7,0.4,0.9,0.5
			c0.2,0.1,2.7,1.9,3,2.1c0.3,0.2,1.9,1.5,1.9,1.5s-1.2-1.2-1.7-1.6c-0.5-0.4-1-0.8-1.7-1.3c-0.7-0.5-2.1-1.3-2.1-1.3s2.7,1.3,3,1.7
			c0.3,0.4,2,1.7,2.2,1.9c0.3,0.2,0.5,0.2,0.5,0.2s-1.8-1.4-2.4-2c-0.6-0.6-2.1-1.4-2.5-1.6c-0.3-0.2-0.4-0.2-0.4-0.2
			s1.3,0.3,1.5,0.5c0.2,0.2,2.3,2,2.7,2.3c0.3,0.3,0.9,0.6,0.9,0.6s-1.8-1.5-2.2-1.9c-0.4-0.3-1.4-1.2-1.7-1.3
			c-0.3-0.2-0.8-0.2-0.8-0.2s0.3-0.1,0.5-0.1s1.2,0.7,1.4,0.8c0.2,0.1,2.9,1.8,2.9,1.8s-0.9-0.7-1.3-1c-0.3-0.3-2.7-1.6-2.7-1.6
			c0-0.1,1,0.4,1.3,0.6c0.3,0.2,2.2,1.3,2.2,1.3s-2.6-1.6-2.8-1.7c-0.2-0.2-0.1-0.1,0.1,0c0.2,0.1,2.8,1.3,2.8,1.3s-1.1-0.6-1.5-0.8
			c-0.4-0.2-0.8-0.4-0.8-0.4l1.9,0.6l-1.6-0.5c0,0,1.1,0,1.5,0.1c0.4,0.1,0.8,0.2,0.8,0.2s-0.6-0.3-1.4-0.4c-0.8-0.1-1,0-1,0
			s1.2-0.2,1.4-0.2c0.2,0,0.2,0,0.2,0l-2.3,0.3l-0.4,0l3.1-0.6l-3.3,0.6l-0.3,0l2.8-0.7l-2.9,0.5l-0.5,0.1l2.8-0.8
			c0,0-1.7,0.3-2.2,0.4c-0.5,0.1-0.9,0.3-0.9,0.3s1.3-0.6,1.5-0.6c0.2-0.1,0.8-0.3,0.8-0.3s-1.5,0.4-1.8,0.5
			c-0.4,0.1-0.9,0.4-0.9,0.4s1.6-0.9,2.1-1.2c0.5-0.3,1.3-0.9,1.3-0.9s-1.7,1-2.1,1.1c-0.4,0.1-1.8,0.9-1.8,0.9s-0.3,0-0.1-0.2
			c0.2-0.2,4-2.3,4-2.4c0.1,0-2.3,1-2.4,1.1c-0.1,0-1.3,0.8-1.3,0.8s3.2-2.6,3.4-2.7c0.2-0.1-2.8,2-2.9,2.1
			c-0.1,0.1-0.8,0.5-0.8,0.5s2.2-1.9,2.7-2.3c0.5-0.5,1.2-1.1,1.2-1.1s-2.3,1.9-2.8,2.2c-0.5,0.3-2.5,1.8-2.5,1.8s1.8-1.6,2.4-2.3
			c0.6-0.7,2.5-2,2.5-2s-2.3,1.5-3.1,2.2c-0.8,0.6-2.6,2.7-2.6,2.7s0.9-1.2,2-2.3c1-1.2,3.1-2.9,3.1-2.9s-2.4,2-2.5,2.1
			c-0.1,0-2.8,2.7-2.9,2.7c-0.1,0.1-0.2,0-0.2,0l4.4-5.7l-5.2,6.4l2.9-6.1l-3.1,6.1l-0.2,0.2l2.4-5.9l-2.7,6l1.7-5.5l-1.9,5.6
			c0,0,1.3-4.9,1.5-5.2c0.1-0.3,0.2-0.4,0.2-0.4s-0.4,0.2-1,2.1c-0.6,1.9-0.9,3.5-0.9,3.5l-0.1,0.1c0,0,0.7-3.3,0.9-4
			c0.2-0.7,0.6-1.4,0.6-1.4s-0.9,1.4-1.2,3.5c-0.3,2-0.4,2.1-0.4,2.1s0.6-4.1,0.7-4.4c0.1-0.4,0.3-0.9,0.3-0.9s-0.3,0.3-0.5,1.7
			c-0.3,1.3-0.7,3.7-0.7,3.7l-0.2,0.2l0.7-4.8c0,0-0.6,3.1-0.7,3.6c-0.1,0.5-0.4,1.4-0.4,1.4l0.9-5.5c0,0-1,4.3-1.1,4.8
			c-0.1,0.6-0.2,0.9-0.2,0.9s0.5-5,0.5-5.2c0-0.2-0.7,4.2-0.7,4.5c0,0.3-0.2,0.9-0.2,0.9l0.1-5.3l-0.3,5.5l-0.3-5.2l0.1,5.2l-0.4-5
			c0,0,0.2,4.9,0.2,5.3c0,0.4-0.5-5.1-0.5-5.1l0.2,5.4l-0.8-4.9l0.7,5.1l-1.1-4.8l0.2,1.5l-0.4-1c0,0,0.5,2.9,0.7,3.5
			c0.1,0.6,0,1.3,0,1.3l-1-5.1l0.6,5.2l-1-5.1c0,0,0.1,1.1,0.1,1.7c0.1,0.5,0.1,1.8,0.2,2c0.1,0.2,0.2,1.3,0.3,1.4
			c0,0.1,0.1,0.5,0.1,0.5s-1.2-5.4-1.2-5.3c-0.1,0.4,0.9,5.2,1,5.3c0.1,0.1-1.3-4.7-1.4-4.8c0-0.1,1.1,5,1.1,5l-1.4-3.9l1.2,4.6
			l-1.4-3.9l1.2,4.1l-1.5-3.7l1.1,4.1l-1.6-4l1.3,4.3c0,0-1.8-3.5-1.9-3.7c-0.1-0.2,1.6,4.3,1.6,4.3l-2.6-4.9l2.3,5.3l-2-3.4
			l1.8,3.7l-1.6-2.8l1.4,3.2l-1.7-2.9c0,0,1.6,3.6,1.5,3.4c-0.1-0.1-1.8-3.2-1.8-3.2l1.2,3.1l-1.3-2c0,0,1.3,2.9,1.2,3.4
			c-0.1,0.5-0.1,0.7-0.3,1.1c-0.1,0.5-0.1,0.3-0.2,0.9c-0.1,0.6-0.1,0.2-0.2,1.1c-0.2,1-0.6,4.2-0.5,6.1c0.1,1.8,0.7,4,0.7,4L146,64
			c0,0-0.8-3.3-0.9-4.7c-0.1-1.4,0-1.8,0-1.9c0-0.1,1.3,3,1.3,3l-1.1-3c0,0,1.7,2.7,1.7,2.6C146.9,59.9,145.5,57.3,145.5,57.3z"/>
		
			<linearGradient id="SVGID_19_" gradientUnits="userSpaceOnUse" x1="7292.9717" y1="11.7638" x2="7305.8862" y2="47.2457" gradientTransform="matrix(-1 0 0 1 7430.5527 0)">
			<stop  offset="0" style="stop-color:#AAB643"/>
			<stop  offset="0.22" style="stop-color:#A0AE3E"/>
			<stop  offset="0.63" style="stop-color:#567737"/>
			<stop  offset="1" style="stop-color:#1D421D"/>
		</linearGradient>
		<path fill-rule="evenodd" clip-rule="evenodd" fill="url(#SVGID_19_)" d="M143.2,51.1l-4.2,3.8l3.7-3.7c0,0-3.9,3-3.8,2.9
			c0.1-0.2,3.9-3.2,3.9-3.2l-5,2.2l4.8-2.7l-4.9,2.2l4.8-2.8l-5,2.6l4.6-2.8l-5,2.7l4.7-2.9l-4.9,2.8l4.8-3.1l-5.3,2.8l5.1-2.9
			l-5.1,2.4l4.8-2.6l-5.9,2.2l5.7-2.6l-5.6,2.1l1.5-0.8l-1.5,0.3l5.2-2.2l-5.8,1.9l5.6-2.4l-6,2l3.9-1.6l-4.2,1.2l3.3-1.4l-3.2,1
			l5.9-2.5l-6.3,2.2l5.5-2.5l-6.1,2l6.4-2.7l-7,2.3l3.5-1.4l-3.8,1.1l6.7-2.8l-7.2,2.5l6.9-3l-7.7,2.6l6.6-2.8l-6.9,2.5l7.5-3.1
			l-8.3,2.7l6.5-2.8l-7.1,2.3L136,43l-6.6,2.2l6.1-2.7l-6.6,2.5l7.6-3.1l-7.8,2.7l8.1-3.5l-8.3,3l8.5-3.6L128,44l8.5-3.7l-9.6,3.4
			l9.1-3.9l-9.3,3.5l9.7-4.3l-10.7,4l10.1-4.1l-8.7,3.2c0,0,0.9-0.8,1.8-1.1c0.9-0.4,7.1-2.9,7.1-2.9l-12.2,4.6l12.4-5.2
			c0,0-8.9,2.9-9.9,3.4c-1,0.5-3,0.1-3,0.1s3.2-0.3,4.7-1.1c1.5-0.8,7.6-3.4,7.6-3.4s-9.5,3.2-10.7,3.4c-1.2,0.2-3.1,0-3.1,0
			s2,0.2,5-0.8c3-1.1,7.8-3,7.8-3s-9.5,2.9-10.7,3.2c-1.2,0.3-1.9-0.1-1.9-0.1s1.8,0.1,3.1-0.7c1.3-0.8,2.5-1.3,2.5-1.3l-4.6,1.7
			l10-4.6l-11.7,4.9l2.7-1.5l-3.2,1c0,0,3.4-1.2,5.2-2.7c1.8-1.5,6.6-4,7-4.2c0.4-0.2,0.3-0.7,0.1-0.7c-0.2,0-5.8,3.9-6.7,4.3
			c-0.9,0.4-6.4,3-6.4,3s5.3-2.8,6.2-3.4c0.9-0.6,6.4-3.9,6.4-3.9s0.2-0.3-0.1-0.3c-0.3,0.1-6.1,3.5-6.9,4c-0.8,0.4-5.4,3.4-5.4,3.4
			s9.4-6.3,10.5-6.7c1-0.5,1.4-1,1.4-1s-6,3.6-7.5,4.4c-1.5,0.8-5.2,3.3-5.2,3.3s6.2-4.3,6.3-4.6c0.1-0.3-7.2,4.5-7.2,4.5l5.3-4.1
			l-5.3,3.6l10.7-9l-11.9,9.3l9.9-8.6l-9.8,8.2c0,0,8.4-7.4,8.7-8c0.3-0.6,2.2-1.5,2.2-1.7c0.1-0.2-0.3-0.3-0.3-0.3l-11.7,9.8
			l10.4-9.2l-11.4,8.9l9.9-9.3l-10.4,8.6l2.9-2.8l6.9-6.3l-10.1,9.1l9.8-9.7l-9.2,8.3l9.1-8.8c0,0-0.1-0.3-0.5,0
			c-0.3,0.3-8.2,7.2-8.9,7.7c-0.7,0.4-1.7,1.1-1.7,1.1s5.8-5.1,6.3-5.7c0.6-0.6,3.1-3,3.4-3.3c0.3-0.2-0.3-0.1-0.5,0
			c-0.2,0.1-8.6,6.7-9.3,7.3c-0.7,0.6-1.7,1.1-1.7,1.1s2.5-2.2,2.6-2.4c0.1-0.2-1.9,1.5-2.4,1.7c-0.5,0.1-1.3,0.3-1.3,0.3
			s1.4-0.6,2.1-1.2c0.7-0.5,7.6-7.3,7.6-7.3s-8,7.3-8.3,7.5c-0.3,0.2-1.4,0.8-1.4,0.8s2.3-1.8,3.2-2.8c0.9-1,4.3-4,4.7-4.4
			c0.4-0.3,1.2-1.3,1.2-1.3s-5.6,5-6.3,5.5c-0.7,0.5-2,2.1-2,2.1s1.7-2.5,2-2.9c0.3-0.4,4.9-4.5,4.9-4.5s-1.1,0.7-1.4,0.9
			c-0.3,0.2-4.3,3.7-4.7,4c-0.4,0.3-3,2.8-3,2.8s1.8-2.2,2.6-3c0.8-0.7,1.6-1.6,2.7-2.5c1.1-0.9,3.3-2.5,3.3-2.5s-4.4,2.6-4.9,3.3
			c-0.5,0.7-3,3.1-3.5,3.6c-0.4,0.4-0.7,0.4-0.7,0.4s2.8-2.6,3.7-3.8c0.9-1.1,3.4-2.8,3.9-3.1c0.5-0.3,0.7-0.4,0.7-0.4
			s-2.1,0.7-2.5,1c-0.3,0.3-3.6,3.8-4.1,4.3c-0.5,0.5-1.4,1.1-1.4,1.1s2.8-2.9,3.3-3.5c0.5-0.6,2.1-2.2,2.6-2.5
			c0.5-0.3,1.3-0.4,1.3-0.4s-0.6-0.2-0.9,0c-0.3,0.1-2,1.4-2.3,1.6c-0.3,0.2-4.6,3.5-4.6,3.5s1.4-1.4,2-1.9c0.5-0.5,4.2-3.1,4.3-3.2
			c0-0.1-1.7,0.8-2.2,1.2c-0.5,0.3-3.6,2.5-3.6,2.5s4.2-3.1,4.4-3.4c0.2-0.3,0.2-0.3-0.2-0.1c-0.3,0.2-4.5,2.5-4.5,2.5
			s1.8-1.1,2.4-1.6c0.6-0.4,1.3-0.9,1.3-0.9l-3.2,1.2l2.6-1.2c0,0-2,0.1-2.6,0.3c-0.7,0.2-1.4,0.5-1.4,0.5s1-0.6,2.4-0.8
			c1.4-0.2,1.7-0.2,1.7-0.2s-2-0.2-2.4-0.2c-0.4,0-0.4,0-0.4,0l4.1,0.2l0.7-0.1l-5.5-0.7l5.9,0.5l0.5,0l-5-0.8l5.1,0.5l0.8,0.1l-5-1
			c0,0,3,0.3,3.9,0.5c0.9,0.2,1.6,0.4,1.6,0.4s-2.4-0.8-2.8-0.9c-0.4-0.1-1.5-0.4-1.5-0.4s2.6,0.5,3.3,0.6c0.7,0.2,1.7,0.6,1.7,0.6
			s-3-1.3-3.9-1.7c-0.9-0.4-2.5-1.4-2.5-1.4s3.2,1.6,3.8,1.7c0.7,0.1,3.3,1.3,3.3,1.3s0.5,0,0.1-0.3c-0.4-0.3-7.4-3.5-7.5-3.5
			c-0.1-0.1,4.2,1.5,4.5,1.6c0.2,0.1,2.4,1.2,2.4,1.2s-6.1-4-6.4-4.2c-0.3-0.2,5.3,3.1,5.5,3.2c0.2,0.1,1.5,0.8,1.5,0.8
			s-4.2-2.9-5.1-3.6c-0.9-0.7-2.3-1.7-2.3-1.7s4.4,2.9,5.3,3.4c0.9,0.5,4.6,2.7,4.6,2.7s-3.5-2.5-4.6-3.6c-1.2-1.1-4.7-3.1-4.7-3.1
			s4.3,2.4,5.8,3.3c1.5,1,5.2,4.3,5.2,4.3s-1.9-1.9-3.9-3.8c-2.1-1.9-6.1-4.7-6.1-4.7s4.6,3.2,4.7,3.2c0.1,0.1,5.5,4.2,5.7,4.3
			c0.2,0.1,0.4,0,0.4,0l-8.2-8.6l0,0l9.8,9.8l-6.3-10.1l6.6,10l0.4,0.4l-5.5-9.9l6,10l-4.2-9.3l4.6,9.4c0,0-3.4-8.4-3.7-8.8
			c-0.3-0.5-0.5-0.7-0.5-0.7s0.7,0.3,2.2,3.4c1.5,3.2,2.3,6,2.3,6l0.3,0.2c0,0-1.9-5.6-2.4-6.7c-0.5-1.2-1.3-2.3-1.3-2.3
			s1.9,2.4,2.9,5.8c1,3.4,1.2,3.5,1.2,3.5s-2-6.9-2.2-7.6c-0.2-0.6-0.7-1.6-0.7-1.6s0.5,0.5,1.3,2.8c0.8,2.3,2,6.2,2,6.2l0.3,0.3
			l-2.3-8.1c0,0,1.7,5.3,2,6.2c0.4,0.9,1.1,2.4,1.1,2.4l-2.8-9.4c0,0,2.6,7.2,2.9,8.2c0.3,1,0.6,1.5,0.6,1.5s-2-8.6-2.1-8.9
			c-0.1-0.3,2.1,7.1,2.1,7.7c0.1,0.6,0.6,1.5,0.6,1.5l-1.4-9.2l1.8,9.5l-0.6-8.9l1,9l-0.3-8.6c0,0,0.7,8.5,0.9,9.1
			c0.2,0.7-0.3-8.9-0.3-8.9l0.9,9.3l0.3-8.6l0,8.9l0.8-8.4l0,2.7l0.5-1.8c0,0-0.3,5.1-0.4,6.1c-0.1,1.1,0.2,2.2,0.2,2.2l0.7-8.9
			l0.1,9l0.6-8.9c0,0,0.1,1.9,0.2,2.9c0,1,0.2,3.2,0,3.6c-0.1,0.4-0.1,2.3-0.2,2.5c0,0.2-0.1,0.9-0.1,0.9s0.9-9.5,0.9-9.4
			c0.2,0.7-0.5,9.1-0.6,9.3c-0.1,0.2,1.3-8.2,1.3-8.4c0-0.2-0.8,8.8-0.8,8.8l1.5-7l-1,8l1.6-6.9l-1.1,7.2l1.8-6.6l-1,7.3l1.8-7.2
			l-1.3,7.6c0,0,2.4-6.3,2.4-6.6c0.1-0.3-1.9,7.6-1.9,7.6l3.3-8.9l-2.8,9.5l2.7-6.1l-2.3,6.6l2.1-5.1l-1.7,5.7l2.4-5.2
			c0,0-1.2,4-1.7,5.5c0,0.1,0,0.2,0,0.2c0.1-0.2,0.2-0.4,0.3-0.7L140,35c0.1-0.2,0.2-0.4,0.3-0.6c-0.1,0.3-0.1,0.6-0.2,0.9
			c0.7-1.6,1.5-3.6,1.5-3.6l-0.4,1.9l0.5-1.6l0-0.1l-1,3.4l-0.4,1.9l0.8-1.6l1.4-3.4l-0.8,2.2l0.4-0.9c0,0-0.3,0.9-0.6,2l1.3-2.8
			c0,0-0.9,2.2-1.6,4.1c-0.1,0.4-0.2,0.9-0.3,1.3c0.9-1.9,2.3-5,2.3-5l-2.4,6.3l0,0c0,0,0,0.1,0,0.1l3-5.4l-2.9,5.7l0,0.1l3.3-5.1
			l-1,1.8l1-1.1c0,0-2,3.4-2.5,4.1c-0.2,0.4-0.4,0.8-0.5,1.1l0.1,0.2l3.4-5.6l-3.1,6.3v0l3.5-5.9c0,0-0.6,1.4-0.9,2.1
			s-1,2.3-1.2,2.5c-0.2,0.2-0.9,1.6-1,1.7c0,0-0.1,0.2-0.2,0.3l0,0c0.8-1.2,3.8-5.9,3.7-5.9c-0.1,0.5-3.2,5.6-3.6,6.2l0,0
			c0.4-0.6,3.8-5.1,3.9-5.2c0.1-0.1-3.7,5.7-3.7,5.7l3.5-4.2l-3.3,4.8c0,0,0,0,0,0l3.3-3.8l-3.2,4.3l0,0l3.5-3.6l-3.2,4.5l0,0
			l3.7-4.1L143,46l0,0c0.6-0.5,3.9-3.3,4-3.5c0.2-0.2-2.9,3.3-3.8,4.2l0,0l5.3-4.5l-5.1,5.1l0,0l3.9-2.9l-3.7,3.4l0,0l3.1-2.4
			l-2.9,2.9l0,0.1l3.3-2.4c0,0-2.2,2.2-3.1,3.1l0,0.1c1-0.8,3.4-2.7,3.4-2.7l-2.9,3.3l2.6-1.7c0,0-1.9,1.8-2.7,2.9
			c0.3,1.6,0.6,3.2,0.7,4.4c0.2,3.2-0.4,7-0.4,7l-0.7,0.5c0,0,0.7-5.8,0.6-8.2c-0.1-2.2-0.4-2.9-0.5-3.2c0,0,0,0.1-0.1,0.1l0-0.1
			c-0.3,0.8-1.6,5.2-1.6,5.2l1.3-5.4c0,0-2.4,4.8-2.3,4.7C141.4,55.9,143.3,51.2,143.2,51.1z"/>
		
			<linearGradient id="SVGID_20_" gradientUnits="userSpaceOnUse" x1="7240.2993" y1="37.5668" x2="7279.2744" y2="66.9367" gradientTransform="matrix(-1 0 0 1 7430.5527 0)">
			<stop  offset="0" style="stop-color:#AAB643"/>
			<stop  offset="0.24" style="stop-color:#A0AE3E"/>
			<stop  offset="0.41" style="stop-color:#567737"/>
			<stop  offset="1" style="stop-color:#1D421D"/>
		</linearGradient>
		<path fill-rule="evenodd" clip-rule="evenodd" fill="url(#SVGID_20_)" d="M151,55.6l0.7,5.4l-0.4-5.1c0,0,0.9,4.7,1,4.5
			c0-0.2-0.8-4.8-0.8-4.8l2.1,4.7l-1.8-4.9l2,4.7l-1.6-5l1.9,5l-1.6-4.9l1.8,5.1l-1.5-5.1l1.7,5.1L153,55l2,5.3l-1.8-5.3l2.1,4.9
			l-1.8-4.9l2.7,5.3l-2.4-5.4l2.6,5l-0.6-1.5l0.8,1.2l-2.3-4.9l2.8,4.9l-2.5-5.2l2.9,5.1l-1.7-3.6l2.1,3.4l-1.4-3l1.6,2.7l-2.5-5.5
			l3,5.5l-2.3-5.2l3,5.2l-2.8-5.9l3.4,6l-1.6-3.2l1.9,3.2l-2.9-6.2l3.4,6.3l-2.9-6.4l3.7,6.6l-2.9-6.1l3.2,6.1l-3.2-6.9l4,7
			l-2.8-6.1l3.4,6l-2.8-5.6l3.2,5.7l-2.6-5.8l3,5.9l-3.4-7l3.6,6.8l-3.5-7.6l3.8,7.3l-3.7-7.9l4.2,8l-3.6-7.9l4.5,8.4l-3.9-8.5
			l4.2,8.4l-4.1-9.2l4.9,9.5l-4.4-9.3l4,7.7c0,0-0.2-1.1-0.6-2c-0.4-0.8-3.1-6.5-3.1-6.5l5.6,10.9l-5.3-11.5c0,0,4.3,7.6,4.7,8.6
			c0.4,1,1.9,1.9,1.9,1.9s-2-2.1-2.5-3.7c-0.6-1.5-3.2-7.2-3.2-7.2s4.5,8.2,5.2,9.1c0.7,0.9,2.1,1.9,2.1,1.9s-1.4-1-2.8-3.6
			c-1.4-2.6-3.5-7-3.5-7s4.7,8,5.3,8.9c0.6,1,1.3,1.1,1.3,1.1s-1.3-1-1.7-2.4c-0.4-1.4-0.9-2.5-0.9-2.5l2.1,4l-4.1-9.6l5.1,10.8
			l-1-2.8l1.6,2.7c0,0-1.6-2.9-2-5.2c-0.4-2.3-2.2-7-2.3-7.4c-0.1-0.4,0.2-0.7,0.3-0.6c0.2,0.1,1.7,6.5,2.1,7.4
			c0.3,0.9,2.6,6.2,2.6,6.2s-2-5.4-2.3-6.4c-0.2-1-2.1-6.9-2.1-6.9s0.1-0.4,0.2-0.2c0.1,0.2,2.1,6.4,2.4,7.2
			c0.3,0.8,1.7,5.8,1.7,5.8s-2.8-10.5-3.3-11.5c-0.4-1-0.4-1.6-0.4-1.6s2,6.4,2.6,7.9c0.6,1.5,1.6,5.7,1.6,5.7s-1.7-7.1-1.6-7.4
			c0.1-0.3,2.3,7.8,2.3,7.8l-1.2-6.4l1.6,6l-2.2-13.3l2.8,14.3l-1.9-12.6l2,12.2c0,0-1.5-10.8-1.4-11.3c0.1-0.6-0.6-2.5-0.6-2.6
			c0-0.2,0.3,0,0.3,0l2.4,14.5l-1.9-13.4l2.7,13.7l-1.5-13l2.2,12.9l-0.4-3.9l-1.1-9l1.7,13L177,48.2l1.6,11.9l-1.2-12.2
			c0,0,0.3-0.2,0.3,0.3c0.1,0.4,1.5,10.5,1.7,11.3c0.3,0.8,0.5,1.9,0.5,1.9s-1-7.4-1.1-8.2c0-0.8-0.4-4.2-0.5-4.5
			c-0.1-0.3,0.3,0.1,0.3,0.3c0.1,0.2,2,10.3,2.1,11.2c0.1,0.9,0.5,1.9,0.5,1.9s-0.4-3.2-0.4-3.4c0.1-0.2,0.4,2.3,0.7,2.7
			c0.3,0.4,0.7,1,0.7,1s-0.6-1.3-0.7-2.1c-0.1-0.8-1-10.1-1-10.1s1.3,10.4,1.4,10.8c0.1,0.4,0.5,1.5,0.5,1.5s-0.6-2.8-0.6-4.1
			c-0.1-1.3-0.6-5.7-0.7-6.1c-0.1-0.5-0.1-1.7-0.1-1.7s1,7.2,1.2,8.1c0.2,0.8,0.2,2.8,0.2,2.8s0.3-2.9,0.3-3.4
			c0-0.5-0.8-6.5-0.8-6.5s0.3,1.2,0.4,1.6c0.1,0.3,0.8,5.4,0.9,5.9c0.1,0.5,0.4,4,0.4,4s0-2.8-0.1-3.9c-0.2-1.1-0.2-2.2-0.4-3.5
			c-0.2-1.4-0.8-3.9-0.8-3.9s1.5,4.7,1.4,5.5c-0.1,0.8,0.3,4.2,0.3,4.8c0.1,0.6,0.3,0.8,0.3,0.8s-0.4-3.7-0.4-5.1
			c0-1.4-0.7-4.1-0.9-4.7c-0.2-0.6-0.2-0.8-0.2-0.8s1.1,1.8,1.1,2.3c0,0.5,0.3,5,0.4,5.7c0.1,0.7,0.3,1.7,0.3,1.7s-0.3-3.9-0.3-4.7
			c0-0.8-0.2-3-0.4-3.5c-0.2-0.5-0.6-1.1-0.6-1.1s0.5,0.2,0.6,0.5c0.1,0.3,0.6,2.2,0.6,2.6c0.1,0.4,1.1,5.4,1.1,5.4
			s-0.2-1.9-0.3-2.6c-0.1-0.7-1.1-4.9-1.1-5c0-0.1,0.7,1.7,0.8,2.2c0.1,0.5,1,4.1,1,4.1s-1.1-4.9-1.1-5.3c0-0.4,0-0.3,0.1,0.1
			c0.1,0.4,1.6,4.7,1.6,4.7s-0.6-1.9-0.7-2.6c-0.2-0.7-0.4-1.5-0.4-1.5l1.4,2.9l-1.1-2.5c0,0,1.2,1.3,1.6,1.9
			c0.3,0.6,0.7,1.2,0.7,1.2s-0.3-1.1-1.1-2.1c-0.8-1-1-1.2-1-1.2s1.4,1.1,1.7,1.3c0.3,0.2,0.3,0.2,0.3,0.2l-2.8-2.3l-0.4-0.5l4,2.8
			l-4.2-3.2l-0.3-0.3l3.7,2.5l-3.7-2.7l-0.6-0.5l3.8,2.3c0,0-2.2-1.6-2.8-2c-0.7-0.4-1.3-0.6-1.3-0.6s2,0.9,2.3,1
			c0.3,0.2,1.2,0.5,1.2,0.5s-2-1.2-2.5-1.5c-0.6-0.3-1.4-0.5-1.4-0.5s2.7,0.8,3.5,1c0.8,0.2,2.4,0.5,2.4,0.5s-3-0.7-3.5-1
			c-0.5-0.3-2.9-1-2.9-1s-0.3-0.3,0.1-0.3c0.4,0,6.8,1.8,6.9,1.8c0.1,0-3.6-1.4-3.8-1.5c-0.2-0.1-2.2-0.6-2.2-0.6s6.2,0.6,6.5,0.7
			c0.3,0.1-5.2-0.8-5.4-0.9c-0.2-0.1-1.4-0.3-1.4-0.3s4.4,0.3,5.4,0.3c1,0,2.4,0.1,2.4,0.1s-4.5-0.5-5.4-0.7
			c-0.8-0.2-4.5-0.7-4.5-0.7s3.7,0.1,5,0c1.4-0.1,4.8,0.5,4.8,0.5s-4.1-0.8-5.6-1c-1.5-0.1-5.7,0.1-5.7,0.1s2.3-0.3,4.7-0.5
			c2.4-0.2,6.5,0.1,6.5,0.1s-4.8-0.4-4.9-0.4c-0.1,0-6-0.1-6.1-0.1c-0.2,0-0.2-0.2-0.2-0.2l10.8-1.7l-12.5,1.7l9.7-3.9l-9.8,3.7
			l-0.5,0.1l9-4.2l-9.4,4l7.8-4.6l-8.2,4.4c0,0,6.8-4.3,7.3-4.5c0.5-0.2,0.7-0.2,0.7-0.2s-0.6-0.2-3.3,1.3c-2.7,1.5-4.8,3.2-4.8,3.2
			l-0.3,0c0,0,4.3-3.1,5.3-3.7c1-0.6,2.1-1,2.1-1s-2.5,0.7-5.1,2.7c-2.5,2-2.7,2-2.7,2s5.1-4.1,5.6-4.4c0.5-0.4,1.3-0.8,1.3-0.8
			s-0.6,0.1-2.4,1.3c-1.7,1.3-4.7,3.6-4.7,3.6l-0.3,0l5.9-4.8c0,0-4,3-4.7,3.5c-0.7,0.5-2,1.2-2,1.2l7-5.5c0,0-5.7,3.9-6.4,4.5
			c-0.7,0.6-1.2,0.8-1.2,0.8s6-5.4,6.2-5.6c0.2-0.2-5.3,4.2-5.6,4.6c-0.4,0.4-1.2,0.8-1.2,0.8L179,40l-6.3,6.2l5.3-6.5l-5.5,6.3
			l4.9-6.4c0,0-5.1,6-5.5,6.4c-0.5,0.4,5-6.6,5-6.6l-5.7,6.6l4.5-6.7l-4.8,6.8l4-6.9l-1.4,2.1l0.7-1.7c0,0-2.6,4.1-3.1,4.9
			c-0.5,0.9-1.3,1.5-1.3,1.5l4.4-7.2l-5,6.8l4.5-7.1c0,0-1.1,1.4-1.7,2.1c-0.5,0.7-1.8,2.3-2,2.7c-0.1,0.4-1.2,1.9-1.3,2
			c-0.1,0.1-0.4,0.7-0.4,0.7s4.6-7.8,4.5-7.7c-0.5,0.4-4.6,7.2-4.7,7.4c-0.1,0.2,3.6-7,3.7-7.2c0.1-0.2-4.2,7.2-4.2,7.2l2.8-6.2
			l-3.7,6.7l2.7-6.2l-3.2,6.2l2.4-6.1l-3.3,6.2l2.7-6.6l-3.3,6.6c0,0,1.9-6.2,2-6.5c0.1-0.3-2.9,6.9-2.9,6.9l2.6-8.8L163,47l1.6-6.3
			l-2,6.4l1.4-5.1l-2,5.4l1.3-5.4c0,0-1.4,3.8-1.9,5.2c0,0.1-0.1,0.1-0.1,0.2c0-0.2,0.1-0.4,0.2-0.7l0.6-1.3c0-0.2,0.1-0.5,0.1-0.7
			c-0.1,0.3-0.2,0.5-0.4,0.8c0.4-1.7,1-3.6,1-3.6l-0.7,1.7l0.5-1.5l0-0.1l-1.2,3.2l-0.7,1.7l0.3-1.7l0.9-3.4l-0.7,2.2l0.2-0.9
			c0,0-0.3,0.9-0.7,1.9l0.7-2.9c0,0-0.6,2.2-1.2,4.1c-0.2,0.4-0.3,0.8-0.5,1.2c0.4-1.9,1.2-5.2,1.2-5.2l-1.9,6.3l0,0
			c0,0-0.1,0-0.1,0.1l1-5.9l-1.2,6.1l-0.1,0l0.6-5.9l-0.4,2l-0.1-1.4c0,0-0.5,3.8-0.6,4.6c0,0.4-0.2,0.8-0.3,1.1l-0.1,0.1l0.8-6.3
			l-1.4,6.7l0,0l0.9-6.7c0,0-0.4,1.4-0.5,2.1c-0.2,0.7-0.6,2.4-0.6,2.6c0,0.3-0.2,1.8-0.2,1.9c0,0.1,0,0.2,0,0.3l0,0
			c0.1-1.4,0.7-6.8,0.7-6.7c-0.3,0.4-0.9,6.2-0.9,6.9l0,0c0.1-0.7,0.3-6.2,0.3-6.3c0-0.1-0.7,6.6-0.7,6.6l0-5.4l-0.4,5.7
			c0,0,0,0,0,0l-0.1-4.9l-0.3,5.2l0,0l-0.3-4.8l-0.3,5.3l0,0l-0.3-5.4l-0.2,5.7l0,0c-0.1-0.7-0.8-4.9-0.8-5.1c0-0.2,0.2,4.3,0.2,5.5
			l0,0l-1-6.7l0.6,7l0,0l-1-4.6l0.7,4.8l0,0l-0.7-3.7l0.3,4l0,0l-0.9-3.8c0,0,0.3,3,0.4,4.2l0,0c-0.2-1.2-0.8-4.1-0.8-4.1l0.1,4.3
			l-0.8-2.9c0,0,0.2,2.5,0.2,3.9c-1.1,1-2.1,2.1-2.9,3c-1.8,2.3-3.5,5.6-3.5,5.6l0.2,0.8c0,0,2.7-4.8,4.1-6.6c1.3-1.6,1.9-2,2-2.2
			c0,0,0,0.1,0,0.1l0,0c-0.3,0.8-1.8,4.9-1.8,4.9l2.1-4.9c0,0-1.1,5.1-1,5C149.6,60.4,151,55.6,151,55.6z"/>
		
			<linearGradient id="SVGID_21_" gradientUnits="userSpaceOnUse" x1="7245.3042" y1="38.176" x2="7283.2651" y2="60.9853" gradientTransform="matrix(-1 0 0 1 7430.5527 0)">
			<stop  offset="0" style="stop-color:#AAB643"/>
			<stop  offset="0.24" style="stop-color:#A0AE3E"/>
			<stop  offset="0.7" style="stop-color:#567737"/>
			<stop  offset="1" style="stop-color:#1D421D"/>
		</linearGradient>
		<path fill-rule="evenodd" clip-rule="evenodd" fill="url(#SVGID_21_)" d="M169.7,50.5C169.7,50.6,169.7,50.6,169.7,50.5
			c0,0.2-0.1,0.2-0.1,0.2c-1-0.2-2-0.4-3-0.4l0.1-0.2c0.5,0,1,0.1,1.5,0.1l-0.1,0.1l0.1-0.1C168.7,50.3,169.2,50.4,169.7,50.5
			C169.7,50.5,169.7,50.5,169.7,50.5L169.7,50.5C169.6,50.6,169.6,50.6,169.7,50.5L169.7,50.5z M166.7,50.1c-0.2,0-0.4,0-0.6,0
			l-0.1,0.1l0.1-0.1c-0.8,0-1.6,0.1-2.4,0.2l0,0l0,0c-8.6,1.2-16,8.1-16,8.1l0,0v0l0,0h0l0,0l0,0l0,0l0,0c0,0,0,0.1,0,0.2
			c0,0,0.1,0.1,0.2,0c0,0,9.1-8.5,18.8-8.2L166.7,50.1z"/>
		
			<linearGradient id="SVGID_22_" gradientUnits="userSpaceOnUse" x1="7310.0493" y1="84.0232" x2="7307.8926" y2="53.1797" gradientTransform="matrix(-1 0 0 1 7430.5527 0)">
			<stop  offset="0" style="stop-color:#AAB643"/>
			<stop  offset="0.22" style="stop-color:#A0AE3E"/>
			<stop  offset="0.62" style="stop-color:#567737"/>
			<stop  offset="1" style="stop-color:#1D421D"/>
		</linearGradient>
		<path fill-rule="evenodd" clip-rule="evenodd" fill="url(#SVGID_22_)" d="M136.8,59l0.8,4l-0.9-3.7c0,0,0.3,3.6,0.3,3.5
			c-0.1-0.1-0.5-3.6-0.5-3.6l-0.7,4.1l0.3-4.1l-0.6,4l0.2-4.1l-0.5,4.2l0.2-4l-0.4,4.3l0.1-4.1l-0.3,4.2l0-4.2l-0.5,4.5l0.3-4.4
			l-0.6,4.2l0.4-4.1l-1.1,4.7l0.8-4.7l-1.1,4.5l0.2-1.3l-0.4,1.1l0.8-4.2l-1.3,4.5l0.9-4.6l-1.3,4.6l0.7-3.2l-1,3.2l0.5-2.7
			l-0.7,2.5l0.9-4.8l-1.3,4.9l0.7-4.5l-1.4,4.8l1-5.2l-1.6,5.4l0.6-2.8l-0.9,3l1.1-5.4L129,65l1-5.6l-1.6,6l1-5.3l-1.4,5.5l1.2-6
			l-1.8,6.4l1-5.3l-1.6,5.5l1.2-5l-1.5,5.2l0.9-5l-1.2,5.3l1.3-6.1l-1.6,6.1l1.3-6.6l-1.6,6.6l1.3-6.9l-1.8,7.2l1.3-6.9l-1.9,7.6
			l1.4-7.4l-1.7,7.4l1.4-7.9l-2,8.5l1.7-8.1l-1.7,6.8c0,0-0.1-0.8,0-1.6c0.2-0.7,1.2-5.7,1.2-5.7l-2.3,9.7l1.9-10c0,0-2,6.9-2.1,7.8
			c-0.1,0.9-1.3,2-1.3,2s1.2-2.2,1.4-3.5c0.1-1.3,1.1-6.2,1.1-6.2s-2.1,7.4-2.4,8.3c-0.4,0.9-1.4,2.1-1.4,2.1s1.1-1.3,1.7-3.6
			c0.6-2.3,1.4-6.2,1.4-6.2s-2.2,7.3-2.5,8.2c-0.3,0.9-0.9,1.3-0.9,1.3s0.9-1.2,0.9-2.3c0-1.2,0.2-2.1,0.2-2.1l-0.9,3.6l1.3-8.2
			l-1.9,9.5l0.2-2.3l-0.8,2.5c0,0,0.7-2.7,0.5-4.4c-0.2-1.7,0.2-5.7,0.2-6c0-0.3-0.3-0.4-0.4-0.3c-0.1,0.1,0.1,5.2,0,5.9
			c-0.1,0.7-0.8,5.3-0.8,5.3s0.5-4.5,0.4-5.3c0-0.8,0.1-5.6,0.1-5.6s-0.2-0.2-0.2,0c-0.1,0.2-0.3,5.3-0.4,5.9c-0.1,0.7,0,4.7,0,4.7
			s-0.1-8.4,0.1-9.2c0.1-0.8-0.1-1.3-0.1-1.3s-0.2,5.2-0.3,6.5c-0.1,1.3,0,4.6,0,4.6s-0.2-5.6-0.4-5.7c-0.2-0.2-0.1,6.3-0.1,6.3
			l-0.5-4.9l0.1,4.7L114.8,61l1.1,11l-1.5-9.5l1.3,9.3c0,0-1.3-8.1-1.6-8.4c-0.3-0.3-0.1-2-0.2-2c-0.1-0.1-0.3,0.1-0.3,0.1l1.5,11.1
			l-1.7-10l1,10.6l-2-9.6l1.3,9.8l-0.7-2.9l-1.3-6.7l1.7,9.7l-2.3-9.8l1.6,8.9l-2-8.9c0,0-0.3,0-0.2,0.3c0.1,0.3,1.3,7.9,1.3,8.5
			c0,0.6,0,1.5,0,1.5s-0.9-5.5-1.1-6.1c-0.2-0.6-0.7-3.1-0.7-3.3c0-0.2-0.2,0.2-0.2,0.3c0,0.2,0.8,8,0.9,8.6c0.1,0.7,0,1.5,0,1.5
			s-0.4-2.4-0.5-2.5c-0.1-0.1,0.2,1.8,0.1,2.2c-0.1,0.4-0.3,1-0.3,1s0.2-1.1,0.1-1.8c-0.1-0.6-1.7-7.5-1.7-7.5s1.4,7.7,1.5,8
			c0,0.3-0.1,1.2-0.1,1.2s-0.2-2.2-0.5-3.1c-0.3-0.9-0.9-4.2-0.9-4.5c-0.1-0.4-0.3-1.2-0.3-1.2s0.9,5.4,1,6.1c0.1,0.6,0.5,2,0.5,2
			s-1-1.9-1.1-2.3c-0.1-0.3-0.9-4.8-0.9-4.8s0,1,0,1.2c0,0.3,0.6,4.1,0.7,4.5c0,0.4,0.6,2.9,0.6,2.9s-0.8-1.9-0.9-2.7
			c-0.1-0.8-0.4-1.6-0.5-2.6c-0.1-1-0.2-3-0.2-3s-0.1,3.8,0.1,4.3c0.3,0.6,0.8,3.1,0.9,3.5c0.1,0.4,0,0.6,0,0.6s-0.6-2.7-1-3.7
			c-0.4-1-0.4-3.2-0.4-3.6c0-0.5,0-0.6,0-0.6s-0.5,1.7-0.4,2c0.1,0.3,1,3.6,1.1,4.1c0.1,0.5,0.2,1.3,0.2,1.3s-0.7-2.8-0.9-3.4
			c-0.2-0.6-0.6-2.1-0.6-2.6c0-0.4,0.3-1,0.3-1s-0.4,0.3-0.4,0.6c0,0.3,0.1,1.8,0.1,2.1c0,0.3,0.4,4.2,0.4,4.2s-0.3-1.4-0.4-2
			c-0.1-0.5-0.2-3.8-0.3-3.9c-0.1-0.1-0.2,1.4-0.2,1.9c0,0.4,0.2,3.2,0.2,3.2s-0.2-3.8-0.3-4.1c-0.1-0.3-0.1-0.2-0.1,0.1
			c0,0.3-0.3,3.8-0.3,3.8s0-1.6,0-2.1c0-0.5,0-1.2,0-1.2l-0.6,2.5L105,72c0,0-0.8,1.4-0.9,1.9c-0.2,0.5-0.3,1.1-0.3,1.1
			s0-0.9,0.5-1.9c0.5-1,0.6-1.2,0.6-1.2s-1,1.3-1.2,1.6c-0.2,0.3-0.2,0.3-0.2,0.3l1.9-2.7l0.2-0.5l-2.9,3.5l3-3.8l0.2-0.4L103,73
			l2.7-3.3l0.4-0.5l-2.9,3.1c0,0,1.6-1.9,2.1-2.5c0.5-0.5,1-0.9,1-0.9s-1.6,1.4-1.9,1.6c-0.2,0.2-1,0.8-1,0.8s1.5-1.6,1.9-2
			c0.4-0.4,1.2-0.9,1.2-0.9s-2.2,1.6-2.9,2.1c-0.7,0.5-2,1.2-2,1.2s2.5-1.6,2.9-2c0.4-0.4,2.4-1.8,2.4-1.8s0.2-0.3-0.2-0.2
			c-0.4,0.1-5.7,3.8-5.8,3.9c-0.1,0.1,2.9-2.4,3.1-2.5c0.1-0.1,1.9-1.3,1.9-1.3s-5.5,2.8-5.8,3c-0.3,0.2,4.5-2.5,4.7-2.7
			c0.2-0.1,1.2-0.7,1.2-0.7s-3.9,1.9-4.8,2.3c-0.9,0.4-2.2,1-2.2,1s4-2,4.7-2.5c0.7-0.5,3.9-2.2,3.9-2.2s-3.3,1.5-4.6,1.9
			c-1.3,0.4-4.2,2.1-4.2,2.1s3.6-2.1,4.9-2.8c1.3-0.7,5.3-2.1,5.3-2.1s-2.1,0.7-4.4,1.4c-2.2,0.8-5.9,2.5-5.9,2.5s4.3-2.1,4.4-2.1
			c0.1-0.1,5.4-2.3,5.5-2.4c0.1-0.1,0.2-0.2,0.2-0.2l-10.3,2.9l11.8-3.6l-9.8,0.9l9.9-1.2l0.4-0.1l-9.3,0.4l9.6-0.8l-8.3-0.2l8.6,0
			c0,0-7.3-0.4-7.8-0.4c-0.5,0.1-0.7,0.1-0.7,0.1s0.5-0.4,3.4-0.4c2.9,0,5.2,0.4,5.2,0.4l0.2-0.1c0,0-4.7-0.5-5.7-0.6
			c-1,0-2.2,0.1-2.2,0.1s2.5-0.5,5.3-0.1c2.8,0.4,3,0.3,3,0.3s-5.7-0.9-6.2-1c-0.5-0.1-1.4-0.1-1.4-0.1s0.6-0.2,2.5,0
			c1.9,0.2,5.2,0.7,5.2,0.7l0.3-0.1l-6.6-1.1c0,0,4.4,0.6,5.2,0.7c0.8,0.1,2.2,0.1,2.2,0.1l-7.8-1.2c0,0,6.2,0.6,7,0.7
			c0.8,0.1,1.3,0.1,1.3,0.1s-6.9-1.5-7.1-1.5c-0.2,0,5.9,0.9,6.3,1.1c0.4,0.1,1.3,0.1,1.3,0.1l-7-2l7.4,1.9l-6.5-2.5l6.6,2.3
			l-6.1-2.6c0,0,6.2,2.3,6.7,2.4c0.5,0.1-6.2-2.7-6.2-2.7l6.9,2.4l-5.8-3l6.1,2.9l-5.4-3.3l1.8,0.9l-1-0.9c0,0,3.4,1.9,4.1,2.3
			c0.7,0.4,1.6,0.6,1.6,0.6l-5.8-3.4l6.3,2.9l-5.9-3.3c0,0,1.4,0.5,2.1,0.8c0.7,0.3,2.3,0.9,2.5,1.1c0.2,0.2,1.6,0.9,1.7,0.9
			c0.1,0.1,0.6,0.3,0.6,0.3s-6.1-3.7-6.1-3.6c0.6,0.1,6,3.3,6.2,3.4c0.1,0.1-5.1-3.5-5.2-3.6c-0.1-0.1,5.7,3.4,5.7,3.4l-4.2-3.3
			l5.1,3.3l-4-3.3l4.5,3.1l-3.7-3.4l4.6,3.1l-4.1-3.6l4.7,3.4c0,0-3.3-3.6-3.5-3.8c-0.2-0.2,4.4,3.7,4.4,3.7l-4.6-5.1l5.3,5l-3-3.8
			l3.5,3.7l-2.6-3.1l3.2,3l-2.6-3.3c0,0,2.2,2.1,3.1,2.9c0.1,0,0.1,0.1,0.1,0.1c-0.1-0.1-0.2-0.2-0.3-0.4l-0.9-0.7
			c-0.1-0.1-0.2-0.3-0.3-0.4c0.2,0.1,0.4,0.3,0.5,0.4c-0.8-1-1.8-2.2-1.8-2.2l1.1,0.9l-0.9-0.9l0,0l2,1.8l1.1,0.9l-0.7-1l-1.7-2
			l1.1,1.3l-0.4-0.6c0,0,0.5,0.5,1.1,1.1l-1.4-1.8c0,0,1.1,1.3,2.1,2.4c0.3,0.2,0.5,0.4,0.8,0.6c-0.9-1.2-2.4-3.1-2.4-3.1l3.3,3.7
			l0,0c0,0,0.1,0,0.1,0l-2.4-3.8l2.6,3.8l0.1,0l-2-3.9l0.8,1.2l-0.3-1c0,0,1.5,2.5,1.7,3c0.1,0.3,0.4,0.5,0.5,0.7l0.2,0l-2.3-4.1
			l3,4.1h0l-2.5-4.3c0,0,0.7,0.8,1,1.3c0.3,0.4,1.1,1.4,1.2,1.6c0.1,0.2,0.7,1.1,0.7,1.2c0,0,0.1,0.1,0.1,0.2l0,0
			c-0.5-0.9-2.4-4.5-2.4-4.4c0.3,0.2,2.4,4,2.6,4.5l0,0c-0.2-0.5-1.8-4.2-1.9-4.3c0-0.1,2.3,4.3,2.3,4.3l-1.3-3.8l1.9,3.8
			c0,0,0,0,0,0l-1.1-3.5l1.6,3.5l0,0l-0.9-3.5l1.6,3.6l0,0l-1.1-3.8l1.6,3.9l0,0c-0.1-0.5-0.6-3.7-0.6-3.8c0-0.2,0.9,3,1.2,3.9l0,0
			l-0.8-5l1.2,5.1l0,0l-0.3-3.5l0.6,3.6l0,0l-0.3-2.9l0.7,2.9l0.1,0l-0.2-3c0,0,0.5,2.2,0.7,3.1l0.1,0c-0.1-0.9-0.3-3.2-0.3-3.2l1,3
			l0-2.3c0,0,0.4,1.8,0.8,2.8c1.2,0.3,2.5,0.6,3.4,1c2.3,0.9,4.7,2.6,4.7,2.6l0,0.6c0,0-3.7-2.3-5.4-3.1c-1.6-0.7-2.2-0.7-2.4-0.7
			c0,0,0,0.1,0.1,0.1l0,0c0.4,0.5,2.9,2.7,2.9,2.7l-3.1-2.6c0,0,2.3,3.2,2.2,3.1C139.3,61.8,136.8,59,136.8,59z"/>
		
			<linearGradient id="SVGID_23_" gradientUnits="userSpaceOnUse" x1="7285.8682" y1="72.097" x2="7268.3892" y2="79.1589" gradientTransform="matrix(-1 0 0 1 7430.5527 0)">
			<stop  offset="0" style="stop-color:#7E7E78"/>
			<stop  offset="1" style="stop-color:#ACA8A0"/>
		</linearGradient>
		<path fill-rule="evenodd" clip-rule="evenodd" fill="url(#SVGID_23_)" d="M143.2,71.5c0.7-2.9,2-5.7,1.8-7.7
			c-0.1-0.9,3.1-1.8,1.9-1c-0.3,0.2-0.7,2.9-1.4,6.4c-0.9,4.1-2,8.2-3.4,12.4c0.1-1.4,1.1-5.3,1.1-8.4
			C143.2,70.1,143.2,72.1,143.2,71.5z"/>
		
			<linearGradient id="SVGID_24_" gradientUnits="userSpaceOnUse" x1="7321.8262" y1="59.8796" x2="7292.3989" y2="44.8856" gradientTransform="matrix(-1 0 0 1 7430.5527 0)">
			<stop  offset="0" style="stop-color:#AAB643"/>
			<stop  offset="0.22" style="stop-color:#A0AE3E"/>
			<stop  offset="0.52" style="stop-color:#567737"/>
			<stop  offset="1" style="stop-color:#1D421D"/>
		</linearGradient>
		<path fill-rule="evenodd" clip-rule="evenodd" fill="url(#SVGID_24_)" d="M140.5,54.5l-1.7,5.2l1.3-4.9c0,0-1.8,4.4-1.8,4.3
			c0-0.2,1.7-4.6,1.7-4.6l-2.9,4.3l2.7-4.6l-2.8,4.3l2.6-4.7l-2.8,4.6l2.5-4.6l-2.8,4.7l2.5-4.7l-2.7,4.7l2.4-5l-3,4.9l2.8-4.9
			l-3,4.5l2.7-4.5l-3.7,4.8l3.4-5l-3.5,4.6l0.9-1.4l-1,1.1l3.1-4.5l-3.7,4.5l3.4-4.8l-3.8,4.6l2.4-3.3l-2.7,3.1l2-2.8l-2.1,2.4
			l3.5-5l-4,5l3.2-4.8l-3.9,4.7l3.9-5.4l-4.5,5.4l2.2-2.9l-2.5,2.9l4-5.7l-4.5,5.7l4.1-5.9l-4.9,6l4-5.6l-4.4,5.5l4.5-6.3l-5.3,6.4
			l3.9-5.6l-4.5,5.5l3.9-5.1l-4.3,5.1l3.7-5.3l-4.1,5.4l4.6-6.4l-4.9,6.2l4.9-6.9l-5.2,6.7l5.1-7.2l-5.7,7.3l5.1-7.3l-6,7.7l5.4-7.8
			l-5.8,7.6l5.8-8.4l-6.6,8.7l6.1-8.5l-5.4,7c0,0,0.4-1.1,0.9-1.8c0.6-0.8,4.3-5.9,4.3-5.9l-7.6,10l7.4-10.5c0,0-5.7,6.8-6.3,7.8
			c-0.6,1-2.3,1.6-2.3,1.6s2.3-1.8,3.2-3.3c0.9-1.4,4.5-6.6,4.5-6.6s-6.1,7.4-6.9,8.2c-0.8,0.8-2.4,1.5-2.4,1.5s1.6-0.8,3.5-3.2
			c1.9-2.4,4.8-6.4,4.8-6.4s-6.1,7.2-6.9,8c-0.8,0.9-1.5,0.9-1.5,0.9s1.4-0.8,2.1-2.1c0.7-1.3,1.4-2.3,1.4-2.3l-2.9,3.7l5.8-8.8
			l-7.1,9.9l1.5-2.6l-2.1,2.4c0,0,2.1-2.7,2.9-4.8c0.8-2.1,3.5-6.6,3.7-6.9c0.2-0.3,0-0.7-0.2-0.6c-0.2,0.1-2.9,6.1-3.4,6.9
			c-0.5,0.8-3.8,5.7-3.8,5.7s3-5,3.4-5.9c0.4-1,3.3-6.4,3.3-6.4s0-0.4-0.2-0.2c-0.2,0.2-3.3,6-3.7,6.7c-0.4,0.7-2.8,5.5-2.8,5.5
			s4.8-9.9,5.4-10.8c0.6-0.9,0.7-1.5,0.7-1.5s-3.2,6-4,7.4c-0.8,1.4-2.6,5.3-2.6,5.3s3-6.7,3-7c-0.1-0.3-3.8,7.3-3.8,7.3l2.4-6
			l-2.7,5.6l4.7-12.7l-5.4,13.5l4.2-12l-4.2,11.6c0,0,3.5-10.3,3.5-10.9c0-0.6,1.1-2.3,1-2.5c0-0.2-0.3-0.1-0.3-0.1l-5.1,13.8
			l4.3-12.8l-5.2,13l3.9-12.5l-4.5,12.2l1.1-3.8l2.7-8.6L112,56.9l3.7-12.8l-3.8,11.4l3.4-11.7c0,0-0.2-0.2-0.4,0.2
			c-0.1,0.4-3.4,10-3.8,10.8c-0.4,0.7-0.8,1.8-0.8,1.8s2.4-7.1,2.6-7.9c0.2-0.8,1.2-4,1.3-4.3c0.1-0.3-0.3,0-0.4,0.2
			c-0.1,0.2-3.9,9.8-4.2,10.7c-0.3,0.9-0.9,1.8-0.9,1.8s1-3,1-3.3c0-0.2-0.8,2.2-1.2,2.6c-0.3,0.4-0.9,0.9-0.9,0.9s0.8-1.2,1.1-2
			c0.3-0.8,2.9-9.8,2.9-9.8s-3.2,9.9-3.4,10.3c-0.2,0.4-0.8,1.4-0.8,1.4s1.1-2.6,1.4-3.9c0.3-1.2,1.7-5.4,1.8-5.9
			c0.1-0.5,0.4-1.6,0.4-1.6s-2.3,6.9-2.6,7.7c-0.3,0.8-0.7,2.7-0.7,2.7s0.3-2.9,0.4-3.4c0.1-0.5,2-6.2,2-6.2s-0.5,1.1-0.7,1.5
			c-0.2,0.3-1.8,5.2-2,5.6c-0.2,0.5-1.1,3.8-1.1,3.8s0.5-2.7,0.8-3.7c0.4-1,0.6-2.1,1.1-3.4c0.5-1.3,1.6-3.7,1.6-3.7
			s-2.3,4.3-2.4,5.2c-0.1,0.8-1.1,4.1-1.2,4.6c-0.2,0.6-0.4,0.7-0.4,0.7s1.1-3.6,1.3-4.9c0.2-1.4,1.5-3.9,1.8-4.5
			c0.3-0.5,0.4-0.7,0.4-0.7s-1.4,1.6-1.5,2.1c-0.1,0.4-1.2,4.9-1.4,5.5c-0.2,0.7-0.6,1.6-0.6,1.6s1-3.8,1.2-4.5
			c0.2-0.8,0.7-2.9,1-3.4c0.3-0.5,0.8-1,0.8-1s-0.5,0.1-0.7,0.4c-0.2,0.3-1,2.1-1.1,2.5c-0.1,0.4-2.1,5.2-2.1,5.2s0.6-1.9,0.8-2.5
			c0.2-0.7,2-4.6,2-4.8c0-0.1-1,1.5-1.2,2.1c-0.2,0.5-1.7,3.8-1.7,3.8s2-4.6,2.1-5c0.1-0.4,0-0.3-0.2,0c-0.2,0.3-2.4,4.3-2.4,4.3
			s0.9-1.8,1.2-2.5c0.3-0.6,0.7-1.4,0.7-1.4l-2,2.6l1.6-2.3c0,0-1.5,1.1-1.9,1.6c-0.4,0.5-0.9,1.1-0.9,1.1s0.5-1,1.5-1.9
			c1-0.9,1.2-1.1,1.2-1.1s-1.6,0.9-1.9,1.1c-0.3,0.2-0.3,0.2-0.3,0.2l3.2-1.9l0.5-0.4l-4.5,2.2l4.7-2.6l0.4-0.3l-4.2,1.9l4.2-2.2
			l0.7-0.4l-4.3,1.8c0,0,2.5-1.3,3.2-1.6c0.7-0.3,1.4-0.5,1.4-0.5s-2.2,0.6-2.5,0.7c-0.3,0.1-1.3,0.4-1.3,0.4s2.2-0.9,2.8-1.2
			c0.6-0.2,1.6-0.4,1.6-0.4s-2.8,0.5-3.7,0.6c-0.9,0.1-2.5,0.2-2.5,0.2s3.1-0.4,3.7-0.6c0.6-0.2,3.1-0.6,3.1-0.6s0.4-0.3-0.1-0.3
			c-0.4-0.1-7.1,0.9-7.2,0.9c-0.1,0,3.9-1,4.1-1c0.2,0,2.4-0.3,2.4-0.3s-6.4-0.1-6.7-0.1c-0.3,0,5.4-0.2,5.6-0.2
			c0.2,0,1.5-0.1,1.5-0.1s-4.4-0.2-5.5-0.3c-1-0.1-2.5-0.2-2.5-0.2s4.6,0.1,5.5,0c0.9-0.1,4.7-0.2,4.7-0.2s-3.7-0.3-5.1-0.6
			c-1.4-0.3-4.9-0.1-4.9-0.1s4.3-0.3,5.9-0.3c1.5,0,5.7,0.8,5.7,0.8s-2.2-0.6-4.6-1.1c-2.4-0.5-6.6-0.7-6.6-0.7s4.9,0.2,5,0.2
			c0.1,0,6,0.6,6.2,0.6c0.2,0,0.3-0.2,0.3-0.2l-10.6-3l12.3,3.2l-9-5l9.2,4.8l0.4,0.1l-8.3-5.2l8.7,5l-7-5.4l7.4,5.3
			c0,0-6-5-6.5-5.3c-0.4-0.2-0.7-0.3-0.7-0.3s0.6-0.1,3.1,1.6c2.5,1.8,4.2,3.7,4.2,3.7l0.3,0c0,0-3.7-3.5-4.6-4.2
			c-0.9-0.7-1.9-1.2-1.9-1.2s2.4,1,4.6,3.2c2.2,2.2,2.4,2.3,2.4,2.3s-4.4-4.6-4.8-5c-0.4-0.4-1.2-0.9-1.2-0.9s0.6,0.2,2.1,1.6
			c1.5,1.4,4.1,4,4.1,4l0.3,0l-5.1-5.4c0,0,3.4,3.4,4.1,4c0.7,0.6,1.8,1.4,1.8,1.4l-6-6.2c0,0,5,4.5,5.6,5.2c0.6,0.6,1,0.9,1,0.9
			s-5.1-6-5.3-6.2c-0.2-0.2,4.5,4.7,4.8,5.2c0.3,0.4,1.1,0.9,1.1,0.9l-4.8-6.7l5.2,6.8l-4.1-6.9l4.4,6.8l-3.8-6.8c0,0,4,6.5,4.4,6.9
			c0.4,0.4-3.8-7-3.8-7l4.5,7.1l-3.3-7.1l3.6,7.2l-2.8-7.2l1.1,2.2l-0.4-1.7c0,0,1.8,4.3,2.2,5.2c0.4,0.9,1,1.7,1,1.7l-3.1-7.5
			l3.8,7.3l-3.2-7.5c0,0,0.9,1.5,1.3,2.2c0.4,0.8,1.4,2.5,1.5,2.9c0.1,0.4,0.9,2,0.9,2.1c0,0.2,0.3,0.7,0.3,0.7s-3.2-8.2-3.1-8
			c0.5,0.4,3.3,7.6,3.4,7.8c0,0.2-2.4-7.3-2.4-7.5c0-0.2,2.9,7.5,2.9,7.5l-1.7-6.4l2.5,7l-1.6-6.4l2.1,6.4l-1.3-6.2l2.2,6.4
			l-1.5-6.7l2.1,6.8c0,0-0.7-6.3-0.8-6.6c-0.1-0.3,1.7,7.1,1.7,7.1l-1-8.9l1.7,9.1l-0.4-6.3l0.9,6.5l-0.4-5.2l1,5.5l-0.3-5.5
			c0,0,1.1,6.1,1.1,5.9c0-0.3-0.5-6-0.5-6l1.2,5.1l-0.1-3.9c0,0,0.9,4.9,1.4,5.5c0.5,0.6,0.7,0.7,1.3,1.2c0.6,0.5,0.4,0.3,1.1,1
			c0.7,0.7,0.2,0.1,1.3,1.2c1.1,1.1,4.5,4.8,5.9,7.3c1.4,2.5,2.6,5.9,2.6,5.9l-0.3,0.8c0,0-1.8-5-2.9-7c-1.1-2-1.6-2.3-1.7-2.4
			c-0.1-0.1,0.9,5.1,0.9,5.1l-1.2-5c0,0,0.1,5.1,0.1,5C141,59.3,140.5,54.5,140.5,54.5z"/>
		
			<linearGradient id="SVGID_25_" gradientUnits="userSpaceOnUse" x1="7317.7871" y1="62.069" x2="7288.3589" y2="34.6267" gradientTransform="matrix(-1 0 0 1 7430.5527 0)">
			<stop  offset="0" style="stop-color:#AAB643"/>
			<stop  offset="0.22" style="stop-color:#A0AE3E"/>
			<stop  offset="0.52" style="stop-color:#567737"/>
			<stop  offset="1" style="stop-color:#1D421D"/>
		</linearGradient>
		<path fill-rule="evenodd" clip-rule="evenodd" fill="url(#SVGID_25_)" d="M139.3,58.1l0-0.1l-0.5,1.7L139.3,58.1L139.3,58.1z
			 M139.1,57.5c-0.4,0.9-0.7,1.7-0.7,1.7c0-0.1,0.3-0.9,0.7-1.8L139.1,57.5L139.1,57.5z M138.7,56.5l-0.1-0.2l-1.5,2.6L138.7,56.5
			L138.7,56.5z M138.6,56.1l-0.1-0.3l-1.5,2.8L138.6,56.1L138.6,56.1z M138.4,55.7l-0.1-0.2l-1.6,3L138.4,55.7L138.4,55.7z
			 M138.3,55.4l-1.9,3.2l1.8-3.5L138.3,55.4L138.3,55.4z M138.2,55.1l-2,3.5l1.9-3.8L138.2,55.1L138.2,55.1z M138,54.7l-2.3,3.9
			l2.3-4L138,54.7L138,54.7z M137.9,54.5l-2.4,3.6l2.3-3.8L137.9,54.5L137.9,54.5z M137.7,54.2l-3.2,4.2l3.1-4.5
			C137.6,54,137.7,54.1,137.7,54.2L137.7,54.2z M137.6,53.9l-3.2,4.1l0.9-1.4l-1,1.1l3.1-4.3C137.4,53.5,137.5,53.7,137.6,53.9
			L137.6,53.9z M137.3,53.4l-3.6,4.3l3.4-4.8C137.1,53.1,137.2,53.2,137.3,53.4L137.3,53.4z M133.2,57.5l2.4-3.3l-2.7,3.1l2-2.8
			l-2.1,2.4l3.5-5l-4,5l3.2-4.8l-3.9,4.7l3.9-5.4l-4.5,5.4l2.2-2.9l-2.5,2.9l4-5.7l-4.5,5.7l4.1-5.9l-4.9,6l4-5.6l-4.4,5.5l4.5-6.3
			l-5.3,6.4l3.9-5.6l-4.5,5.5l3.9-5.1l-4.3,5.1l3.7-5.3l-4.1,5.4l4.6-6.4l-4.9,6.2l4.9-6.9l-5.2,6.7l5.1-7.2l-5.7,7.3l5.1-7.3
			l-6,7.7l5.4-7.8l-5.8,7.6l5.8-8.4l-6.6,8.7l6.1-8.5l-5.4,7c0,0,0.4-1.1,0.9-1.8c0.6-0.8,4.3-5.9,4.3-5.9l-7.6,10l7.4-10.5
			c0,0-5.7,6.8-6.3,7.8c-0.6,1-2.3,1.6-2.3,1.6s2.3-1.8,3.2-3.3c0.9-1.4,4.5-6.6,4.5-6.6s-6.1,7.4-6.9,8.2c-0.8,0.8-2.4,1.5-2.4,1.5
			s1.6-0.8,3.5-3.2c1.9-2.4,4.8-6.4,4.8-6.4s-6.1,7.2-6.9,8c-0.8,0.9-1.5,0.9-1.5,0.9s1.4-0.8,2.1-2.1c0.7-1.3,1.4-2.3,1.4-2.3
			l-2.9,3.7l5.8-8.8l-7.1,9.9l1.5-2.6l-2.1,2.4c0,0,2.1-2.7,2.9-4.8c0.8-2.1,3.5-6.6,3.7-6.9c0.2-0.3,0-0.7-0.2-0.6
			c-0.2,0.1-2.9,6.1-3.4,6.9c-0.5,0.8-3.8,5.7-3.8,5.7s3-5,3.4-5.9c0.4-1,3.3-6.4,3.3-6.4s0-0.4-0.2-0.2c-0.2,0.2-3.3,6-3.7,6.7
			c-0.4,0.7-2.8,5.5-2.8,5.5s4.8-9.9,5.4-10.8c0.6-0.9,0.7-1.5,0.7-1.5s-3.2,6-4,7.4c-0.8,1.4-2.6,5.3-2.6,5.3s3-6.7,3-7
			c-0.1-0.3-3.8,7.3-3.8,7.3l2.4-6l-2.7,5.6l4.7-12.7l-5.4,13.5l4.2-12l-4.2,11.6c0,0,3.5-10.3,3.5-10.9c0-0.6,1.1-2.3,1-2.5
			c0-0.2-0.3-0.1-0.3-0.1l-5.1,13.8l4.3-12.8l-5.2,13l3.9-12.5l-4.5,12.2l1.1-3.8l2.7-8.6L112,56.9l3.7-12.8l-3.8,11.4l3.4-11.7
			c0,0-0.2-0.2-0.4,0.2c-0.1,0.4-3.4,10-3.8,10.8c-0.4,0.7-0.8,1.8-0.8,1.8s2.4-7.1,2.6-7.9c0.2-0.8,1.2-4,1.3-4.3
			c0.1-0.3-0.3,0-0.4,0.2c-0.1,0.2-3.9,9.8-4.2,10.7c-0.3,0.9-0.9,1.8-0.9,1.8s1-3,1-3.3c0-0.2-0.8,2.2-1.2,2.6
			c-0.3,0.4-0.9,0.9-0.9,0.9s0.8-1.2,1.1-2c0.3-0.8,2.9-9.8,2.9-9.8s-3.2,9.9-3.4,10.3c-0.2,0.4-0.8,1.4-0.8,1.4s1.1-2.6,1.4-3.9
			c0.3-1.2,1.7-5.4,1.8-5.9c0.1-0.5,0.4-1.6,0.4-1.6s-2.3,6.9-2.6,7.7c-0.3,0.8-0.7,2.7-0.7,2.7s0.3-2.9,0.4-3.4
			c0.1-0.5,2-6.2,2-6.2s-0.5,1.1-0.7,1.5c-0.2,0.3-1.8,5.2-2,5.6c-0.2,0.5-1.1,3.8-1.1,3.8s0.5-2.7,0.8-3.7c0.4-1,0.6-2.1,1.1-3.4
			c0.5-1.3,1.6-3.7,1.6-3.7s-2.3,4.3-2.4,5.2c-0.1,0.8-1.1,4.1-1.2,4.6c-0.2,0.6-0.4,0.7-0.4,0.7s1.1-3.6,1.3-4.9
			c0.2-1.4,1.5-3.9,1.8-4.5c0.3-0.5,0.4-0.7,0.4-0.7s-1.4,1.6-1.5,2.1c-0.1,0.4-1.2,4.9-1.4,5.5c-0.2,0.7-0.6,1.6-0.6,1.6
			s1-3.8,1.2-4.5c0.2-0.8,0.7-2.9,1-3.4c0.3-0.5,0.8-1,0.8-1s-0.5,0.1-0.7,0.4c-0.2,0.3-1,2.1-1.1,2.5c-0.1,0.4-2.1,5.2-2.1,5.2
			s0.6-1.9,0.8-2.5c0.2-0.7,2-4.6,2-4.8c0-0.1-1,1.5-1.2,2.1c-0.2,0.5-1.7,3.8-1.7,3.8s2-4.6,2.1-5c0.1-0.4,0-0.3-0.2,0
			c-0.2,0.3-2.4,4.3-2.4,4.3s0.9-1.8,1.2-2.5c0.3-0.6,0.7-1.4,0.7-1.4l-2,2.6l1.6-2.3c0,0-1.5,1.1-1.9,1.6c-0.4,0.5-0.9,1.1-0.9,1.1
			s0.5-1,1.5-1.9c1-0.9,1.2-1.1,1.2-1.1s-1.6,0.9-1.9,1.1c-0.3,0.2-0.3,0.2-0.3,0.2l3.2-1.9l0.5-0.4l-4.5,2.2l4.7-2.6l0.4-0.3
			l-4.2,1.9l4.2-2.2l0.7-0.4l-4.3,1.8c0,0,2.5-1.3,3.2-1.6c0.7-0.3,1.4-0.5,1.4-0.5s-2.2,0.6-2.5,0.7c-0.3,0.1-1.3,0.4-1.3,0.4
			s2.2-0.9,2.8-1.2c0.6-0.2,1.6-0.4,1.6-0.4s-2.8,0.5-3.7,0.6c-0.1,0-0.2,0-0.3,0l0.5-0.2c0.4-0.1,0.8-0.1,1-0.2
			c0.6-0.2,3.1-0.6,3.1-0.6s0.4-0.3-0.1-0.3c-0.1,0-0.8,0-1.7,0.2c1.5-0.6,3.1-1.2,4.8-1.8l0.4,0.1l-0.3-0.1
			c3.3-1.1,6.8-1.8,9.7-1.6l0.1,0.1l0-0.1c0.4,0,0.8,0.1,1.1,0.1l0.1,0.1l0-0.1c0.2,0,0.3,0.1,0.5,0.1c5.8,1.4,10.2,4.9,13.1,9.9
			L133.2,57.5z"/>
		
			<linearGradient id="SVGID_26_" gradientUnits="userSpaceOnUse" x1="7260.0742" y1="19.6385" x2="7289.7637" y2="51.4766" gradientTransform="matrix(-1 0 0 1 7430.5527 0)">
			<stop  offset="0" style="stop-color:#AAB643"/>
			<stop  offset="0.13" style="stop-color:#A0AE3E"/>
			<stop  offset="0.25" style="stop-color:#8C9F3A"/>
			<stop  offset="0.78" style="stop-color:#567737"/>
			<stop  offset="1" style="stop-color:#1D421D"/>
		</linearGradient>
		<path fill-rule="evenodd" clip-rule="evenodd" fill="url(#SVGID_26_)" d="M145.3,52.2l4.2,3.2l-3.8-3.1c0,0,3.9,2.5,3.8,2.3
			c-0.1-0.1-3.9-2.6-3.9-2.6l4.8,1.7l-4.7-2.1l4.7,1.7l-4.7-2.2l4.8,2l-4.5-2.2l4.9,2.1l-4.6-2.3l4.8,2.2l-4.7-2.5l5.1,2.1l-5-2.2
			l4.9,1.8l-4.7-2l5.6,1.6l-5.5-1.9l5.3,1.5l-1.4-0.6l1.4,0.2l-5-1.6l5.5,1.3l-5.4-1.7l5.6,1.4L149,49l3.9,0.8l-3.2-1l3,0.7
			l-5.6-1.9l6,1.6l-5.3-1.9l5.8,1.4l-6.1-2l6.6,1.6l-3.4-1l3.6,0.8l-6.4-2.1l6.8,1.8l-6.6-2.2l7.3,1.8l-6.3-2.1l6.6,1.8l-7.1-2.3
			l7.8,1.9l-6.3-2.1l6.7,1.6l-6-1.7l6.3,1.5l-5.9-2l6.3,1.8l-7.3-2.3l7.4,1.9l-7.8-2.6l7.9,2.2l-8.1-2.7l8.6,2.4l-8.2-2.7l9.1,2.5
			l-8.7-2.9l8.9,2.6l-9.3-3.2l10.1,2.9l-9.7-3l8.2,2.3c0,0-0.9-0.6-1.8-0.9c-0.9-0.3-6.8-2.1-6.8-2.1l11.7,3.4l-11.8-3.9
			c0,0,8.4,2,9.4,2.4c1,0.4,2.7-0.1,2.7-0.1s-2.9,0-4.4-0.6s-7.3-2.6-7.3-2.6s9,2.2,10.1,2.3c1.1,0.1,2.8-0.3,2.8-0.3
			s-1.8,0.4-4.6-0.4c-2.8-0.8-7.4-2.2-7.4-2.2s8.9,2,10.1,2.2c1.1,0.2,1.7-0.2,1.7-0.2s-1.6,0.3-2.9-0.4c-1.3-0.6-2.4-1-2.4-1
			l4.3,1.2l-9.6-3.5l11.2,3.6l-2.7-1.2l3,0.7c0,0-3.2-0.8-5-2.1c-1.8-1.3-6.5-3.1-6.8-3.3c-0.3-0.2-0.4-0.6-0.2-0.6
			c0.2,0,5.8,3.1,6.6,3.5c0.9,0.3,6.2,2.2,6.2,2.2s-5.2-2.1-6.1-2.7c-0.9-0.5-6.2-3.1-6.2-3.1s-0.2-0.3,0.1-0.3c0.3,0,6,2.8,6.7,3.1
			c0.8,0.3,5.3,2.7,5.3,2.7s-9.3-5-10.3-5.4c-1-0.3-1.4-0.8-1.4-0.8s5.9,2.8,7.3,3.5c1.5,0.6,5.1,2.7,5.1,2.7s-6.1-3.5-6.3-3.8
			c-0.1-0.3,7.1,3.6,7.1,3.6l-5.3-3.4l5.3,2.9l-10.8-7.4l11.9,7.6l-10-7.1l9.8,6.8c0,0-8.5-6.1-8.8-6.6c-0.3-0.5-2.1-1.2-2.2-1.4
			c-0.1-0.1,0.2-0.3,0.2-0.3l11.8,8l-10.5-7.7l11.4,7.3l-10-7.7l10.4,7.1l-2.9-2.4l-7-5.3l10.2,7.5l-10-8.1l9.3,6.9l-9.2-7.4
			c0,0,0.1-0.3,0.4,0c0.3,0.2,8.3,6,9,6.4c0.7,0.3,1.7,0.9,1.7,0.9s-5.8-4.2-6.4-4.8c-0.6-0.5-3.2-2.6-3.4-2.7
			c-0.3-0.2,0.3-0.2,0.4-0.1c0.2,0.1,8.6,5.5,9.3,6c0.7,0.5,1.7,0.9,1.7,0.9s-2.5-1.8-2.6-2c-0.1-0.2,1.9,1.2,2.4,1.3
			c0.5,0.1,1.2,0.2,1.2,0.2s-1.3-0.5-2-0.9c-0.7-0.4-7.7-6.1-7.7-6.1s8.1,6,8.4,6.2c0.3,0.2,1.4,0.7,1.4,0.7s-2.3-1.5-3.3-2.3
			c-0.9-0.8-4.4-3.3-4.7-3.6c-0.4-0.3-1.2-1.1-1.2-1.1s5.7,4.2,6.4,4.6c0.7,0.4,2,1.7,2,1.7s-1.8-2.2-2.1-2.5c-0.3-0.3-5-3.8-5-3.8
			s1.1,0.6,1.4,0.7c0.3,0.1,4.3,3,4.8,3.3c0.4,0.3,3,2.4,3,2.4s-1.9-1.9-2.7-2.5c-0.9-0.6-1.6-1.3-2.7-2.1c-1.1-0.7-3.3-2-3.3-2
			s4.3,2.1,4.8,2.7c0.5,0.6,3.1,2.6,3.6,3c0.4,0.4,0.7,0.3,0.7,0.3s-2.8-2.2-3.8-3.2c-0.9-1-3.4-2.3-3.9-2.5
			c-0.5-0.3-0.7-0.3-0.7-0.3s2,0.5,2.4,0.7c0.3,0.3,3.7,3.2,4.2,3.6c0.5,0.4,1.4,0.9,1.4,0.9s-2.9-2.4-3.4-3
			c-0.6-0.5-2.2-1.8-2.7-2.1c-0.5-0.2-1.2-0.3-1.2-0.3s0.5-0.2,0.8-0.1c0.3,0.1,2,1.1,2.3,1.3c0.3,0.2,4.5,2.9,4.5,2.9
			s-1.5-1.2-2-1.6c-0.6-0.4-4.2-2.5-4.3-2.6c-0.1-0.1,1.7,0.6,2.1,0.9c0.5,0.3,3.5,2,3.5,2s-4.2-2.5-4.4-2.8
			c-0.3-0.3-0.2-0.2,0.2-0.1c0.3,0.2,4.4,2,4.4,2s-1.7-0.9-2.3-1.3c-0.6-0.3-1.3-0.7-1.3-0.7l3,0.9l-2.5-0.9c0,0,1.8,0,2.4,0.1
			c0.6,0.1,1.3,0.3,1.3,0.3s-1-0.5-2.2-0.6c-1.3-0.1-1.6-0.1-1.6-0.1s1.8-0.3,2.2-0.3c0.4,0,0.4-0.1,0.4-0.1l-3.7,0.4l-0.6,0l4.9-1
			l-5.3,0.9l-0.5,0l4.5-1l-4.6,0.9l-0.8,0.1l4.4-1.2c0,0-2.7,0.5-3.5,0.7c-0.8,0.2-1.4,0.5-1.4,0.5s2.1-0.9,2.4-1
			c0.3-0.1,1.3-0.5,1.3-0.5s-2.3,0.6-2.9,0.8c-0.6,0.2-1.5,0.7-1.5,0.7s2.6-1.4,3.3-1.8c0.8-0.5,2.1-1.4,2.1-1.4s-2.7,1.7-3.3,1.8
			c-0.6,0.2-2.8,1.4-2.8,1.4s-0.4,0-0.1-0.3c0.3-0.3,6.3-3.7,6.4-3.7c0.1-0.1-3.7,1.7-3.9,1.7c-0.2,0.1-2.1,1.2-2.1,1.2
			s5.1-4.1,5.4-4.2c0.3-0.2-4.5,3.2-4.6,3.3c-0.2,0.1-1.3,0.9-1.3,0.9s3.5-2.9,4.2-3.7c0.8-0.7,1.9-1.7,1.9-1.7s-3.7,2.9-4.5,3.4
			c-0.8,0.5-3.9,2.8-3.9,2.8s2.8-2.6,3.8-3.6c0.9-1.1,3.9-3.1,3.9-3.1s-3.7,2.4-4.9,3.4c-1.2,1-4.2,4.2-4.2,4.2s1.5-1.8,3.1-3.7
			c1.6-1.9,5-4.7,5-4.7s-3.8,3.2-3.9,3.3c-0.1,0.1-4.5,4.3-4.6,4.3c-0.1,0.1-0.3,0-0.3,0l6.9-9l-8.2,10.2l4.6-9.6l-4.8,9.6l-0.3,0.4
			l3.8-9.4l-4.3,9.5l2.7-8.7l-3.1,8.9c0,0,2.1-7.8,2.3-8.3c0.2-0.5,0.4-0.7,0.4-0.7s-0.6,0.3-1.6,3.3c-1,3-1.4,5.6-1.4,5.6l-0.2,0.2
			c0,0,1.1-5.2,1.4-6.3c0.4-1.1,0.9-2.2,0.9-2.2s-1.4,2.3-2,5.5c-0.5,3.2-0.7,3.3-0.7,3.3s1-6.5,1.1-7c0.1-0.6,0.4-1.5,0.4-1.5
			s-0.4,0.5-0.8,2.6c-0.4,2.1-1.1,5.8-1.1,5.8l-0.3,0.3l1.2-7.5c0,0-0.9,4.9-1.1,5.8c-0.2,0.9-0.7,2.3-0.7,2.3l1.5-8.8
			c0,0-1.5,6.8-1.7,7.7c-0.2,0.9-0.3,1.4-0.3,1.4s0.8-8,0.8-8.3c0-0.3-1.1,6.6-1,7.2c0,0.5-0.3,1.4-0.3,1.4l0.2-8.4l-0.5,8.8
			l-0.5-8.2l0.2,8.2l-0.7-7.9c0,0,0.3,7.8,0.3,8.4c-0.1,0.6-0.8-8.1-0.8-8.1l0.2,8.6l-1.2-7.8l1.1,8.1l-1.7-7.6l0.3,2.4l-0.6-1.6
			c0,0,0.9,4.6,1.1,5.6c0.2,1,0.1,2,0.1,2l-1.6-8l1,8.2l-1.6-8.1c0,0,0.1,1.8,0.2,2.6c0.1,0.9,0.2,2.9,0.4,3.2
			c0.1,0.3,0.4,2.1,0.4,2.3c0,0.2,0.2,0.8,0.2,0.8s-1.9-8.6-1.9-8.5c-0.1,0.6,1.5,8.2,1.6,8.4c0.1,0.2-2.1-7.4-2.2-7.5
			c-0.1-0.2,1.8,7.9,1.8,7.9l-2.2-6.2l1.8,7.2l-2.3-6.1l1.8,6.5l-2.4-5.8l1.8,6.5l-2.5-6.4l2.1,6.8c0,0-2.9-5.6-3-5.8
			c-0.1-0.3,2.6,6.8,2.6,6.8l-4.1-7.8l3.7,8.4l-3.2-5.4l2.9,5.8l-2.5-4.5l2.2,5.1l-2.8-4.6c0,0,2.5,5.7,2.4,5.4
			c-0.1-0.2-2.9-5.1-2.9-5.1l1.8,4.9l-2.1-3.2c0,0,2,4.5,1.9,5.4c-0.1,0.8-0.2,1-0.4,1.8c-0.2,0.7-0.2,0.5-0.4,1.5
			c-0.2,1-0.1,0.2-0.4,1.8c-0.3,1.6-1,6.7-0.8,9.6c0.2,2.9,1.2,6.3,1.2,6.3l0.7,0.4c0,0-1.3-5.2-1.5-7.5c-0.2-2.3,0.1-2.8,0-3
			c0-0.2,2.1,4.7,2.1,4.7l-1.8-4.8c0,0,2.7,4.2,2.6,4.1C147.5,56.4,145.2,52.3,145.3,52.2z"/>
		
			<linearGradient id="SVGID_27_" gradientUnits="userSpaceOnUse" x1="7283.2065" y1="96.4218" x2="7283.2065" y2="58.2601" gradientTransform="matrix(-1 0 0 1 7430.5527 0)">
			<stop  offset="0" style="stop-color:#AAB643"/>
			<stop  offset="0.21" style="stop-color:#567737"/>
			<stop  offset="1" style="stop-color:#1D421D"/>
		</linearGradient>
		<path fill-rule="evenodd" clip-rule="evenodd" fill="url(#SVGID_27_)" d="M151.6,65.1l-0.5-0.2c1.1,0.6,2.4,1.3,2.4,1.3
			S152.5,65.7,151.6,65.1L151.6,65.1z M149.8,64.3c1.1,0.7,3.9,2.4,3.9,2.4l-3.6-1.8l3.3,2l-7.6-3.5l8.1,4.1l-7.2-3.2l7,3.2
			c0,0-6.2-2.7-6.5-2.7c-0.4,0-1.4-0.8-1.5-0.8c-0.1,0-0.1,0.2-0.1,0.2l8.3,3.9l-7.7-3.3l7.8,3.9l-7.6-3l7.3,3.4l-2.3-0.9l-5.2-2.1
			l7.5,3.2l-7.8-2.9l6.8,2.9l-7.1-2.7c0,0-0.1,0.1,0.1,0.2c0.2,0.1,6,2.6,6.5,2.9c0.4,0.3,1.1,0.6,1.1,0.6s-4.2-1.8-4.7-2
			c-0.5-0.2-2.4-0.9-2.6-1c-0.2-0.1,0,0.2,0.1,0.3c0.1,0.1,5.9,2.9,6.4,3.1c0.5,0.2,1,0.6,1,0.6s-1.8-0.8-2-0.8
			c-0.1,0,1.3,0.6,1.5,0.9c0.2,0.2,0.5,0.6,0.5,0.6s-0.7-0.6-1.2-0.8c-0.5-0.2-5.9-2.3-5.9-2.3s6,2.5,6.2,2.6
			c0.2,0.1,0.8,0.5,0.8,0.5s-1.6-0.8-2.3-1.1c-0.8-0.2-3.3-1.3-3.6-1.4c-0.3-0.1-1-0.3-1-0.3s4.2,1.8,4.6,2c0.5,0.2,1.6,0.6,1.6,0.6
			s-1.8-0.3-2.1-0.4c-0.3-0.1-3.7-1.5-3.7-1.5s0.7,0.4,0.9,0.5c0.2,0.1,3.1,1.4,3.4,1.5c0.3,0.1,2.3,0.9,2.3,0.9s-1.7-0.4-2.3-0.7
			s-1.3-0.5-2-0.8c-0.8-0.4-2.2-1.2-2.2-1.2s2.6,1.7,3.1,1.8c0.5,0.1,2.5,0.9,2.8,1c0.3,0.1,0.4,0.3,0.4,0.3s-2.1-0.8-3-1
			c-0.8-0.2-2.4-1.1-2.7-1.3c-0.3-0.2-0.4-0.3-0.4-0.3s0.9,1,1.2,1.1c0.3,0.1,3,1,3.4,1.2c0.4,0.2,1,0.5,1,0.5s-2.3-0.8-2.8-0.9
			c-0.5-0.1-1.7-0.6-2-0.8c-0.3-0.2-0.6-0.6-0.6-0.6s0.1,0.3,0.2,0.5c0.2,0.1,1.3,0.7,1.5,0.8c0.2,0.1,3.1,1.6,3.1,1.6
			s-1.1-0.4-1.5-0.6c-0.4-0.2-2.8-1.5-2.8-1.5c-0.1,0,0.9,0.7,1.2,0.9c0.3,0.2,2.3,1.3,2.3,1.3s-2.7-1.5-3-1.5c-0.2-0.1-0.2,0,0,0.1
			c0.2,0.1,2.5,1.7,2.5,1.7s-1.1-0.7-1.5-0.9c-0.4-0.2-0.8-0.5-0.8-0.5l1.5,1.4l-1.3-1.1c0,0,0.6,1,0.9,1.3c0.3,0.3,0.6,0.6,0.6,0.6
			s-0.6-0.4-1.1-1c-0.5-0.7-0.6-0.8-0.6-0.8s0.4,1.1,0.5,1.3c0.1,0.2,0.1,0.2,0.1,0.2l-1-2.1l-0.2-0.3l1.1,3l-1.3-3.1l-0.2-0.3
			l0.9,2.8l-1.1-2.8l-0.2-0.5l0.8,2.8c0,0-0.6-1.6-0.8-2.1c-0.1-0.5-0.2-0.9-0.2-0.9s0.2,1.4,0.3,1.6c0.1,0.2,0.1,0.9,0.1,0.9
			s-0.4-1.4-0.5-1.8c-0.1-0.4-0.1-1-0.1-1s0.1,1.8,0.1,2.4c0,0.6-0.1,1.6-0.1,1.6s0-2-0.1-2.4c-0.1-0.4-0.2-2-0.2-2s-0.1-0.2-0.2,0
			c-0.1,0.3,0.1,4.6,0.1,4.7c0,0.1-0.3-2.5-0.3-2.6c0-0.1,0-1.5,0-1.5s-0.5,4-0.5,4.3c0,0.2,0.3-3.4,0.3-3.6c0-0.1,0.1-1,0.1-1
			s-0.5,2.8-0.6,3.5c-0.2,0.7-0.3,1.6-0.3,1.6s0.4-2.9,0.4-3.5c0-0.6,0.2-3,0.2-3s-0.5,2.4-0.7,3.2c-0.3,0.9-0.4,3.1-0.4,3.1
			s0.1-2.8,0.3-3.7c0.1-1,0.9-3.6,0.9-3.6s-0.5,1.4-1,2.9c-0.5,1.5-0.9,4.2-0.9,4.2s0.5-3.1,0.5-3.2c0-0.1,0.8-3.8,0.8-3.9
			c0-0.1-0.1-0.2-0.1-0.2l-2.6,6.6l2.9-7.7l-3.8,5.5l3.6-5.7l0.1-0.3l-3.9,5l3.8-5.4l-3.9,4.2l3.8-4.5c0,0-3.6,3.6-3.8,3.9
			c-0.2,0.3-0.2,0.4-0.2,0.4s0-0.4,1.3-1.9c1.3-1.5,2.6-2.5,2.6-2.5l0-0.2c0,0-2.5,2.2-3,2.8c-0.5,0.5-0.9,1.2-0.9,1.2
			s0.8-1.5,2.3-2.8c1.6-1.3,1.6-1.4,1.6-1.4s-3.2,2.6-3.5,2.8c-0.3,0.2-0.7,0.7-0.7,0.7s0.2-0.4,1.2-1.3c1-0.9,2.8-2.4,2.8-2.4
			l0.1-0.2l-3.7,3c0,0,2.4-2,2.8-2.4c0.4-0.4,1-1.1,1-1.1l-4.3,3.6c0,0,3.2-3,3.6-3.3c0.4-0.4,0.7-0.6,0.7-0.6s-4.1,3-4.2,3.1
			c-0.1,0.1,3.3-2.7,3.6-2.8c0.3-0.2,0.7-0.6,0.7-0.6l-4.5,2.8l4.6-3l-4.6,2.3l4.6-2.5l-4.5,2.1c0,0,4.4-2.3,4.7-2.5
			c0.3-0.2-4.7,2.1-4.7,2.1l4.5-2.4L149.8,64.3L149.8,64.3z M145.2,62.4l-0.2-0.1l-4.1,1.7L145.2,62.4L145.2,62.4z M145,62.3
			l-0.6-0.2c-0.9,0.3-3.1,1.1-3.1,1.1l1.1-0.2l-1.4,0.6L145,62.3L145,62.3z M144.1,61.9l-0.4-0.2l-2.9,1.2L144.1,61.9L144.1,61.9z
			 M143.5,61.6l-0.4-0.2c-0.3,0.1-0.6,0.3-0.9,0.4c-0.5,0.2-1.5,0.7-1.5,0.7L143.5,61.6L143.5,61.6z M142.9,61.4
			c-1.1,0.4-2.1,0.7-2.1,0.7c0.1-0.1,1-0.4,1.9-0.8L142.9,61.4L142.9,61.4z M141.1,61.5c0,0,0.5-0.2,1.2-0.4l0.1,0.1
			C141.7,61.3,141.1,61.5,141.1,61.5z"/>
		
			<linearGradient id="SVGID_28_" gradientUnits="userSpaceOnUse" x1="7323.4307" y1="61.8465" x2="7294.3423" y2="79.3246" gradientTransform="matrix(-1 0 0 1 7430.5527 0)">
			<stop  offset="0" style="stop-color:#AAB643"/>
			<stop  offset="0.22" style="stop-color:#A0AE3E"/>
			<stop  offset="0.42" style="stop-color:#567737"/>
			<stop  offset="1" style="stop-color:#1D421D"/>
		</linearGradient>
		<path fill-rule="evenodd" clip-rule="evenodd" fill="url(#SVGID_28_)" d="M140.6,60.1c0,0,3.1,1.2,3.2,1.3c0.1,0.1-3-1.7-3.1-1.7
			c-2.8,1.4-8.3,5-11.9,12.2c0,0,0,0.1,0,0.1c0.1,0.3,1.9,4.7,3,6.2c1,1.6,2,4.7,2,4.7l-0.8-3l1.1,2.4l-3.6-10.7l3.4,9.1l-1.3-4.2
			c0,0,0.4,1.1,1,2.2c0.6,1.2,0.6,2.9,0.6,2.9s0.2-0.7-0.1-1.8c-0.3-1.1-2.6-9.9-2.6-9.9s1.5,4.4,2.3,7.2c0.8,2.7,0.8,4.7,0.8,4.7
			s0.1-1.9-0.1-3c-0.2-1.1-2.7-9.9-2.7-9.9s1.9,5.5,2.5,6.9c0.6,1.4,0.9,4.4,0.9,4.4s0.2-1.9-0.2-2.9c-0.4-0.9-2.6-9.1-2.6-9.1
			l3.9,11.3l-3.5-11.2c0,0,1.9,5.6,2.2,6.5c0.3,0.8,0.8,1.6,0.8,1.6l-2.4-8l3.1,9.2l-3-9.8l3.2,8.9l-2.7-8.6l2.9,8.3l-2.6-8.8
			l2.7,7.8l-2.5-8.3l2.7,7.8l-2.3-7.6l2.6,7.4l-2.1-7.1l2.3,7l-1.9-6.1l2,5.6l-1.7-6.1l1.8,5.8l-1.8-6.5l2.1,6l-2.1-7.6l2.3,6.8
			l-1.9-6.4l2.1,6l-2-7.1l2.2,6.3l-1.9-6.6l2.1,6.1l-0.9-3.6l1.1,3.2l-1.8-6.5l2,5.9l-1.6-5.7l1.8,5l-1.7-5.8l1.9,5.4l-0.8-2.9l1,3
			l-1-3.9l1.2,3.6l-1.5-5.5l1.8,5.2l-1.5-5.4l1.7,4.8l-0.3-1.4l0.5,1.4l-1.6-5.2l1.9,5.2l-1.7-5.4l1.8,4.4l-1.7-4.6l2.1,4.6l-2-4.8
			l2.2,4.3l-2-4.4l2.1,4.2l-2-4.5l2,4.2l-1.9-4.5l2,4.3l-1.7-4.4l1.9,4.3l-1.6-4.5c0,0,2.1,3.3,2.2,3.4c0.1,0.1-2-3.3-2-3.3l2.5,3.1
			L140.6,60.1L140.6,60.1z M128.6,72.4c0.6,1.2,2.6,4.9,2.9,5.6c0.3,0.8,2.2,5.8,2.2,5.8s-2-4.8-2.5-5.6c-0.4-0.7-2.4-4.8-2.7-5.5
			L128.6,72.4L128.6,72.4z M128.4,72.9c0.5,1.1,2.5,5.3,2.7,5.9c0.3,0.7,2.4,4.8,2.4,4.8s-4.4-8.4-4.7-9.3c-0.2-0.5-0.4-0.9-0.5-1.1
			C128.3,73.2,128.3,73,128.4,72.9L128.4,72.9z M128.2,73.3c0.5,1.1,2.5,5.3,3,6.5c0.6,1.4,2.4,4.6,2.4,4.6s-3-5.5-3.2-5.5
			c-0.2,0,3.2,6.4,3.2,6.4l-2.9-4.6l2.5,4.7l-6.1-9.1C127.5,75.2,127.8,74.3,128.2,73.3L128.2,73.3z M127.1,76.3l6.3,10.2l-5.9-8.6
			l5.7,8.5c0,0-5.1-7.3-5.4-7.5c-0.2-0.1-0.7-1-0.9-1.5C126.9,77,127,76.6,127.1,76.3L127.1,76.3z M126.7,77.8l6.4,9.7l-6.3-9
			l6.2,10l-6.3-8.5l5.9,9l-1.9-2.5l-4.3-5.9l6.2,8.7l-6.5-8.2C126.2,79.9,126.5,78.8,126.7,77.8L126.7,77.8z M126.1,81.1l5.6,7.8
			l-5.6-7.3C126,81.5,126,81.3,126.1,81.1L126.1,81.1z M125.9,82.1c1.1,1.5,4.7,6.8,5,7.3c0.3,0.7,0.8,1.5,0.8,1.5s-3.5-5-3.9-5.5
			c-0.3-0.4-1.5-1.8-2-2.5C125.9,82.6,125.9,82.3,125.9,82.1L125.9,82.1z M125.8,83.4c-0.1,0.8-0.1,1.6-0.1,2.4
			c0.9,1.2,4.4,5.6,4.7,6.2c0.4,0.6,0.8,1.9,0.8,1.9s-0.2-0.7-0.3-1.2c-0.1-0.5-1.3-2.2-1.2-2.1c0.1,0.1,1.7,2.2,1.7,2.2
			s-0.4-0.9-0.8-1.5C130.3,90.6,126.7,84.8,125.8,83.4L125.8,83.4z M125.7,85.8c0,0.2,0,0.4,0,0.6c0.2,0.2,0.5,0.5,0.6,0.7
			c0.2,0.3,2.3,3.2,3,4c0.7,0.8,1.9,2.8,1.9,2.8s-0.4-1-0.6-1.3C130.4,92.4,126.7,87.1,125.7,85.8L125.7,85.8z M125.7,86.4
			c0,0.3,0,0.6,0,0.8l0,0.2c0.5,0.6,2.8,3.9,3,4.1c0.3,0.3,1.9,1.6,1.9,1.6s-1-1.1-1.4-1.7C128.9,91,126.4,87.5,125.7,86.4
			L125.7,86.4z M125.7,87.5l0,0.6c0.3,0.6,1.1,1.9,1.6,2.6c0.6,1,1.2,1.6,1.7,2.3c0.5,0.7,2,2.2,2,2.2s-1.7-2.2-1.9-2.5
			c-0.2-0.4-2.6-3.8-2.8-4.1C126.1,88.4,125.8,87.8,125.7,87.5L125.7,87.5z M125.7,88.2c0,0.2,0,0.4,0,0.6l0.2,0.4
			c0.2,0.5,1.4,2.7,2.1,3.4c0.8,0.7,2.6,3.1,2.6,3.1s0-0.3-0.3-0.7c-0.3-0.4-1.9-2.5-2.4-2.9C127.5,91.9,126.1,89.2,125.7,88.2
			L125.7,88.2z M125.7,89c0,0.3,0,0.6,0,0.9c0,0.2,0.1,0.4,0.2,0.6c0.2,0.4,1.3,1.8,1.7,2.2c0.4,0.4,2.4,2.8,2.4,2.8
			s-0.5-0.8-0.8-1.2c-0.3-0.5-2.7-3.2-2.9-3.5C126.2,90.7,125.9,89.6,125.7,89L125.7,89z M125.7,90.4l0,0.4c0.3,0.5,1.8,3.3,2.2,3.7
			c0.3,0.5,1.3,1.7,1.3,1.7s-2.3-3.7-2.4-4C126.6,92,126,90.9,125.7,90.4L125.7,90.4z M125.8,91c0.2,0.5,0.6,1.4,0.8,1.7
			c0.2,0.4,1.8,3.1,1.8,3.1s-2.1-3.7-2.3-3.9c-0.2-0.2-0.2-0.1,0,0.2c0.1,0.3,1.8,4,1.8,4s-0.8-1.6-1.1-2.1
			c-0.3-0.5-0.6-1.2-0.6-1.2l0.9,2.9l-0.9-2.4c0,0,0.2,1.9,0.3,2.5c0.2,0.6,0.4,1.3,0.4,1.3s-0.4-0.9-0.6-2.2
			c-0.2-1.3-0.2-1.6-0.2-1.6l0,0.6c0-0.3,0-0.6-0.1-0.9l0-0.9l-0.1-0.3C125.8,91.6,125.8,91.3,125.8,91L125.8,91z M143.3,60.1
			L143.3,60.1l-2.5-0.4c0.1-0.1,0.3-0.1,0.4-0.2C141.7,59.7,142.6,59.9,143.3,60.1z"/>
	</g>
	<polyline opacity="0.5" fill="#C69C6D" points="135.8,122.6 196,157.2 107.4,208.4 120.4,215.9 224,156 135.8,105.2 32,164.8 
		47,173.5 	"/>
	<polyline fill="#C69C6D" points="47,173.5 136,122.4 136,125.8 49.6,175 	"/>
	<polyline fill="#B78D63" points="136,126 136,122.4 195.9,157.2 192.6,159.2 	"/>
	<polyline fill-rule="evenodd" clip-rule="evenodd" fill="#1EA3D8" points="103.7,206.2 188.3,156.7 192.6,159.1 107.4,208.4 	"/>
</g>
</svg>
