<svg version="1.1" xmlns="http://www.w3.org/2000/svg" xmlns:xlink="http://www.w3.org/1999/xlink" x="0px" y="0px"
	 viewBox="0 0 30 30" enable-background="new 0 0 30 30" xml:space="preserve">
<path fill="#231F20" d="M19.1,9H12V8c0-0.5-0.4-1-1-1c-0.5,0-1,0.5-1,1v1c0,0-1,0.5-1,1v12c0,0.5,0.6,1,1.1,1h9c0.6,0,0.9-0.5,0.9-1
	V10C20,9.5,19.7,9,19.1,9z M12.1,21h-1v-1h1V21z M12.1,19h-1v-1h1V19z M12.1,17h-1v-1h1V17z M14.1,21h-1v-1h1V21z M14.1,19h-1v-1h1
	V19z M14.1,17h-1v-1h1V17z M16.1,21h-1v-1h1V21z M16.1,19h-1v-1h1V19z M16.1,17h-1v-1h1V17z M18.1,21h-1v-1h1V21z M18.1,19h-1v-1h1
	V19z M18.1,17h-1v-1h1V17z M18,15h-7v-4h7V15z"/>
</svg>
