<svg version="1.1" xmlns="http://www.w3.org/2000/svg" xmlns:xlink="http://www.w3.org/1999/xlink" x="0px" y="0px"
	 viewBox="0 0 87 87" enable-background="new 0 0 87 87" xml:space="preserve">
<g>
	<defs>
		<circle id="SVGID_1_" cx="43.5" cy="43.5" r="43.5"/>
	</defs>
	<clipPath id="SVGID_2_">
		<use xlink:href="#SVGID_1_"  overflow="visible"/>
	</clipPath>
	<circle clip-path="url(#SVGID_2_)" fill="#70D551" cx="43.5" cy="43.5" r="43.5"/>
	<path opacity="5.000000e-02" clip-path="url(#SVGID_2_)" d="M93.6,62.2c-0.1-0.1-0.2-0.2-0.2-0.2c-0.1-0.1-0.2-0.2-0.2-0.2
		c-0.1-0.1-0.2-0.2-0.2-0.2c-0.1-0.1-0.2-0.2-0.2-0.2c-0.1-0.1-0.2-0.2-0.2-0.2c-0.1-0.1-0.2-0.2-0.2-0.2c-0.1-0.1-0.2-0.2-0.2-0.2
		c-0.1-0.1-0.2-0.2-0.2-0.2c-0.1-0.1-0.2-0.2-0.2-0.2c-0.1-0.1-0.2-0.2-0.2-0.2c-0.1-0.1-0.2-0.2-0.2-0.2c-0.1-0.1-0.2-0.2-0.2-0.2
		c-0.1-0.1-0.2-0.2-0.2-0.2c-0.1-0.1-0.2-0.2-0.2-0.2c-0.1-0.1-0.2-0.2-0.2-0.2c-0.1-0.1-0.2-0.2-0.2-0.2c-0.1-0.1-0.2-0.2-0.2-0.2
		c-0.1-0.1-0.2-0.2-0.2-0.2c-0.1-0.1-0.2-0.2-0.2-0.2c-0.1-0.1-0.2-0.2-0.2-0.2c-0.1-0.1-0.2-0.2-0.2-0.2c-0.1-0.1-0.2-0.2-0.2-0.2
		c-0.1-0.1-0.2-0.2-0.2-0.2c-0.1-0.1-0.2-0.2-0.2-0.2c-0.1-0.1-0.1-0.1-0.2-0.2c1,0.1,1.9,0.5,2.8,1.1c0,0,0.1,0.1,0.1,0.1
		c0.1,0.1,0.2,0.2,0.2,0.2c0.1,0.1,0.2,0.2,0.2,0.2c0.1,0.1,0.2,0.2,0.2,0.2c0.1,0.1,0.2,0.2,0.2,0.2c0.1,0.1,0.2,0.2,0.2,0.2
		c0.1,0.1,0.2,0.2,0.2,0.2c0.1,0.1,0.2,0.2,0.2,0.2c0.1,0.1,0.2,0.2,0.2,0.2c0.1,0.1,0.2,0.2,0.2,0.2c0.1,0.1,0.2,0.2,0.2,0.2
		c0.1,0.1,0.2,0.2,0.2,0.2c0.1,0.1,0.2,0.2,0.2,0.2c0.1,0.1,0.2,0.2,0.2,0.2c0.1,0.1,0.2,0.2,0.2,0.2c0.1,0.1,0.2,0.2,0.2,0.2
		c0.1,0.1,0.2,0.2,0.2,0.2c0.1,0.1,0.2,0.2,0.2,0.2c0.1,0.1,0.2,0.2,0.2,0.2c0.1,0.1,0.2,0.2,0.2,0.2c0.1,0.1,0.2,0.2,0.2,0.2
		c0.1,0.1,0.2,0.2,0.2,0.2c0.1,0.1,0.2,0.2,0.2,0.2c0.1,0.1,0.2,0.2,0.2,0.2c0.1,0.1,0.2,0.2,0.2,0.2c0.7,0.8,1.7,1.5,2.7,1.5
		c0.4,0,0.8-0.1,1.3-0.4l-1-1.7c0,0-0.1,0-0.1,0l-0.2-0.3c0,0-0.1,0-0.1,0l-0.2-0.3c0,0-0.1,0-0.1,0L98.6,62c0,0-0.1,0-0.1,0
		l-0.2-0.3c0,0-0.1,0-0.1,0l-0.2-0.3c0,0-0.1,0-0.1,0l-0.2-0.3c0,0-0.1,0-0.1,0L97.6,61c0,0-0.1,0-0.1,0l-0.2-0.3c0,0-0.1,0-0.1,0
		l-0.2-0.3c0,0-0.1,0-0.1,0l-0.2-0.3c0,0-0.1,0-0.1,0L96.7,60c0,0-0.1,0-0.1,0l-0.2-0.3c0,0-0.1,0-0.1,0l-0.2-0.3c0,0-0.1,0-0.1,0
		l-0.2-0.3c0,0-0.1,0-0.1,0l-0.2-0.3c0,0-0.1,0-0.1,0l-0.2-0.3c0,0-0.1,0-0.1,0l-0.2-0.3c0,0-0.1,0-0.1,0L95,58.4c0,0-0.1,0-0.1,0
		l-0.2-0.3c0,0-0.1,0-0.1,0l-0.2-0.3c0,0-0.1,0-0.1,0l-0.2-0.3c0,0-0.1,0-0.1,0L94,57.4c0,0-0.1,0-0.1,0l-0.2-0.3c0,0-0.1,0-0.1,0
		l-0.2-0.3c0,0-0.1,0-0.1,0l-0.2-0.3c0,0-0.1,0-0.1,0L93,56.4c0,0-0.1,0-0.1,0l-0.2-0.3c0,0-0.1,0-0.1,0l-0.2-0.3c0,0-0.1,0-0.1,0
		l-0.2-0.3c0,0-0.1,0-0.1,0l-0.2-0.3c0,0-0.1,0-0.1,0l-0.2-0.3c0,0-0.1,0-0.1,0L91.6,55c0,0-0.1,0-0.1,0l-0.2-0.3c0,0-0.1,0-0.1,0
		l-0.2-0.3c0,0-0.1,0-0.1,0l-0.2-0.3c0,0-0.1,0-0.1,0L90.6,54c0,0-0.1,0-0.1,0l-0.2-0.3c0,0-0.1,0-0.1,0l-0.2-0.3c0,0-0.1,0-0.1,0
		l-0.2-0.3c0,0-0.1,0-0.1,0L89.7,53c0,0-0.1,0-0.1,0l-0.2-0.3c0,0-0.1,0-0.1,0l-0.2-0.3c0,0-0.1,0-0.1,0l-0.2-0.3c0,0-0.1,0-0.1,0
		l-0.2-0.3c0,0-0.1,0-0.1,0l-0.2-0.3c0,0-0.1,0-0.1,0l-0.2-0.3c0,0-0.1,0-0.1,0L88,51.3c0,0-0.1,0-0.1,0l-0.2-0.3c0,0-0.1,0-0.1,0
		l-0.2-0.3c0,0-0.1,0-0.1,0l-0.2-0.3c0,0-0.1,0-0.1,0L87,50.4c0,0-0.1,0-0.1,0l-0.2-0.3c0,0-0.1,0-0.1,0l-0.2-0.3c0,0-0.1,0-0.1,0
		l-0.2-0.3c0,0-0.1,0-0.1,0L86,49.4c0,0-0.1,0-0.1,0l-0.2-0.3c0,0-0.1,0-0.1,0L85.6,49c0.5-0.6,1-1.2,1.4-1.9h-0.4
		c0.1-0.1,0.1-0.2,0.2-0.2h-0.4c0.1-0.1,0.1-0.2,0.2-0.2h-0.4c0.1-0.1,0.1-0.2,0.2-0.2h-0.4c0.1-0.1,0.1-0.2,0.2-0.2h-0.4
		c0.1-0.1,0.1-0.2,0.2-0.2h-0.4c0.1-0.1,0.1-0.2,0.2-0.2h-0.4c0.1-0.1,0.1-0.2,0.2-0.2h-0.4c0.1-0.1,0.1-0.2,0.2-0.2h-0.4
		c0.1-0.1,0.1-0.2,0.2-0.2h-0.4c0.1-0.1,0.1-0.2,0.2-0.2h-0.4c0.1-0.1,0.1-0.2,0.2-0.2H84c0.1-0.1,0.1-0.2,0.2-0.2h-0.4
		c0.1-0.1,0.1-0.2,0.2-0.2h-0.4c0.1-0.1,0.1-0.2,0.2-0.2h-0.4c0.1-0.1,0.1-0.2,0.2-0.2H83c0.1-0.1,0.1-0.2,0.2-0.2h-0.4
		c0.1-0.1,0.1-0.2,0.2-0.2h-0.4c0.1-0.1,0.1-0.2,0.2-0.2h-0.4c0.1-0.1,0.1-0.2,0.2-0.2H82c0.1-0.1,0.1-0.2,0.2-0.2h-0.4
		c0.1-0.1,0.1-0.2,0.2-0.2h-0.4c0.1-0.1,0.1-0.2,0.2-0.2h-0.4c0.1-0.1,0.1-0.2,0.2-0.2h-0.4c0.1-0.1,0.1-0.2,0.2-0.2h-0.4
		c0.1-0.1,0.1-0.2,0.2-0.2h-0.4c0.1-0.1,0.1-0.2,0.2-0.2h-0.4c0.1-0.1,0.1-0.2,0.2-0.2h-0.4c0.1-0.1,0.1-0.2,0.2-0.2h-0.4
		c0.1-0.1,0.1-0.2,0.2-0.2h-0.4c0.1-0.1,0.1-0.2,0.2-0.2h-0.4c0.1-0.1,0.1-0.2,0.2-0.2h-0.4c0.1-0.1,0.1-0.2,0.2-0.2h-0.4
		c0.1-0.1,0.1-0.2,0.2-0.2h-0.4c0.1-0.1,0.1-0.2,0.2-0.2h-0.4c0.1-0.1,0.1-0.2,0.2-0.2h-0.4c0.1-0.1,0.1-0.2,0.2-0.2h-0.4
		c0.1-0.1,0.1-0.2,0.2-0.2h-0.4c0.1-0.1,0.1-0.2,0.2-0.2h-0.4c0.1-0.1,0.1-0.2,0.2-0.2h-0.4c0.1-0.1,0.1-0.2,0.2-0.2H77
		c0.1-0.1,0.1-0.2,0.2-0.2h-0.4c0.1-0.1,0.1-0.2,0.2-0.2h-0.4c0.1-0.1,0.1-0.2,0.2-0.2h-0.4c0.1-0.1,0.1-0.2,0.2-0.2H76
		c0.1-0.1,0.1-0.2,0.2-0.2h-0.4c0.1-0.1,0.1-0.2,0.2-0.2h-0.4c0.1-0.1,0.1-0.2,0.2-0.2h-0.4c0.1-0.1,0.1-0.2,0.2-0.2H75
		c0.1-0.1,0.1-0.2,0.2-0.2h-0.4c0.1-0.1,0.1-0.2,0.2-0.2h-0.4c0.1-0.1,0.1-0.2,0.2-0.2h-0.4c0.1-0.1,0.1-0.2,0.2-0.2h-0.4
		c0.1-0.1,0.1-0.2,0.2-0.2h-0.4c0.1-0.1,0.1-0.2,0.2-0.2h-0.4c0.1-0.1,0.1-0.2,0.2-0.2h-0.4c0.1-0.1,0.1-0.2,0.2-0.2h-0.4
		c0.1-0.1,0.1-0.2,0.2-0.2h-0.4c0.1-0.1,0.1-0.2,0.2-0.2h-0.4c0.1-0.1,0.1-0.2,0.2-0.2h-0.4c0.1-0.1,0.1-0.2,0.2-0.2h-0.4
		c0.1-0.1,0.1-0.2,0.2-0.2h-0.4c0.1-0.1,0.1-0.2,0.2-0.2h-0.4c0.1-0.1,0.1-0.2,0.2-0.2h-0.4c0.1-0.1,0.1-0.2,0.2-0.2h-0.4
		c0.1-0.1,0.1-0.2,0.2-0.2h-0.4c0.1-0.1,0.1-0.2,0.2-0.2h-0.4c0.1-0.1,0.1-0.2,0.2-0.2h-0.4c0.1-0.1,0.1-0.2,0.2-0.2h-0.4
		c0.1-0.1,0.1-0.2,0.2-0.2H70c0.1-0.1,0.1-0.2,0.2-0.2h-0.4c0.1-0.1,0.1-0.2,0.2-0.2h-0.4c0.1-0.1,0.1-0.2,0.2-0.2h-0.4
		c0.1-0.1,0.1-0.2,0.2-0.2H69c0.1-0.1,0.1-0.2,0.2-0.2h-0.4c0.1-0.1,0.1-0.2,0.2-0.2h-0.4c0.1-0.1,0.1-0.2,0.2-0.2h-0.4
		c0.1-0.1,0.1-0.2,0.2-0.2H68c0.1-0.1,0.1-0.2,0.2-0.2h-0.4c0.1-0.1,0.1-0.2,0.2-0.2h-0.4c0.1-0.1,0.1-0.2,0.2-0.2h-0.4
		c0.1-0.1,0.1-0.2,0.2-0.2h-0.4c0.1-0.1,0.1-0.2,0.2-0.2h-0.4c0.1-0.1,0.1-0.2,0.2-0.2h-0.4c0.1-0.1,0.1-0.2,0.2-0.2h-0.4
		c0.1-0.1,0.1-0.2,0.2-0.2h-0.4c0.1-0.1,0.1-0.2,0.2-0.2h-0.4c0.1-0.1,0.1-0.2,0.2-0.2h-0.4c0.1-0.1,0.1-0.2,0.2-0.2h-0.4
		c0.1-0.1,0.1-0.2,0.2-0.2h-0.4c0.1-0.1,0.1-0.2,0.2-0.2h-0.4c0.1-0.1,0.1-0.2,0.2-0.2h-0.4c0.1-0.1,0.1-0.2,0.2-0.2h-0.4
		c0.1-0.1,0.1-0.2,0.2-0.2h-0.4c0.1-0.1,0.1-0.2,0.2-0.2h-0.4c0.1-0.1,0.1-0.2,0.2-0.2h-0.4c0.1-0.1,0.1-0.2,0.2-0.2h-0.4
		c0.1-0.1,0.1-0.2,0.2-0.2h-0.4c0.1-0.1,0.1-0.2,0.2-0.2h-0.4c0.1-0.1,0.1-0.2,0.2-0.2h-0.4c0.1-0.1,0.1-0.2,0.2-0.2h-0.4
		c0.1-0.1,0.1-0.2,0.2-0.2h-0.4c0.1-0.1,0.1-0.2,0.2-0.2H62c0.1-0.1,0.1-0.2,0.2-0.2h-0.4c0.1-0.1,0.1-0.2,0.2-0.2h-0.4
		c0.1-0.1,0.1-0.2,0.2-0.2h-0.4c0.1-0.1,0.1-0.2,0.2-0.2H61c0.1-0.1,0.1-0.2,0.2-0.2h-0.4c0.1-0.1,0.1-0.2,0.2-0.2h-0.4
		c0.1-0.1,0.1-0.2,0.2-0.2h-0.4c0.1-0.1,0.1-0.2,0.2-0.2H60c0.1-0.1,0.1-0.2,0.2-0.2h-0.4c0.1-0.1,0.1-0.2,0.2-0.2h-0.4
		c0.1-0.1,0.1-0.2,0.2-0.2h-0.4c0.1-0.1,0.1-0.2,0.2-0.2h-0.4c0.1-0.1,0.1-0.2,0.2-0.2h-0.4c0.1-0.1,0.1-0.2,0.2-0.2h-0.4
		c0.1-0.1,0.1-0.2,0.2-0.2h-0.4c0.1-0.1,0.1-0.2,0.2-0.2h-0.4c0.1-0.1,0.1-0.2,0.2-0.2h-0.4c0.1-0.1,0.1-0.2,0.2-0.2h-0.4
		c0.1-0.1,0.1-0.2,0.2-0.2h-0.4c0.1-0.1,0.1-0.2,0.2-0.2h-0.4c0.1-0.1,0.1-0.2,0.2-0.2h-0.4c0.1-0.1,0.1-0.2,0.2-0.2h-0.4
		c0.1-0.1,0.1-0.2,0.2-0.2h-0.4c0.1-0.1,0.1-0.2,0.2-0.2h-0.4c0.1-0.1,0.1-0.2,0.2-0.2h-0.4c0.1-0.1,0.1-0.2,0.2-0.2h-0.4
		c0.1-0.1,0.1-0.2,0.2-0.2h-0.4c0.1-0.1,0.1-0.2,0.2-0.2h-0.4c0.1-0.1,0.1-0.2,0.2-0.2H55c0.1-0.1,0.1-0.2,0.2-0.2h-0.4
		c0.1-0.1,0.1-0.2,0.2-0.2h-0.4c0.1-0.1,0.1-0.2,0.2-0.2h-0.4c0.1-0.1,0.1-0.2,0.2-0.2H54c0.1-0.1,0.1-0.2,0.2-0.2h-0.4
		c0.1-0.1,0.1-0.2,0.2-0.2h-0.4c0.1-0.1,0.1-0.2,0.2-0.2h-0.4c0.1-0.1,0.1-0.2,0.2-0.2H53c0.1-0.1,0.1-0.2,0.2-0.2h-20
		c0.4,0.7,0.9,1.3,1.5,1.9h0c1.5,1.6,1.8,3.7,1.2,5.5c-0.3,0-0.6-0.1-0.9-0.1l-0.2,2c0,0,0,0,0,0c-0.4,0.5-1,0.9-1.6,1.2
		c-8,3.8-13.5,11.9-13.5,21.3c0,6.6,2.7,12.5,7,16.8c0.1,0.1,0.2,0.2,0.2,0.2c0.1,0.1,0.2,0.2,0.2,0.2c0.1,0.1,0.2,0.2,0.2,0.2
		c0.1,0.1,0.2,0.2,0.2,0.2c0.1,0.1,0.2,0.2,0.2,0.2c0.1,0.1,0.2,0.2,0.2,0.2c0.1,0.1,0.2,0.2,0.2,0.2c0.1,0.1,0.2,0.2,0.2,0.2
		c0.1,0.1,0.2,0.2,0.2,0.2c0.1,0.1,0.2,0.2,0.2,0.2c0.1,0.1,0.2,0.2,0.2,0.2c0.1,0.1,0.2,0.2,0.2,0.2c0.1,0.1,0.2,0.2,0.2,0.2
		c0.1,0.1,0.2,0.2,0.2,0.2c0.1,0.1,0.2,0.2,0.2,0.2c0.1,0.1,0.2,0.2,0.2,0.2c0.1,0.1,0.2,0.2,0.2,0.2c0.1,0.1,0.2,0.2,0.2,0.2
		c0.1,0.1,0.2,0.2,0.2,0.2c0.1,0.1,0.2,0.2,0.2,0.2c0.1,0.1,0.2,0.2,0.2,0.2c0.1,0.1,0.2,0.2,0.2,0.2c0.1,0.1,0.2,0.2,0.2,0.2
		c0.1,0.1,0.2,0.2,0.2,0.2c0.1,0.1,0.2,0.2,0.2,0.2c0.1,0.1,0.2,0.2,0.2,0.2c0.1,0.1,0.2,0.2,0.2,0.2c0.1,0.1,0.2,0.2,0.2,0.2
		c0.1,0.1,0.2,0.2,0.2,0.2c0.1,0.1,0.2,0.2,0.2,0.2c0.1,0.1,0.2,0.2,0.2,0.2c0.1,0.1,0.2,0.2,0.2,0.2c0.1,0.1,0.2,0.2,0.2,0.2
		c0.1,0.1,0.2,0.2,0.2,0.2c0.1,0.1,0.2,0.2,0.2,0.2c0.1,0.1,0.2,0.2,0.2,0.2c0.1,0.1,0.2,0.2,0.2,0.2c0.1,0.1,0.2,0.2,0.2,0.2
		c0.1,0.1,0.2,0.2,0.2,0.2c0.1,0.1,0.2,0.2,0.2,0.2c0.1,0.1,0.2,0.2,0.2,0.2c0.1,0.1,0.2,0.2,0.2,0.2c0.1,0.1,0.2,0.2,0.2,0.2
		c0.1,0.1,0.2,0.2,0.2,0.2c0.1,0.1,0.2,0.2,0.2,0.2c0.1,0.1,0.2,0.2,0.2,0.2c0.1,0.1,0.2,0.2,0.2,0.2c0.1,0.1,0.2,0.2,0.2,0.2
		c0.1,0.1,0.2,0.2,0.2,0.2c0.1,0.1,0.2,0.2,0.2,0.2c0.1,0.1,0.2,0.2,0.2,0.2c0.1,0.1,0.2,0.2,0.2,0.2c0.1,0.1,0.2,0.2,0.2,0.2
		c0.1,0.1,0.2,0.2,0.2,0.2c0.1,0.1,0.2,0.2,0.2,0.2c0.1,0.1,0.2,0.2,0.2,0.2c0.1,0.1,0.2,0.2,0.2,0.2c0.1,0.1,0.2,0.2,0.2,0.2
		c0.1,0.1,0.2,0.2,0.2,0.2c0.1,0.1,0.2,0.2,0.2,0.2c0.1,0.1,0.2,0.2,0.2,0.2c0.1,0.1,0.2,0.2,0.2,0.2c0.1,0.1,0.2,0.2,0.2,0.2
		c0.1,0.1,0.2,0.2,0.2,0.2c0.1,0.1,0.2,0.2,0.2,0.2c0.1,0.1,0.2,0.2,0.2,0.2c0.1,0.1,0.2,0.2,0.2,0.2c0.1,0.1,0.2,0.2,0.2,0.2
		c0.1,0.1,0.2,0.2,0.2,0.2c0.1,0.1,0.2,0.2,0.2,0.2c0.1,0.1,0.2,0.2,0.2,0.2c0.1,0.1,0.2,0.2,0.2,0.2c0.1,0.1,0.2,0.2,0.2,0.2
		c0.1,0.1,0.2,0.2,0.2,0.2c0.1,0.1,0.2,0.2,0.2,0.2c0.1,0.1,0.2,0.2,0.2,0.2c0.1,0.1,0.2,0.2,0.2,0.2c0.1,0.1,0.2,0.2,0.2,0.2
		c0.1,0.1,0.2,0.2,0.2,0.2c0.1,0.1,0.2,0.2,0.2,0.2c0.1,0.1,0.2,0.2,0.2,0.2c0.1,0.1,0.2,0.2,0.2,0.2c0.1,0.1,0.2,0.2,0.2,0.2
		c0.1,0.1,0.2,0.2,0.2,0.2c0.1,0.1,0.2,0.2,0.2,0.2c0.1,0.1,0.2,0.2,0.2,0.2c0.1,0.1,0.2,0.2,0.2,0.2c0.1,0.1,0.2,0.2,0.2,0.2
		c0.1,0.1,0.2,0.2,0.2,0.2c0.1,0.1,0.2,0.2,0.2,0.2c0.1,0.1,0.2,0.2,0.2,0.2c0.1,0.1,0.2,0.2,0.2,0.2c0.1,0.1,0.2,0.2,0.2,0.2
		c0.1,0.1,0.2,0.2,0.2,0.2c0.1,0.1,0.2,0.2,0.2,0.2c0.1,0.1,0.2,0.2,0.2,0.2c0.1,0.1,0.2,0.2,0.2,0.2c0.1,0.1,0.2,0.2,0.2,0.2
		c0.1,0.1,0.2,0.2,0.2,0.2c0.1,0.1,0.2,0.2,0.2,0.2c0.1,0.1,0.2,0.2,0.2,0.2c0.1,0.1,0.2,0.2,0.2,0.2c0.1,0.1,0.2,0.2,0.2,0.2
		c0.1,0.1,0.2,0.2,0.2,0.2c0.1,0.1,0.2,0.2,0.2,0.2c0.1,0.1,0.2,0.2,0.2,0.2c0.1,0.1,0.2,0.2,0.2,0.2c0.1,0.1,0.2,0.2,0.2,0.2
		c0.1,0.1,0.2,0.2,0.2,0.2c0.1,0.1,0.2,0.2,0.2,0.2c0.1,0.1,0.2,0.2,0.2,0.2c0.1,0.1,0.2,0.2,0.2,0.2c0.1,0.1,0.2,0.2,0.2,0.2
		c0.1,0.1,0.2,0.2,0.2,0.2c0.1,0.1,0.2,0.2,0.2,0.2c0.1,0.1,0.2,0.2,0.2,0.2c0.1,0.1,0.2,0.2,0.2,0.2c0.1,0.1,0.2,0.2,0.2,0.2
		c0.1,0.1,0.2,0.2,0.2,0.2c0.1,0.1,0.2,0.2,0.2,0.2c0.1,0.1,0.2,0.2,0.2,0.2c0.1,0.1,0.2,0.2,0.2,0.2c0.1,0.1,0.2,0.2,0.2,0.2
		c0.1,0.1,0.2,0.2,0.2,0.2c0.1,0.1,0.2,0.2,0.2,0.2c0.1,0.1,0.2,0.2,0.2,0.2c0.1,0.1,0.2,0.2,0.2,0.2c0.1,0.1,0.2,0.2,0.2,0.2
		c0.1,0.1,0.2,0.2,0.2,0.2c0.1,0.1,0.2,0.2,0.2,0.2c0.1,0.1,0.2,0.2,0.2,0.2c0.1,0.1,0.2,0.2,0.2,0.2c0.1,0.1,0.2,0.2,0.2,0.2
		c0.1,0.1,0.2,0.2,0.2,0.2c0.1,0.1,0.2,0.2,0.2,0.2c0.1,0.1,0.2,0.2,0.2,0.2c0.1,0.1,0.2,0.2,0.2,0.2c0.1,0.1,0.2,0.2,0.2,0.2
		c0.1,0.1,0.2,0.2,0.2,0.2c4.3,4.3,10.2,7,16.8,7c13,0,23.5-10.5,23.5-23.5C100.6,72.4,97.9,66.5,93.6,62.2z"/>
	<g clip-path="url(#SVGID_2_)">
		<g>
			<g>
				<polygon fill="#FFFFFF" points="46.4,13 42.1,13 42.9,19.2 45.6,19.2 				"/>
			</g>
			<g>
				<path fill="#FFFFFF" d="M47.5,13.5c0,0.5-0.4,1-1,1h-5.1c-0.5,0-1-0.4-1-1v-0.8c0-0.5,0.4-1,1-1h5.1c0.5,0,1,0.4,1,1V13.5z"/>
			</g>
		</g>
		<g>
			<circle fill="#0096EE" cx="44.3" cy="43" r="26.9"/>
		</g>
		<g>
			<circle fill="#FFFFFF" cx="44.3" cy="43" r="22.6"/>
		</g>
		<g>
			<path fill="#FABA3A" d="M45.1,25.2v-2.6h-1.9v2.6c0.4,0,0.7,0,1.1,0C44.5,25.2,44.9,25.2,45.1,25.2z"/>
		</g>
		<g>
			<path fill="#ED765C" d="M57.4,30.9l1.7-1.7L57.9,28l-1.7,1.7C56.6,30.1,57,30.5,57.4,30.9z"/>
		</g>
		<g>
			<path fill="#70D551" d="M31,54.8l-1.9,1.9l1.2,1.2l1.9-1.9C31.8,55.7,31.4,55.3,31,54.8z"/>
		</g>
		<g>
			<path fill="#70D551" d="M26.5,42h-2.8v1.9h2.8c0-0.4,0-0.7,0-0.9C26.5,42.7,26.5,42.4,26.5,42z"/>
		</g>
		<g>
			<path fill="#70D551" d="M32.2,29.9L30.4,28l-1.2,1.2l1.9,1.9C31.4,30.7,31.8,30.2,32.2,29.9z"/>
		</g>
		<g>
			<path fill="#FABA3A" d="M37.1,23.8l-1.6,0.7l1,2.4c0.5-0.3,1.1-0.5,1.6-0.7L37.1,23.8z"/>
		</g>
		<g>
			<path fill="#FABA3A" d="M52.7,24.5l-1.6-0.7l-1,2.3c0.5,0.2,1.1,0.4,1.6,0.7L52.7,24.5z"/>
		</g>
		<g>
			<path fill="#70D551" d="M25,50l0.7,1.6l2.5-1c-0.2-0.5-0.5-1.1-0.7-1.6L25,50z"/>
		</g>
		<g>
			<path fill="#ED765C" d="M63.3,36l-0.7-1.6l-2.2,0.9c0.2,0.5,0.5,1.1,0.7,1.6L63.3,36z"/>
		</g>
		<g>
			<path fill="#70D551" d="M25.7,34.4L25,36l2.5,1c0.2-0.5,0.4-1.1,0.7-1.6L25.7,34.4z"/>
		</g>
		<g>
			<g>
				<path fill="#FF2086" d="M41.8,56.7c-0.7-0.1-1.1-1.2-0.9-2.3L46,31.3c0.2-1.1,0.6-2,0.7-2c0.1,0,0.1,1,0,2.1l-3.3,23.4
					C43.3,56,42.5,56.8,41.8,56.7z"/>
			</g>
			<g>
				<g>
					<circle fill="#404553" cx="44.1" cy="43" r="2.1"/>
				</g>
			</g>
		</g>
	</g>
</g>
</svg>
