<svg version="1.1" xmlns="http://www.w3.org/2000/svg" xmlns:xlink="http://www.w3.org/1999/xlink" x="0px" y="0px"
	 viewBox="0 0 30 30" enable-background="new 0 0 30 30" xml:space="preserve">
<g>
	<polygon fill="#231F20" points="11.6,18.5 10.6,17.5 9.6,18.5 11.6,20.5 14.6,17.5 13.6,16.5 	"/>
	<polygon fill="#231F20" points="11.6,12.5 10.6,11.5 9.6,12.5 11.6,14.5 14.6,11.5 13.6,10.5 	"/>
	<rect x="16" y="12" fill="#231F20" width="4" height="1"/>
	<rect x="16" y="18" fill="#231F20" width="4" height="1"/>
	<path fill="#231F20" d="M21.1,7h-13C7.3,7,7,8.1,7,9v13c0,0.8,0.3,1,1.1,1h13c0.8,0,1.9-0.2,1.9-1V9C23,8.1,22,7,21.1,7z M22,21.5
		c0,0.3-0.2,0.5-0.5,0.5h-13C8.2,22,8,21.8,8,21.5v-13C8,8.2,8.2,8,8.5,8h13C21.8,8,22,8.2,22,8.5V21.5z"/>
</g>
</svg>
