<svg version="1.1" xmlns="http://www.w3.org/2000/svg" xmlns:xlink="http://www.w3.org/1999/xlink" x="0px" y="0px"
	 viewBox="0 0 87 87" enable-background="new 0 0 87 87" xml:space="preserve">
<g>
	<defs>
		<circle id="SVGID_1_" cx="43.4" cy="43.4" r="43.4"/>
	</defs>
	<clipPath id="SVGID_2_">
		<use xlink:href="#SVGID_1_"  overflow="visible"/>
	</clipPath>
	<circle clip-path="url(#SVGID_2_)" fill="#664A9E" cx="43.4" cy="43.4" r="43.4"/>
	<path opacity="5.000000e-02" clip-path="url(#SVGID_2_)" d="M98.7,54.9c0,0-0.1-0.1-0.1-0.1c-0.1-0.1-0.1-0.1-0.2-0.2
		c-0.1-0.1-0.2-0.2-0.3-0.3c-0.1-0.1-0.1-0.2-0.2-0.2c-0.1-0.1-0.1-0.2-0.2-0.2c-0.1-0.1-0.1-0.2-0.2-0.2c-0.1-0.1-0.1-0.2-0.2-0.2
		c-0.1-0.1-0.2-0.2-0.2-0.2c-0.1-0.1-0.1-0.2-0.2-0.2c-0.1-0.1-0.1-0.2-0.2-0.2c-0.1-0.1-0.1-0.2-0.2-0.2c-0.1-0.1-0.1-0.2-0.2-0.2
		C96,52,95.9,52,95.8,51.9c-0.1-0.1-0.1-0.2-0.2-0.2c-0.1-0.1-0.1-0.2-0.2-0.2c-0.1-0.1-0.1-0.2-0.2-0.2c-0.1-0.1-0.2-0.2-0.2-0.2
		c-0.1-0.1-0.1-0.2-0.2-0.2c-0.1-0.1-0.1-0.2-0.2-0.2c-0.1-0.1-0.1-0.2-0.2-0.2c-0.1-0.1-0.1-0.2-0.2-0.2c-0.1-0.1-0.1-0.2-0.2-0.2
		c-0.1-0.1-0.1-0.2-0.2-0.2c-0.1-0.1-0.1-0.2-0.2-0.2c-0.1-0.1-0.1-0.2-0.2-0.2c-0.1-0.1-0.2-0.2-0.2-0.2c-0.1-0.1-0.1-0.2-0.2-0.2
		c-0.1-0.1-0.1-0.2-0.2-0.2c-0.1-0.1-0.1-0.2-0.2-0.2c-0.1-0.1-0.1-0.2-0.2-0.2c-0.1-0.1-0.1-0.2-0.2-0.2c-0.1-0.1-0.1-0.2-0.2-0.2
		c-0.1-0.1-0.1-0.2-0.2-0.2c-0.1-0.1-0.1-0.2-0.2-0.2c-0.1-0.1-0.2-0.2-0.2-0.2c-0.1-0.1-0.1-0.2-0.2-0.2c-0.1-0.1-0.1-0.2-0.2-0.2
		c-0.1-0.1-0.1-0.2-0.2-0.2c-0.1-0.1-0.1-0.2-0.2-0.2c-0.1-0.1-0.1-0.2-0.2-0.2c-0.1-0.1-0.1-0.2-0.2-0.2C89,45,88.9,45,88.8,44.9
		c-0.1-0.1-0.1-0.2-0.2-0.2c-0.1-0.1-0.2-0.2-0.2-0.2c-0.1-0.1-0.1-0.2-0.2-0.2c-0.1-0.1-0.1-0.2-0.2-0.2c-0.1-0.1-0.1-0.2-0.2-0.2
		c-0.1-0.1-0.1-0.2-0.2-0.2c-0.1-0.1-0.1-0.2-0.2-0.2C87,43.1,87,43,86.9,43c-0.1-0.1-0.1-0.2-0.2-0.2c-0.1-0.1-0.1-0.2-0.2-0.2
		c-0.1-0.1-0.2-0.2-0.2-0.2c-0.1-0.1-0.1-0.2-0.2-0.2c-0.1-0.1-0.1-0.2-0.2-0.2c-0.1-0.1-0.1-0.2-0.2-0.2c-0.1-0.1-0.1-0.2-0.2-0.2
		c-0.1-0.1-0.1-0.2-0.2-0.2c-0.1-0.1-0.1-0.2-0.2-0.2c-0.1-0.1-0.1-0.2-0.2-0.2c-0.1-0.1-0.1-0.2-0.2-0.2c-0.1-0.1-0.2-0.2-0.2-0.2
		c-0.1-0.1-0.1-0.2-0.2-0.2c-0.1-0.1-0.1-0.2-0.2-0.2c-0.1-0.1-0.1-0.2-0.2-0.2c-0.1-0.1-0.1-0.2-0.2-0.2c-0.1-0.1-0.1-0.2-0.2-0.2
		c-0.1-0.1-0.1-0.2-0.2-0.2c-0.1-0.1-0.1-0.2-0.2-0.2c-0.1-0.1-0.1-0.2-0.2-0.2c-0.1-0.1-0.2-0.2-0.2-0.2c-0.1-0.1-0.1-0.2-0.2-0.2
		c-0.1-0.1-0.1-0.2-0.2-0.2c-0.1-0.1-0.1-0.2-0.2-0.2c-0.1-0.1-0.1-0.2-0.2-0.2c-0.1-0.1-0.1-0.2-0.2-0.2c-0.1-0.1-0.1-0.2-0.2-0.2
		c-0.1-0.1-0.1-0.2-0.2-0.2C80,36.1,80,36,79.9,36c-0.1-0.1-0.2-0.2-0.2-0.2c-0.1-0.1-0.1-0.2-0.2-0.2c-0.1-0.1-0.1-0.2-0.2-0.2
		c-0.1-0.1-0.1-0.2-0.2-0.2c-0.1-0.1-0.1-0.2-0.2-0.2c-0.1-0.1-0.1-0.2-0.2-0.2c-0.1-0.1-0.1-0.2-0.2-0.2c-0.1-0.1-0.1-0.2-0.2-0.2
		c-0.1-0.1-0.1-0.2-0.2-0.2c-0.1-0.1-0.2-0.2-0.2-0.2c-0.1-0.1-0.1-0.2-0.2-0.2c-0.1-0.1-0.1-0.2-0.2-0.2c-0.1-0.1-0.1-0.2-0.2-0.2
		c-0.1-0.1-0.1-0.2-0.2-0.2c-0.1-0.1-0.1-0.2-0.2-0.2c-0.1-0.1-0.1-0.2-0.2-0.2C76,32,75.9,32,75.8,31.9c-0.1-0.1-0.1-0.2-0.2-0.2
		c-0.1-0.1-0.2-0.2-0.2-0.2c-0.1-0.1-0.1-0.2-0.2-0.2c-0.1-0.1-0.1-0.2-0.2-0.2c-0.1-0.1-0.1-0.2-0.2-0.2c-0.1-0.1-0.1-0.2-0.2-0.2
		c-0.1-0.1-0.1-0.2-0.2-0.2c-0.1-0.1-0.1-0.2-0.2-0.2c-0.1-0.1-0.1-0.2-0.2-0.2c-0.1-0.1-0.1-0.2-0.2-0.2c-0.1-0.1-0.2-0.2-0.2-0.2
		c-0.1-0.1-0.1-0.2-0.2-0.2c-0.1-0.1-0.1-0.2-0.2-0.2c-0.1-0.1-0.1-0.2-0.2-0.2c-0.1-0.1-0.1-0.2-0.2-0.2c-0.1-0.1-0.1-0.2-0.2-0.2
		c-0.1-0.1-0.1-0.2-0.2-0.2c-0.1-0.1-0.1-0.2-0.2-0.2c-0.1-0.1-0.1-0.2-0.2-0.2c-0.1-0.1-0.2-0.2-0.2-0.2c-0.1-0.1-0.1-0.2-0.2-0.2
		c-0.1-0.1-0.1-0.2-0.2-0.2c-0.1-0.1-0.1-0.2-0.2-0.2c-0.1-0.1-0.1-0.2-0.2-0.2c-0.1-0.1-0.1-0.2-0.2-0.2c-0.1-0.1-0.1-0.2-0.2-0.2
		c-0.1-0.1-0.1-0.2-0.2-0.2c-0.1-0.1-0.1-0.2-0.2-0.2C69,25,68.9,25,68.8,24.9c-0.1-0.1-0.1-0.2-0.2-0.2c-0.1-0.1-0.1-0.2-0.2-0.2
		c-0.1-0.1-0.1-0.2-0.2-0.2c-0.1-0.1-0.1-0.2-0.2-0.2c-0.1-0.1-0.1-0.2-0.2-0.2c-0.1-0.1-0.1-0.2-0.2-0.2c-0.1-0.1-0.1-0.2-0.2-0.2
		C67,23.1,67,23,66.9,23c-0.1-0.1-0.2-0.2-0.2-0.2c-0.1-0.1-0.1-0.2-0.2-0.2c-0.1-0.1-0.1-0.2-0.2-0.2c-0.1-0.1-0.1-0.2-0.2-0.2
		c-0.1-0.1-0.1-0.2-0.2-0.2c-0.1-0.1-0.1-0.2-0.2-0.2c-0.1-0.1-0.1-0.2-0.2-0.2c-0.1-0.1-0.1-0.2-0.2-0.2c-0.1-0.1-0.1-0.2-0.2-0.2
		c-0.5-0.6-1.6-1.2-3-1.2l-38,0c-1.4,0-2.6,0.6-3.1,1.2c-0.1,0.1-0.1,0.1-0.1,0.2c0,0-0.1,0.1-0.1,0.1c-0.2,0.3-0.3,0.7-0.3,1.1V55
		c0,0.4,0.1,0.8,0.3,1.1c0,0,0.1,0.1,0.1,0.1c0.1,0.1,0.2,0.2,0.3,0.3c0.1,0.1,0.2,0.2,0.2,0.2c0.1,0.1,0.2,0.2,0.2,0.2
		c0.1,0.1,0.2,0.2,0.2,0.2c0.1,0.1,0.2,0.2,0.2,0.2c0.1,0.1,0.2,0.2,0.2,0.2c0.1,0.1,0.2,0.2,0.2,0.2c0.1,0.1,0.2,0.2,0.2,0.2
		c0.1,0.1,0.2,0.2,0.2,0.2c0.1,0.1,0.2,0.2,0.2,0.2c0.1,0.1,0.2,0.2,0.2,0.2c0.1,0.1,0.2,0.2,0.2,0.2c0.1,0.1,0.2,0.2,0.2,0.2
		c0.1,0.1,0.2,0.2,0.2,0.2c0.1,0.1,0.2,0.2,0.2,0.2c0.1,0.1,0.2,0.2,0.2,0.2c0.1,0.1,0.2,0.2,0.2,0.2c0.1,0.1,0.2,0.2,0.2,0.2
		c0.1,0.1,0.2,0.2,0.2,0.2c0.1,0.1,0.2,0.2,0.2,0.2c0.1,0.1,0.2,0.2,0.2,0.2c0.1,0.1,0.2,0.2,0.2,0.2c0.1,0.1,0.2,0.2,0.2,0.2
		c0.1,0.1,0.2,0.2,0.2,0.2c0.1,0.1,0.2,0.2,0.2,0.2c0.1,0.1,0.2,0.2,0.2,0.2c0.1,0.1,0.2,0.2,0.2,0.2c0.1,0.1,0.2,0.2,0.2,0.2
		c0.1,0.1,0.2,0.2,0.2,0.2c0.1,0.1,0.2,0.2,0.2,0.2c0.1,0.1,0.2,0.2,0.2,0.2c0.1,0.1,0.2,0.2,0.2,0.2c0.1,0.1,0.2,0.2,0.2,0.2
		c0.1,0.1,0.2,0.2,0.2,0.2c0.1,0.1,0.2,0.2,0.2,0.2c0.1,0.1,0.2,0.2,0.2,0.2c0.1,0.1,0.2,0.2,0.2,0.2c0.1,0.1,0.2,0.2,0.2,0.2
		c0.1,0.1,0.2,0.2,0.2,0.2c0.1,0.1,0.2,0.2,0.2,0.2c0.1,0.1,0.2,0.2,0.2,0.2c0.1,0.1,0.2,0.2,0.2,0.2c0.1,0.1,0.2,0.2,0.2,0.2
		c0,0,0,0,0,0l-0.5,1.6h0.3l-0.1,0.2h0.3l-0.1,0.2h0.3l-0.1,0.2h0.3l-0.1,0.2h0.3l-0.1,0.2h0.3l-0.1,0.2h0.3l-0.1,0.2h0.3l-0.1,0.2
		h0.3l-0.1,0.2h0.3l-0.1,0.2h0.3L33,70.8h0.3l-0.1,0.2h0.3l-0.1,0.2h0.3l-0.1,0.2h0.3L34,71.8h0.3L34.2,72h0.3l-0.1,0.2h0.3
		l-0.1,0.2H35L35,72.8h0.3L35.2,73h0.3l-0.1,0.2h0.3l-0.1,0.2H36l-0.1,0.2h0.3L36.2,74h0.3l-0.1,0.2h0.3l-0.1,0.2H37l-0.1,0.2h0.3
		l-0.1,0.2h0.3l-0.1,0.2h0.3l-0.1,0.2h0.3l-0.1,0.2h0.3l-0.1,0.2h0.3l-0.1,0.2h0.3l-0.1,0.2h0.3l-0.1,0.2h0.3l-0.1,0.2h0.3l-0.1,0.2
		h0.3l-0.1,0.2h0.3l-0.1,0.2h0.3L40,77.8h0.3l-0.1,0.2h0.3l-0.1,0.2h0.3l-0.1,0.2h0.3L41,78.8h0.3L41.2,79h0.3l-0.1,0.2h0.3
		l-0.1,0.2H42L42,79.7h0.3L42.2,80h0.3l-0.1,0.2h0.3l-0.1,0.2H43l-0.1,0.2h0.3l-0.1,0.2h0.3l-0.1,0.2h0.3l-0.1,0.2H44l-0.1,0.2h0.3
		l-0.1,0.2h0.3l-0.1,0.2h0.3l-0.1,0.2h0.3l-0.1,0.2h0.3l-0.1,0.2h0.3l-0.1,0.2h0.3l-0.1,0.2h0.3l-0.1,0.2h0.3L46,83.8h0.3l-0.1,0.2
		h0.3l-0.1,0.2h0.3l-0.1,0.2h0.3L47,84.8h0.3L47.3,85h0.3l-0.1,0.2h0.3l-0.1,0.2h0.3L48,85.8h0.3L48.2,86h0.3l-0.1,0.2h0.3l-0.1,0.2
		H49l-0.1,0.2h0.3L49.2,87h0.3l-0.1,0.2h0.3l-0.1,0.2H50l-0.1,0.2h0.3l-0.1,0.2h0.3l-0.1,0.2h0.3l-0.1,0.2h0.3l-0.1,0.2h0.3
		l-0.1,0.2h0.3l-0.1,0.2h0.3l-0.1,0.2h0.3l-0.1,0.2h0.3l-0.1,0.2h0.3l-0.1,0.2h0.3l-0.1,0.2h0.3l-0.1,0.2h0.3L53,90.8h0.3l-0.1,0.2
		h0.3l-0.1,0.2h0.3l-0.1,0.2h0.3L54,91.8h0.3L54.2,92h0.3l-0.1,0.2h0.3l-0.1,0.2H55L55,92.8h0.3L55.2,93h0.3l-0.1,0.2h0.3l-0.1,0.2
		H56l-0.1,0.2h0.3L56.2,94h0.3l-0.1,0.2h0.3l-0.1,0.2H57l-0.1,0.2h0.3l-0.1,0.2h0.3l-0.1,0.2h0.3l-0.1,0.2h0.3l-0.1,0.2h0.3
		l-0.1,0.2h0.3l-0.1,0.2h0.3l-0.1,0.2h0.3l-0.1,0.2h0.3l-0.1,0.2h0.3l-0.1,0.2h0.3l-0.1,0.2h0.3l-0.1,0.2h0.3L60,97.8h0.3l-0.1,0.2
		h0.3l-0.1,0.2h0.3l-0.1,0.2h0.3L61,98.8h0.3L61.2,99h0.3l-0.1,0.2h0.3l-0.1,0.2H62L62,99.7h0.3l-0.1,0.2h0.3l-0.1,0.2h0.3l-0.1,0.2
		H63l-0.1,0.2h0.3l-0.1,0.2h0.3l-0.1,0.2h0.3l-0.1,0.2H64l-0.1,0.2h0.3l-0.1,0.2H67l0.6-0.3l1.5-4.6h10.4l0,0l0.2,0.1l0,0.1l0.2,0.1
		l0,0.1l0.2,0.1l0,0.1l0.2,0.1l0,0.1l0.2,0.1l0,0.1l0.2,0.1l0,0.1l0.2,0.1l0,0.1l0.2,0.1l0,0.1l0.2,0.1l0,0.1l0.2,0.1l0,0.1l0.2,0.1
		l0,0.1l0.2,0.1l0,0.1l0.2,0.1l0,0.1l0.2,0.1l0,0.1l0.2,0.1l0,0.1l0.2,0.1l0,0.1l0.2,0.1l0,0.1l0.2,0.1l0,0.1l0.2,0.1l0,0.1l0.6,0.3
		h2.9L84,90.6h13.2c0.6,0,1.2-0.3,1.5-0.7c0,0,0.1-0.1,0.1-0.1c0.2-0.3,0.3-0.7,0.3-1.1V55.9C99.1,55.6,98.9,55.2,98.7,54.9z"/>
	<g clip-path="url(#SVGID_2_)">
		<g>
			<polygon fill="none" points="37.6,56.9 36.3,60.8 48.1,60.8 46.8,56.9 			"/>
			<path fill="#404553" d="M65,21.2c0,0-0.1-0.1-0.1-0.1c-0.1-0.1-0.1-0.1-0.2-0.2c-0.5-0.6-1.6-1.2-3-1.2l-38,0
				c-1.4,0-2.6,0.6-3.1,1.2c-0.1,0.1-0.1,0.1-0.1,0.2c0,0-0.1,0.1-0.1,0.1l0.1,0l0,0l-0.1,0c-0.2,0.3-0.3,0.7-0.3,1.1V55
				c0,0.4,0.1,0.8,0.3,1.1c0,0,0.1,0.1,0.1,0.1c0.4,0.4,0.9,0.7,1.5,0.7h12.2l-3.8,11.3h2.9l0.6-0.3l1.5-4.6h13.5l1.5,4.6l0.6,0.3
				H54l-3.8-11.3h13.2c0.6,0,1.2-0.3,1.5-0.7c0,0,0.1-0.1,0.1-0.1c0.2-0.3,0.3-0.7,0.3-1.1V22.2C65.3,21.8,65.2,21.5,65,21.2z
				 M42.8,38.6l-0.1,0.1h0L42.8,38.6z M21,21.4L21,21.4L21,21.4L21,21.4z M36.3,60.8l1.3-4h9.2l1.3,4H36.3z"/>
		</g>
		<rect x="22.5" y="22.7" fill="#70D551" width="40.4" height="31.8"/>
		<g>
			<polygon fill="#DE3F19" points="51.6,26 52.7,26.2 50.5,28.9 48.6,28.9 46.6,32.1 43.4,32.1 42.1,34.6 38.4,34.6 36.4,37.2 
				33.3,37.2 31.4,39.1 28.3,39.1 28.3,40 31.7,40 33.7,38.1 36.9,38.1 38.8,35.6 42.7,35.6 44,33 47.2,33 49.1,29.8 51,29.8 
				53.5,26.7 53.6,26.7 54.3,27.9 55.5,23.3 			"/>
			<rect x="28.3" y="42.8" fill="#FFFFFF" width="4.5" height="7.7"/>
			<rect x="33.5" y="40.9" fill="#FFFFFF" width="4.5" height="9.6"/>
			<rect x="38.6" y="38.3" fill="#FFFFFF" width="4.5" height="12.2"/>
			<rect x="43.7" y="35.7" fill="#FFFFFF" width="4.5" height="14.7"/>
			<rect x="48.8" y="32.5" fill="#FFFFFF" width="4.5" height="17.9"/>
		</g>
	</g>
</g>
</svg>
