<svg version="1.1" xmlns="http://www.w3.org/2000/svg" xmlns:xlink="http://www.w3.org/1999/xlink" x="0px" y="0px"
	 viewBox="0 0 30 30" enable-background="new 0 0 30 30" xml:space="preserve">
<path fill="#231F20" d="M22.1,19.2c-0.5-0.7-2-1.2-3.6-1.8c-1.6-0.6-1.9-0.9-1.9-0.9l0-1.5c0,0,0.6-0.4,0.8-1.9
	c0.4,0.1,0.7-0.5,0.8-0.9c0-0.3-0.1-1.2-0.5-1.2c0.1-0.7,0.2-1.3,0.1-1.6C17.6,8.3,16.4,7,14.6,7s-3,1.3-3.1,2.5
	c0,0.3,0,0.9,0.1,1.6c-0.4-0.1-0.5,0.8-0.5,1.2c0,0.3,0.4,1,0.8,0.9c0.2,1.4,0.8,1.8,0.8,1.8l0,1.5c0,0-0.4,0.2-1.9,0.9
	c-1.6,0.6-3.1,1.1-3.6,1.8C6.7,19.9,6.9,23,6.9,23h15.5C22.4,23,22.5,19.9,22.1,19.2z"/>
</svg>
